# Blender 4.4.3
# www.blender.org
mtllib cube.mtl
o Cube
v 1.000000 1.000000 -1.000000
v 0.000000 1.000000 -1.000000
v -1.000000 1.000000 0.000000
v 1.000000 1.000000 0.000000
v 0.000000 1.000000 -1.000000
v -1.000000 1.000000 -1.000000
v -1.000000 1.000000 0.000000
v -1.000000 1.000000 1.000000
v 1.000000 1.000000 1.000000
v 1.000000 1.000000 0.000000
v -1.000000 1.000000 0.000000
v 1.000000 0.000000 -1.000000
v 0.000000 -1.000000 -1.000000
v 1.000000 0.000000 -1.000000
v 1.000000 -1.000000 -1.000000
v 0.000000 -1.000000 -1.000000
v 0.000000 -1.000000 -1.000000
v -1.000000 -1.000000 -1.000000
v 1.000000 1.000000 -0.000000
v 1.000000 -1.000000 -0.000000
v 1.000000 -1.000000 0.000000
v 1.000000 -1.000000 1.000000
v 1.000000 -1.000000 0.000000
v -1.000000 -1.000000 0.000000
v -1.000000 -1.000000 0.000000
v -1.000000 -1.000000 1.000000
vn -0.0000 1.0000 -0.0000
vn -0.0000 -0.0000 -1.0000
vn 1.0000 -0.0000 -0.0000
vn -0.0000 -1.0000 -0.0000
vn -1.0000 -0.0000 -0.0000
vn -0.0000 -0.0000 1.0000
vt 0.000000 0.333333
vt 0.000000 0.166667
vt 0.166667 0.000000
vt 0.166667 0.333333
vt 0.000000 0.000000
vt 0.333333 0.000000
vt 0.333333 0.333333
vt 0.000000 0.333333
vt 0.166667 0.333333
vt 0.333333 0.500000
vt 0.000000 0.500000
vt 0.333333 0.333333
vt 0.333333 0.666667
vt 0.000000 0.666667
vt 0.666667 0.333333
vt 0.500000 0.333333
vt 0.333333 0.166667
vt 0.666667 0.166667
vt 0.333333 0.333333
vt 0.333333 0.000000
vt 0.666667 0.000000
vt 0.333333 0.666667
vt 0.333333 0.500000
vt 0.500000 0.333333
vt 0.500000 0.666667
vt 0.333333 0.333333
vt 0.666667 0.333333
vt 0.666667 0.666667
vt 0.333333 1.000000
vt 0.000000 1.000000
vt 0.000000 0.833333
vt 0.333333 0.833333
vt 0.000000 0.666667
vt 0.333333 0.666667
vt 0.333333 0.666667
vt 0.666667 0.666667
vt 0.666667 1.000000
vt 0.333333 1.000000
s 0
usemtl Material
f 1/1/1 2/2/1 3/3/1 4/4/1
f 5/2/1 6/5/1 7/3/1
f 8/6/1 9/7/1 10/4/1 11/3/1
f 1/8/2 12/9/2 13/10/2 2/11/2
f 14/9/2 15/12/2 16/10/2
f 5/11/2 17/10/2 18/13/2 6/14/2
f 15/15/3 14/16/3 19/17/3 20/18/3
f 12/16/3 1/19/3 4/17/3
f 21/18/3 10/17/3 9/20/3 22/21/3
f 18/22/4 17/23/4 23/24/4 24/25/4
f 16/23/4 15/26/4 20/24/4
f 25/25/4 21/24/4 22/27/4 26/28/4
f 26/29/5 8/30/5 11/31/5 25/32/5
f 24/32/5 7/31/5 6/33/5 18/34/5
f 8/35/6 26/36/6 22/37/6 9/38/6
