# Blender 4.4.3
# www.blender.org
o Cube
v 1.000000 -0.034605 -1.000000
v 0.563703 6.643002 -0.651425
v 1.000000 -0.034605 1.000000
v 0.563703 6.643002 0.651425
v -1.000000 -0.034605 -1.000000
v -0.563703 6.643002 -0.651425
v -1.000000 -0.034605 1.000000
v -0.563703 6.643002 0.651425
v 0.524650 12.625736 0.782819
v 0.950413 12.625736 2.299515
v -0.389594 12.625736 2.675678
v -0.815356 12.625736 1.158981
v 1.819674 16.619415 -2.567141
v 3.451619 16.619415 4.318019
v -1.684618 16.619415 6.025638
v -3.316563 16.619415 -0.859522
vn 0.9979 0.0652 -0.0000
vn -0.0000 0.0521 0.9986
vn -0.9979 0.0652 -0.0000
vn -0.0000 0.0521 -0.9986
vn -0.0000 -1.0000 -0.0000
vn -0.0000 -0.3205 0.9472
vn -0.8726 -0.4227 0.2449
vn -0.9991 -0.0420 -0.0000
vn 0.9627 0.0122 -0.2702
vn -0.0000 0.2331 -0.9724
vn -0.0000 1.0000 -0.0000
vn 0.8726 -0.4227 -0.2449
vn -0.2592 -0.5700 -0.7797
vn 0.2592 -0.5700 0.7797
vn 0.2601 -0.2720 0.9265
vn -0.8672 -0.4536 0.2055
vn -0.9609 -0.0633 0.2697
vn 1.0000 0.0065 -0.0000
vn -0.2603 0.2696 -0.9271
vn 0.8672 -0.4536 -0.2055
vn -0.2260 -0.5484 -0.8051
vn 0.2260 -0.5484 0.8051
vt 0.625741 0.846464
vt 0.807137 0.885061
vt 0.656423 0.965097
vt 0.170363 0.780084
vt 0.288468 0.646282
vt 0.288468 0.817416
vt 0.539880 0.828124
vt 0.593151 1.000000
vt 0.461344 0.893671
vt 0.288468 0.780084
vt 0.406573 0.646282
vt 0.406573 0.817416
vt 0.170363 0.817633
vt -0.000000 0.646282
vt 0.170363 0.646517
vt 0.628090 0.417348
vt 0.748209 0.258606
vt 0.721956 0.439565
vt 0.922674 0.602692
vt 0.753727 0.392676
vt 0.571292 0.719285
vt 0.625741 0.897390
vt 0.723920 0.794326
vt 0.687343 0.699075
vt 0.807137 0.642974
vt 0.903570 0.645600
vt 0.807137 0.765744
vt 0.807137 0.642974
vt -0.000000 0.605467
vt 0.461344 0.040815
vt 0.461344 0.646282
vt 0.634738 0.397439
vt 0.461344 0.040282
vt 0.629220 0.263369
vt 0.461344 0.642974
vt 0.922674 -0.000000
vt 0.170363 0.683615
vt 0.288468 0.683615
vt -0.000000 0.817398
vt 0.461344 0.642974
vt 0.920879 0.801040
vt 0.000000 0.000000
s 0
f 2/1/1 3/2/1 1/3/1
f 4/4/2 7/5/2 3/6/2
f 8/7/3 5/8/3 7/9/3
f 6/10/4 1/11/4 5/12/4
f 7/13/5 1/14/5 3/15/5
f 4/16/6 11/17/6 8/18/6
f 11/17/7 16/19/7 12/20/7
f 8/7/8 12/21/8 6/22/8
f 4/23/9 9/24/9 10/25/9
f 6/26/10 9/27/10 2/28/10
f 14/29/11 16/30/11 15/31/11
f 9/32/12 14/33/12 10/34/12
f 9/32/13 16/19/13 13/35/13
f 11/17/14 14/33/14 15/36/14
f 2/1/1 4/23/1 3/2/1
f 4/4/2 8/37/2 7/5/2
f 8/7/3 6/22/3 5/8/3
f 6/10/4 2/38/4 1/11/4
f 7/13/5 5/39/5 1/14/5
f 4/16/15 10/34/15 11/17/15
f 11/17/16 15/36/16 16/19/16
f 8/7/17 11/40/17 12/21/17
f 4/23/18 2/1/18 9/24/18
f 6/26/19 12/41/19 9/27/19
f 14/29/11 13/42/11 16/30/11
f 9/32/20 13/35/20 14/33/20
f 9/32/21 12/20/21 16/19/21
f 11/17/22 10/34/22 14/33/22
