# Blender 4.5.3 LTS
# www.blender.org
mtllib barrel.mtl
o Barrel_Cylinder
v -0.005306 0.435221 -0.261388
v 0.123856 0.444452 -0.226779
v 0.218409 0.441494 -0.132226
v 0.253018 0.435221 -0.003064
v 0.218409 0.435221 0.126098
v 0.123856 0.435221 0.220651
v -0.005306 0.435221 0.255260
v -0.134468 0.435221 0.220651
v -0.229021 0.435221 0.126098
v -0.263630 0.435221 -0.003064
v -0.229021 0.435221 -0.132226
v -0.134468 0.435221 -0.226779
v -0.005306 -0.002577 -0.351089
v 0.168706 -0.002577 -0.304462
v 0.296092 -0.002577 -0.177076
v 0.342719 -0.002577 -0.003064
v 0.296092 -0.002577 0.170948
v 0.168706 -0.002577 0.298334
v -0.005306 -0.002577 0.344961
v -0.179318 -0.002577 0.298334
v -0.306704 -0.002577 0.170948
v -0.353331 -0.002577 -0.003064
v -0.306704 -0.002577 -0.177076
v -0.179318 -0.002577 -0.304462
v -0.005306 0.301974 -0.301833
v -0.005306 0.137552 -0.337304
v 0.161814 0.137552 -0.292525
v 0.144078 0.301974 -0.261805
v 0.284155 0.137552 -0.170184
v 0.253435 0.301974 -0.152448
v 0.328934 0.137552 -0.003064
v 0.293463 0.301974 -0.003064
v 0.284155 0.137552 0.164056
v 0.253435 0.301974 0.146320
v 0.161814 0.137552 0.286397
v 0.144078 0.301974 0.255677
v -0.005306 0.137552 0.331176
v -0.005306 0.301974 0.295705
v -0.172426 0.137552 0.286397
v -0.154690 0.301974 0.255677
v -0.294767 0.137552 0.164056
v -0.264047 0.301974 0.146320
v -0.339546 0.137552 -0.003064
v -0.304075 0.301974 -0.003064
v -0.294767 0.137552 -0.170184
v -0.264047 0.301974 -0.152448
v -0.172426 0.137552 -0.292525
v -0.154690 0.301974 -0.261805
v 0.106917 0.444452 -0.197440
v -0.005306 0.435221 -0.227510
v 0.189070 0.441494 -0.115287
v 0.219140 0.435221 -0.003064
v 0.189070 0.435221 0.109159
v 0.106917 0.435221 0.191312
v -0.005306 0.435221 0.221382
v -0.117529 0.435221 0.191312
v -0.199682 0.435221 0.109159
v -0.229752 0.435221 -0.003064
v -0.199682 0.435221 -0.115287
v -0.117529 0.435221 -0.197440
v 0.103148 0.414382 -0.190911
v -0.005306 0.414382 -0.219971
v 0.182541 0.414382 -0.111518
v 0.211601 0.414382 -0.003064
v 0.182541 0.414382 0.105390
v 0.103148 0.414382 0.184783
v -0.005306 0.414382 0.213843
v -0.113760 0.414382 0.184783
v -0.193153 0.414382 0.105390
v -0.222213 0.414382 -0.003064
v -0.193153 0.414382 -0.111518
v -0.113760 0.414382 -0.190911
v -0.005306 -0.440375 -0.261388
v 0.123856 -0.440375 -0.226779
v -0.229021 -0.440375 0.126098
v -0.263630 -0.440375 -0.003064
v -0.134468 -0.440375 -0.226779
v -0.005306 -0.307129 -0.301833
v -0.005306 -0.142706 -0.337304
v 0.161814 -0.142706 -0.292525
v 0.144078 -0.307129 -0.261805
v 0.284155 -0.142706 -0.170184
v 0.253435 -0.307129 -0.152448
v 0.328934 -0.142706 -0.003064
v 0.293463 -0.307129 -0.003064
v 0.284155 -0.142706 0.164056
v 0.253435 -0.307129 0.146320
v 0.161814 -0.142706 0.286397
v 0.144078 -0.307129 0.255677
v -0.005306 -0.142706 0.331176
v -0.005306 -0.307129 0.295705
v -0.172426 -0.142706 0.286397
v -0.154690 -0.307129 0.255677
v -0.294767 -0.142706 0.164056
v -0.264047 -0.307129 0.146320
v -0.339546 -0.142706 -0.003064
v -0.304075 -0.307129 -0.003064
v -0.294767 -0.142706 -0.170184
v -0.264047 -0.307129 -0.152448
v -0.172426 -0.142706 -0.292525
v -0.154690 -0.307129 -0.261805
v 0.218409 -0.440375 -0.132226
v 0.253018 -0.440375 -0.003064
v 0.218409 -0.440375 0.126098
v 0.123856 -0.440375 0.220651
v -0.005306 -0.440375 0.255260
v -0.134468 -0.440375 0.220651
v -0.229021 -0.440375 -0.132226
v 0.106917 -0.440375 -0.197440
v -0.005306 -0.440375 -0.227510
v 0.189070 -0.440375 -0.115287
v 0.219140 -0.440375 -0.003064
v 0.189070 -0.440375 0.109159
v 0.106917 -0.440375 0.191312
v -0.005306 -0.440375 0.221382
v -0.117529 -0.440375 0.191312
v -0.199682 -0.440375 0.109159
v -0.229752 -0.440375 -0.003064
v -0.199682 -0.440375 -0.115287
v -0.117529 -0.440375 -0.197440
v 0.103148 -0.419536 -0.190911
v -0.005306 -0.419536 -0.219971
v 0.182541 -0.419536 -0.111518
v 0.211601 -0.419536 -0.003064
v 0.182541 -0.419536 0.105390
v 0.103148 -0.419536 0.184783
v -0.005306 -0.419536 0.213843
v -0.113760 -0.419536 0.184783
v -0.193153 -0.419536 0.105390
v -0.222213 -0.419536 -0.003064
v -0.193153 -0.419536 -0.111518
v -0.113760 -0.419536 -0.190911
v -0.130803 0.448025 0.221633
v -0.130803 0.448025 -0.227761
v -0.174380 -0.002577 -0.305786
v -0.174380 -0.002577 0.299658
v -0.150451 0.301974 -0.262941
v -0.167684 0.137552 -0.293795
v -0.150451 0.301974 0.256813
v -0.167684 0.137552 0.287667
v -0.114344 0.448025 0.192165
v -0.114344 0.448025 -0.198293
v -0.110682 0.422004 0.185608
v -0.110682 0.422004 -0.191736
v -0.130803 -0.440375 -0.227761
v -0.150451 -0.307129 -0.262941
v -0.167684 -0.142706 -0.293795
v -0.150451 -0.307129 0.256813
v -0.167684 -0.142706 0.287667
v -0.130803 -0.440375 0.221633
v -0.114344 -0.440375 0.192165
v -0.114344 -0.440375 -0.198293
v -0.110682 -0.419536 0.185608
v -0.110682 -0.419536 -0.191736
v -0.010508 0.448025 0.253866
v -0.012315 -0.002577 -0.349211
v -0.011323 0.301974 -0.300221
v -0.012037 0.137552 0.329373
v -0.009826 0.448025 0.220170
v -0.009674 0.414382 0.212673
v -0.011323 -0.307129 -0.300221
v -0.012037 -0.142706 0.329373
v -0.010508 -0.440375 0.253866
v -0.009826 -0.440375 0.220170
v -0.009674 -0.419536 0.212673
v -0.010508 0.448025 -0.259994
v -0.012315 -0.002577 0.343083
v -0.012037 0.137552 -0.335501
v -0.011323 0.301974 0.294093
v -0.009826 0.448025 -0.226298
v -0.009674 0.414382 -0.218801
v -0.010508 -0.440375 -0.259994
v -0.012037 -0.142706 -0.335501
v -0.011323 -0.307129 0.294093
v -0.009826 -0.440375 -0.226298
v -0.009674 -0.419536 -0.218801
v 0.219917 0.457583 0.120470
v 0.298124 -0.002577 0.163367
v 0.255179 0.301974 0.139812
v 0.286106 0.137552 0.156775
v 0.190380 0.457583 0.104269
v 0.183807 0.414382 0.100664
v 0.255179 -0.307129 0.139812
v 0.286106 -0.142706 0.156775
v 0.219917 -0.440375 0.120470
v 0.190380 -0.440375 0.104269
v 0.183807 -0.419536 0.100664
v 0.251919 0.457583 0.001038
v 0.327512 0.137552 0.002244
v 0.218185 0.457583 0.000500
v 0.210678 0.414382 0.000380
v 0.327512 -0.142706 0.002244
v 0.251919 -0.440375 0.001038
v 0.218185 -0.440375 0.000500
v 0.210678 -0.419536 0.000380
v 0.341238 -0.002577 0.002463
v 0.292192 0.301974 0.001680
v 0.292192 -0.307129 0.001680
v -0.005306 0.217992 -0.327831
v -0.005306 0.289131 -0.312469
v 0.078750 0.217992 -0.316765
v 0.074774 0.289131 -0.301926
v 0.157078 0.217992 -0.284321
v 0.149396 0.289131 -0.271016
v 0.224339 0.217992 -0.232709
v 0.213476 0.289131 -0.221846
v 0.275951 0.217992 -0.165448
v 0.262646 0.289131 -0.157766
v 0.308395 0.217992 -0.087120
v 0.293556 0.289131 -0.083144
v 0.319461 0.217992 -0.003064
v 0.304099 0.289131 -0.003064
v 0.308395 0.217992 0.080992
v 0.293556 0.289131 0.077016
v 0.275951 0.217992 0.159320
v 0.262646 0.289131 0.151638
v 0.224339 0.217992 0.226581
v 0.213476 0.289131 0.215718
v 0.157078 0.217992 0.278193
v 0.149396 0.289131 0.264888
v 0.078750 0.217992 0.310637
v 0.074774 0.289131 0.295798
v -0.005306 0.217992 0.321703
v -0.005306 0.289131 0.306340
v -0.089362 0.217992 0.310637
v -0.085386 0.289131 0.295798
v -0.167690 0.217992 0.278193
v -0.160008 0.289131 0.264888
v -0.234951 0.217992 0.226581
v -0.224088 0.289131 0.215718
v -0.286563 0.217992 0.159320
v -0.273258 0.289131 0.151638
v -0.319007 0.217992 0.080992
v -0.304168 0.289131 0.077016
v -0.330073 0.217992 -0.003064
v -0.314710 0.289131 -0.003064
v -0.319007 0.217992 -0.087120
v -0.304168 0.289131 -0.083144
v -0.286563 0.217992 -0.165448
v -0.273258 0.289131 -0.157766
v -0.234951 0.217992 -0.232709
v -0.224088 0.289131 -0.221846
v -0.167690 0.217992 -0.284321
v -0.160008 0.289131 -0.271016
v -0.089362 0.217992 -0.316765
v -0.085386 0.289131 -0.301926
v -0.005306 0.219542 -0.290208
v -0.005306 0.287580 -0.276625
v 0.069012 0.219542 -0.280424
v 0.065497 0.287580 -0.267304
v 0.138266 0.219542 -0.251738
v 0.131475 0.287580 -0.239975
v 0.197736 0.219542 -0.206106
v 0.188131 0.287580 -0.196501
v 0.243368 0.219542 -0.146636
v 0.231605 0.287580 -0.139845
v 0.272054 0.219542 -0.077382
v 0.258934 0.287580 -0.073867
v 0.281838 0.219542 -0.003064
v 0.268255 0.287580 -0.003064
v 0.272054 0.219542 0.071254
v 0.258934 0.287580 0.067739
v 0.243368 0.219542 0.140508
v 0.231605 0.287580 0.133717
v 0.197736 0.219542 0.199978
v 0.188131 0.287580 0.190373
v 0.138266 0.219542 0.245610
v 0.131475 0.287580 0.233847
v 0.069012 0.219542 0.274296
v 0.065497 0.287580 0.261176
v -0.005306 0.219542 0.284080
v -0.005306 0.287580 0.270497
v -0.079624 0.219542 0.274296
v -0.076109 0.287580 0.261176
v -0.148878 0.219542 0.245610
v -0.142087 0.287580 0.233847
v -0.208348 0.219542 0.199978
v -0.198743 0.287580 0.190373
v -0.253980 0.219542 0.140508
v -0.242217 0.287580 0.133717
v -0.282666 0.219542 0.071254
v -0.269546 0.287580 0.067739
v -0.292450 0.219542 -0.003064
v -0.278867 0.287580 -0.003064
v -0.282666 0.219542 -0.077382
v -0.269546 0.287580 -0.073867
v -0.253980 0.219542 -0.146636
v -0.242217 0.287580 -0.139845
v -0.208348 0.219542 -0.206106
v -0.198743 0.287580 -0.196501
v -0.148878 0.219542 -0.251738
v -0.142087 0.287580 -0.239975
v -0.079624 0.219542 -0.280424
v -0.076109 0.287580 -0.267304
v -0.005306 -0.223147 -0.327831
v -0.005306 -0.294285 -0.312469
v 0.078750 -0.223147 -0.316765
v 0.074774 -0.294285 -0.301926
v 0.157078 -0.223147 -0.284321
v 0.149396 -0.294285 -0.271016
v 0.224339 -0.223147 -0.232709
v 0.213476 -0.294285 -0.221846
v 0.275951 -0.223147 -0.165448
v 0.262646 -0.294285 -0.157766
v 0.308395 -0.223147 -0.087120
v 0.293556 -0.294285 -0.083144
v 0.319461 -0.223147 -0.003064
v 0.304099 -0.294285 -0.003064
v 0.308395 -0.223147 0.080992
v 0.293556 -0.294285 0.077016
v 0.275951 -0.223147 0.159320
v 0.262646 -0.294285 0.151638
v 0.224339 -0.223147 0.226581
v 0.213476 -0.294285 0.215718
v 0.157078 -0.223147 0.278193
v 0.149396 -0.294285 0.264888
v 0.078750 -0.223147 0.310637
v 0.074774 -0.294285 0.295798
v -0.005306 -0.223147 0.321703
v -0.005306 -0.294285 0.306340
v -0.089362 -0.223147 0.310637
v -0.085386 -0.294285 0.295798
v -0.167690 -0.223147 0.278193
v -0.160008 -0.294285 0.264888
v -0.234951 -0.223147 0.226581
v -0.224088 -0.294285 0.215718
v -0.286563 -0.223147 0.159320
v -0.273258 -0.294285 0.151638
v -0.319007 -0.223147 0.080992
v -0.304168 -0.294285 0.077016
v -0.330073 -0.223147 -0.003064
v -0.314710 -0.294285 -0.003064
v -0.319007 -0.223147 -0.087120
v -0.304168 -0.294285 -0.083144
v -0.286563 -0.223147 -0.165448
v -0.273258 -0.294285 -0.157766
v -0.234951 -0.223147 -0.232709
v -0.224088 -0.294285 -0.221846
v -0.167690 -0.223147 -0.284321
v -0.160008 -0.294285 -0.271016
v -0.089362 -0.223147 -0.316765
v -0.085386 -0.294285 -0.301926
v -0.005306 -0.224697 -0.290208
v -0.005306 -0.292735 -0.276625
v 0.069012 -0.224697 -0.280424
v 0.065497 -0.292735 -0.267304
v 0.138266 -0.224697 -0.251738
v 0.131475 -0.292735 -0.239975
v 0.197736 -0.224697 -0.206106
v 0.188131 -0.292735 -0.196501
v 0.243368 -0.224697 -0.146636
v 0.231605 -0.292735 -0.139845
v 0.272054 -0.224697 -0.077382
v 0.258934 -0.292735 -0.073867
v 0.281838 -0.224697 -0.003064
v 0.268255 -0.292735 -0.003064
v 0.272054 -0.224697 0.071254
v 0.258934 -0.292735 0.067739
v 0.243368 -0.224697 0.140508
v 0.231605 -0.292735 0.133717
v 0.197736 -0.224697 0.199978
v 0.188131 -0.292735 0.190373
v 0.138266 -0.224697 0.245610
v 0.131475 -0.292735 0.233847
v 0.069012 -0.224697 0.274296
v 0.065497 -0.292735 0.261176
v -0.005306 -0.224697 0.284080
v -0.005306 -0.292735 0.270497
v -0.079624 -0.224697 0.274296
v -0.076109 -0.292735 0.261176
v -0.148878 -0.224697 0.245610
v -0.142087 -0.292735 0.233847
v -0.208348 -0.224697 0.199978
v -0.198743 -0.292735 0.190373
v -0.253980 -0.224697 0.140508
v -0.242217 -0.292735 0.133717
v -0.282666 -0.224697 0.071254
v -0.269546 -0.292735 0.067739
v -0.292450 -0.224697 -0.003064
v -0.278867 -0.292735 -0.003064
v -0.282666 -0.224697 -0.077382
v -0.269546 -0.292735 -0.073867
v -0.253980 -0.224697 -0.146636
v -0.242217 -0.292735 -0.139845
v -0.208348 -0.224697 -0.206106
v -0.198743 -0.292735 -0.196501
v -0.148878 -0.224697 -0.251738
v -0.142087 -0.292735 -0.239975
v -0.079624 -0.224697 -0.280424
v -0.076109 -0.292735 -0.267304
v -0.353575 0.042246 -0.003064
v -0.354322 -0.026271 -0.003064
v -0.341708 0.042246 -0.093203
v -0.342429 -0.026271 -0.093396
v -0.306916 0.042246 -0.177199
v -0.307562 -0.026271 -0.177572
v -0.251570 0.042246 -0.249328
v -0.252097 -0.026271 -0.249855
v -0.179441 0.042246 -0.304674
v -0.179814 -0.026271 -0.305320
v -0.095445 0.042246 -0.339466
v -0.095638 -0.026271 -0.340187
v -0.005306 0.042246 -0.351333
v -0.005306 -0.026271 -0.352079
v 0.084833 0.042246 -0.339466
v 0.085026 -0.026271 -0.340187
v 0.168829 0.042246 -0.304674
v 0.169202 -0.026271 -0.305320
v 0.240958 0.042246 -0.249328
v 0.241485 -0.026271 -0.249855
v 0.296304 0.042246 -0.177199
v 0.296950 -0.026271 -0.177572
v 0.331096 0.042246 -0.093203
v 0.331817 -0.026271 -0.093396
v 0.342963 0.042246 -0.003064
v 0.343709 -0.026271 -0.003064
v 0.331096 0.042246 0.087075
v 0.331817 -0.026271 0.087268
v 0.296304 0.042246 0.171071
v 0.296950 -0.026271 0.171444
v 0.240958 0.042246 0.243199
v 0.241485 -0.026271 0.243727
v 0.168829 0.042246 0.298546
v 0.169202 -0.026271 0.299192
v 0.084833 0.042246 0.333338
v 0.085026 -0.026271 0.334059
v -0.005306 0.042246 0.345205
v -0.005306 -0.026271 0.345952
v -0.095445 0.042246 0.333338
v -0.095638 -0.026271 0.334059
v -0.179441 0.042246 0.298546
v -0.179814 -0.026271 0.299192
v -0.251569 0.042246 0.243200
v -0.252097 -0.026271 0.243727
v -0.306916 0.042246 0.171071
v -0.307562 -0.026271 0.171444
v -0.341708 0.042246 0.087075
v -0.342429 -0.026271 0.087268
v -0.332862 0.040753 -0.003064
v -0.317368 -0.024778 -0.003064
v -0.321701 0.040753 -0.087842
v -0.306735 -0.024778 -0.083831
v -0.288978 0.040753 -0.166842
v -0.275559 -0.024778 -0.159095
v -0.236923 0.040753 -0.234681
v -0.225967 -0.024778 -0.223725
v -0.169084 0.040753 -0.286736
v -0.161337 -0.024778 -0.273317
v -0.090084 0.040753 -0.319459
v -0.086074 -0.024778 -0.304492
v -0.005306 0.040753 -0.330620
v -0.005306 -0.024778 -0.315126
v 0.079472 0.040753 -0.319459
v 0.075461 -0.024778 -0.304492
v 0.158472 0.040753 -0.286736
v 0.150725 -0.024778 -0.273317
v 0.226311 0.040753 -0.234681
v 0.215355 -0.024778 -0.223725
v 0.278366 0.040753 -0.166842
v 0.264947 -0.024778 -0.159095
v 0.311089 0.040753 -0.087842
v 0.296122 -0.024778 -0.083832
v 0.322250 0.040753 -0.003064
v 0.306756 -0.024778 -0.003064
v 0.311089 0.040753 0.081714
v 0.296122 -0.024778 0.077704
v 0.278366 0.040753 0.160714
v 0.264947 -0.024778 0.152967
v 0.226311 0.040753 0.228553
v 0.215355 -0.024778 0.217597
v 0.158472 0.040753 0.280608
v 0.150725 -0.024778 0.267189
v 0.079472 0.040753 0.313331
v 0.075462 -0.024778 0.298364
v -0.005306 0.040753 0.324492
v -0.005306 -0.024778 0.308998
v -0.090084 0.040753 0.313331
v -0.086073 -0.024778 0.298364
v -0.169084 0.040753 0.280608
v -0.161337 -0.024778 0.267189
v -0.236923 0.040753 0.228553
v -0.225967 -0.024778 0.217597
v -0.288978 0.040753 0.160714
v -0.275559 -0.024778 0.152967
v -0.321701 0.040753 0.081714
v -0.306735 -0.024778 0.077704
vn -0.2588 -0.0000 -0.9659
vn -0.2559 0.1495 -0.9551
vn -0.0000 0.1532 -0.9882
vn -0.0000 -0.0000 -1.0000
vn 0.8660 -0.0000 -0.5000
vn 0.8558 0.1532 -0.4941
vn 0.9882 0.1532 -0.0000
vn 1.0000 -0.0000 -0.0000
vn 0.9659 -0.0000 0.2588
vn 0.9551 0.1495 0.2559
vn 0.8558 0.1532 0.4941
vn 0.8660 -0.0000 0.5000
vn 0.4941 0.1532 0.8558
vn 0.5000 -0.0000 0.8660
vn -0.0000 0.1532 0.9882
vn -0.0000 -0.0000 1.0000
vn -0.2588 -0.0000 0.9659
vn -0.2559 0.1495 0.9551
vn -0.4941 0.1532 0.8558
vn -0.5000 -0.0000 0.8660
vn -0.8558 0.1532 0.4941
vn -0.8660 -0.0000 0.5000
vn -0.9882 0.1532 -0.0000
vn -1.0000 -0.0000 -0.0000
vn -0.8558 0.1532 -0.4941
vn -0.8660 -0.0000 -0.5000
vn -0.4941 0.1532 -0.8558
vn -0.5000 -0.0000 -0.8660
vn 0.0149 0.9994 0.0326
vn -0.0273 0.9996 -0.0012
vn -0.0272 0.9996 -0.0012
vn 0.4941 0.1532 -0.8558
vn 0.5000 -0.0000 -0.8660
vn -0.8387 0.2492 -0.4842
vn -0.8287 0.2904 -0.4784
vn -0.6514 0.2758 -0.7068
vn -0.5747 0.2448 -0.7809
vn -0.9684 0.2492 -0.0000
vn -0.9569 0.2904 -0.0000
vn -0.8387 0.2492 0.4842
vn -0.8287 0.2904 0.4784
vn -0.5747 0.2448 0.7809
vn -0.6514 0.2758 0.7068
vn -0.3589 0.2395 0.9021
vn -0.3207 0.2645 0.9095
vn 0.4842 0.2492 0.8387
vn 0.4784 0.2904 0.8287
vn 0.1310 0.2798 0.9511
vn 0.0754 0.2456 0.9664
vn 0.7753 0.2422 0.5833
vn 0.6903 0.2686 0.6719
vn 0.8996 0.2337 0.3688
vn 0.9127 0.2503 0.3230
vn 0.8408 0.2443 -0.4832
vn 0.8308 0.2800 -0.4811
vn 0.9063 0.2585 -0.3343
vn 0.9584 0.2390 -0.1560
vn 0.4838 0.2437 -0.8406
vn 0.4810 0.2790 -0.8312
vn 0.0734 0.2434 -0.9672
vn 0.1297 0.2763 -0.9523
vn -0.1730 0.2384 -0.9556
vn -0.1884 0.2643 -0.9459
vn 0.3272 0.2363 -0.9149
vn 0.5414 0.2251 -0.8101
vn 0.4038 0.2340 -0.8844
vn -0.0000 1.0000 -0.0000
vn 0.0130 0.9987 0.0484
vn 0.9345 0.3558 0.0094
vn 0.0078 0.1693 -0.9855
vn -0.0712 0.9973 -0.0191
vn -0.8399 0.2589 0.4770
vn -0.6894 0.1633 -0.7058
vn 0.6675 0.3299 0.6675
vn 0.8144 0.3402 0.4702
vn -0.4898 0.2687 0.8294
vn -0.2596 0.2750 0.9257
vn -0.4859 0.2690 0.8316
vn 0.8144 0.3402 -0.4702
vn 0.6675 0.3299 -0.6675
vn -0.4702 0.3402 -0.8144
vn -0.6675 0.3299 -0.6675
vn -0.3829 0.1916 0.9037
vn -0.8252 0.2768 0.4923
vn -0.8284 0.2774 0.4866
vn 0.9404 0.3402 -0.0000
vn -0.2443 0.3299 -0.9119
vn -0.9221 0.2906 0.2553
vn -0.0000 -0.1532 -0.9882
vn -0.2559 -0.1495 -0.9551
vn 0.9882 -0.1532 -0.0000
vn 0.8558 -0.1532 -0.4941
vn 0.8558 -0.1532 0.4941
vn 0.9551 -0.1495 0.2559
vn 0.4941 -0.1532 0.8558
vn -0.0000 -0.1532 0.9882
vn -0.4941 -0.1532 0.8558
vn -0.2559 -0.1495 0.9551
vn -0.8558 -0.1532 0.4941
vn -0.9882 -0.1532 -0.0000
vn -0.8558 -0.1532 -0.4941
vn -0.4941 -0.1532 -0.8558
vn 0.4941 -0.1532 -0.8558
vn -0.8387 -0.2492 -0.4842
vn -0.4842 -0.2492 -0.8387
vn -0.4785 -0.2904 -0.8287
vn -0.8287 -0.2904 -0.4784
vn -0.9684 -0.2492 -0.0000
vn -0.9569 -0.2904 -0.0000
vn -0.8387 -0.2492 0.4842
vn -0.8287 -0.2904 0.4784
vn -0.4842 -0.2492 0.8387
vn -0.4785 -0.2904 0.8287
vn -0.2511 -0.2429 0.9370
vn -0.2484 -0.2813 0.9269
vn 0.4842 -0.2492 0.8387
vn -0.0000 -0.2492 0.9684
vn -0.0000 -0.2905 0.9569
vn 0.4784 -0.2904 0.8287
vn 0.8387 -0.2492 0.4842
vn 0.8287 -0.2904 0.4785
vn 0.9370 -0.2429 0.2511
vn 0.9269 -0.2813 0.2484
vn 0.8387 -0.2492 -0.4842
vn 0.9684 -0.2492 -0.0000
vn 0.9569 -0.2905 -0.0000
vn 0.8287 -0.2904 -0.4784
vn 0.4842 -0.2492 -0.8387
vn 0.4784 -0.2904 -0.8287
vn -0.0000 -0.2492 -0.9684
vn -0.0000 -0.2905 -0.9569
vn -0.2511 -0.2429 -0.9370
vn -0.2484 -0.2814 -0.9269
vn -0.9272 0.3744 -0.0000
vn -0.0000 -1.0000 -0.0000
vn 0.2444 -0.3299 -0.9119
vn -0.0000 -0.3402 -0.9404
vn -0.9119 -0.3299 -0.2443
vn -0.9404 -0.3402 -0.0000
vn 0.4702 -0.3402 0.8144
vn 0.8144 -0.3402 0.4702
vn -0.4702 -0.3402 0.8144
vn -0.0000 -0.3402 0.9404
vn 0.8144 -0.3402 -0.4702
vn 0.4702 -0.3402 -0.8144
vn -0.4702 -0.3402 -0.8144
vn -0.8144 -0.3402 -0.4702
vn 0.2443 -0.3299 0.9119
vn -0.8144 -0.3402 0.4702
vn 0.9404 -0.3402 -0.0000
vn 0.2444 -0.3299 0.9119
vn 0.2443 -0.3299 -0.9119
vn 0.0314 0.9995 -0.0000
vn 0.0752 0.9972 -0.0000
vn -0.2484 -0.2813 -0.9269
vn -0.2484 -0.2814 0.9269
vn 0.3272 0.2363 0.9149
vn 0.2596 0.2371 0.9361
vn 0.4038 0.2340 0.8844
vn -0.8399 0.2589 -0.4770
vn -0.3829 0.1916 -0.9037
vn -0.3207 0.2645 -0.9095
vn -0.3589 0.2395 -0.9021
vn -0.1730 0.2384 0.9556
vn -0.1884 0.2643 0.9459
vn 0.9345 0.3558 -0.0094
vn 0.5414 0.2251 0.8101
vn 0.2596 0.2371 -0.9361
vn 0.9269 -0.2814 0.2484
vn -0.9707 0.1803 0.1592
vn -0.9673 0.1707 -0.1875
vn -0.9827 0.1769 -0.0546
vn -0.4774 0.2295 0.8482
vn 0.9429 0.2169 0.2526
vn 0.9369 0.2435 0.2510
vn 0.8882 0.2473 -0.3873
vn -0.9525 0.1662 -0.2552
vn 0.0291 -0.9992 -0.0291
vn 0.0356 -0.9992 -0.0206
vn -0.0412 -0.9992 -0.0000
vn -0.0398 -0.9992 -0.0107
vn -0.0418 0.9991 -0.0112
vn -0.0432 0.9991 -0.0000
vn 0.0374 0.9991 -0.0216
vn 0.0306 0.9991 -0.0306
vn -0.0206 -0.9992 0.0356
vn -0.0291 -0.9992 0.0291
vn -0.0107 -0.9992 -0.0398
vn -0.0000 -0.9992 -0.0412
vn 0.0356 -0.9992 0.0206
vn 0.0291 -0.9992 0.0291
vn -0.0306 0.9991 0.0306
vn -0.0216 0.9991 0.0374
vn -0.0000 0.9991 -0.0432
vn -0.0112 0.9991 -0.0418
vn 0.0306 0.9991 0.0306
vn 0.0374 0.9991 0.0216
vn -0.0356 -0.9992 -0.0206
vn 0.0398 -0.9992 -0.0107
vn -0.0374 0.9991 -0.0216
vn 0.0418 0.9991 -0.0112
vn -0.0356 -0.9992 0.0206
vn 0.0107 -0.9992 -0.0398
vn 0.0206 -0.9992 0.0356
vn -0.0374 0.9991 0.0216
vn 0.0112 0.9991 -0.0418
vn 0.0216 0.9991 0.0374
vn -0.0291 -0.9992 -0.0291
vn 0.0412 -0.9992 -0.0000
vn -0.0306 0.9991 -0.0306
vn 0.0432 0.9991 -0.0000
vn -0.0398 -0.9992 0.0107
vn 0.0206 -0.9992 -0.0356
vn 0.0107 -0.9992 0.0398
vn -0.0000 -0.9992 0.0412
vn -0.0107 -0.9992 0.0398
vn -0.0418 0.9991 0.0112
vn 0.0216 0.9991 -0.0374
vn 0.0112 0.9991 0.0418
vn -0.0112 0.9991 0.0418
vn -0.0000 0.9991 0.0432
vn -0.0206 -0.9992 -0.0356
vn 0.0398 -0.9992 0.0107
vn -0.0216 0.9991 -0.0374
vn 0.0418 0.9991 0.0112
vn 0.0291 0.9992 -0.0291
vn 0.0356 0.9992 -0.0206
vn -0.0412 0.9992 -0.0000
vn -0.0398 0.9992 -0.0107
vn -0.0417 -0.9991 -0.0112
vn -0.0432 -0.9991 -0.0000
vn 0.0374 -0.9991 -0.0216
vn 0.0306 -0.9991 -0.0306
vn -0.0206 0.9992 0.0356
vn -0.0291 0.9992 0.0291
vn -0.0107 0.9992 -0.0398
vn -0.0000 0.9992 -0.0412
vn 0.0356 0.9992 0.0206
vn 0.0291 0.9992 0.0291
vn -0.0306 -0.9991 0.0306
vn -0.0216 -0.9991 0.0374
vn -0.0000 -0.9991 -0.0432
vn -0.0112 -0.9991 -0.0417
vn 0.0306 -0.9991 0.0306
vn 0.0374 -0.9991 0.0216
vn -0.0356 0.9992 -0.0206
vn 0.0398 0.9992 -0.0107
vn -0.0374 -0.9991 -0.0216
vn 0.0417 -0.9991 -0.0112
vn -0.0356 0.9992 0.0206
vn 0.0107 0.9992 -0.0398
vn 0.0206 0.9992 0.0356
vn -0.0374 -0.9991 0.0216
vn 0.0112 -0.9991 -0.0417
vn 0.0216 -0.9991 0.0374
vn -0.0291 0.9992 -0.0291
vn 0.0412 0.9992 -0.0000
vn -0.0306 -0.9991 -0.0306
vn 0.0432 -0.9991 -0.0000
vn -0.0398 0.9992 0.0107
vn 0.0206 0.9992 -0.0356
vn 0.0107 0.9992 0.0398
vn -0.0000 0.9992 0.0412
vn -0.0107 0.9992 0.0398
vn -0.0417 -0.9991 0.0112
vn 0.0216 -0.9991 -0.0374
vn 0.0112 -0.9991 0.0417
vn -0.0112 -0.9991 0.0417
vn -0.0000 -0.9991 0.0432
vn -0.0206 0.9992 -0.0356
vn 0.0398 0.9992 0.0107
vn -0.0216 -0.9991 -0.0374
vn 0.0417 -0.9991 0.0112
vn -0.0441 0.9974 -0.0575
vn -0.0095 0.9974 0.0719
vn -0.0104 -0.9992 0.0390
vn -0.0000 -0.9992 0.0404
vn -0.0202 -0.9992 -0.0350
vn -0.0285 -0.9992 -0.0285
vn 0.0575 0.9974 0.0441
vn -0.0719 0.9974 0.0095
vn 0.0441 0.9974 -0.0575
vn 0.0285 -0.9992 0.0285
vn 0.0350 -0.9992 0.0202
vn -0.0404 -0.9992 -0.0000
vn -0.0390 -0.9992 0.0104
vn 0.0285 -0.9992 -0.0285
vn 0.0202 -0.9992 -0.0350
vn -0.0277 0.9974 0.0670
vn -0.0277 0.9974 -0.0670
vn -0.0202 -0.9992 0.0350
vn -0.0104 -0.9992 -0.0390
vn 0.0441 0.9974 0.0575
vn -0.0719 0.9974 -0.0095
vn 0.0575 0.9974 -0.0441
vn 0.0202 -0.9992 0.0350
vn -0.0390 -0.9992 -0.0104
vn 0.0350 -0.9992 -0.0202
vn -0.0441 0.9974 0.0575
vn -0.0095 0.9974 -0.0719
vn -0.0285 -0.9992 0.0285
vn -0.0000 -0.9992 -0.0404
vn 0.0277 0.9974 0.0670
vn -0.0670 0.9974 -0.0277
vn 0.0670 0.9974 -0.0277
vn 0.0719 0.9974 0.0095
vn 0.0104 -0.9992 0.0390
vn -0.0350 -0.9992 -0.0202
vn 0.0390 -0.9992 -0.0104
vn 0.0390 -0.9992 0.0104
vn 0.0404 -0.9992 -0.0000
vn -0.0575 0.9974 0.0441
vn 0.0095 0.9974 -0.0719
vn -0.0350 -0.9992 0.0202
vn 0.0104 -0.9992 -0.0390
vn 0.0095 0.9974 0.0719
vn -0.0575 0.9974 -0.0441
vn 0.0719 0.9974 -0.0095
vn 0.0670 0.9974 0.0277
vn -0.0670 0.9974 0.0277
vn 0.0277 0.9974 -0.0670
vn -0.0000 0.2111 -0.9775
vn 0.2530 0.2111 -0.9442
vn 0.4887 0.2111 -0.8465
vn 0.6912 0.2111 -0.6912
vn 0.8465 0.2111 -0.4887
vn 0.9442 0.2111 -0.2530
vn 0.9775 0.2111 -0.0000
vn 0.9442 0.2111 0.2530
vn 0.8465 0.2111 0.4887
vn 0.6912 0.2111 0.6912
vn 0.4887 0.2111 0.8465
vn 0.2530 0.2111 0.9442
vn -0.0000 0.2111 0.9775
vn -0.2530 0.2111 0.9442
vn -0.4887 0.2111 0.8465
vn -0.6912 0.2111 0.6912
vn -0.8465 0.2111 0.4887
vn -0.9442 0.2111 0.2530
vn -0.9775 0.2111 -0.0000
vn -0.9442 0.2111 -0.2530
vn -0.8465 0.2111 -0.4887
vn -0.6912 0.2111 -0.6912
vn -0.4887 0.2111 -0.8465
vn -0.2530 0.2111 -0.9442
vn -0.0000 -0.2111 -0.9775
vn 0.2530 -0.2111 -0.9442
vn 0.4887 -0.2111 -0.8465
vn 0.6912 -0.2111 -0.6912
vn 0.8465 -0.2111 -0.4887
vn 0.9442 -0.2111 -0.2530
vn 0.9775 -0.2111 -0.0000
vn 0.9442 -0.2111 0.2530
vn 0.8465 -0.2111 0.4887
vn 0.6912 -0.2111 0.6912
vn 0.4887 -0.2111 0.8465
vn 0.2530 -0.2111 0.9442
vn -0.0000 -0.2111 0.9775
vn -0.2530 -0.2111 0.9442
vn -0.4887 -0.2111 0.8465
vn -0.6912 -0.2111 0.6912
vn -0.8465 -0.2111 0.4887
vn -0.9442 -0.2111 0.2530
vn -0.9775 -0.2111 -0.0000
vn -0.9442 -0.2111 -0.2530
vn -0.8465 -0.2111 -0.4887
vn -0.6912 -0.2111 -0.6912
vn -0.4887 -0.2111 -0.8465
vn -0.2530 -0.2111 -0.9442
vn -0.9999 0.0109 -0.0000
vn -0.9659 0.0109 -0.2588
vn -0.8660 0.0109 -0.5000
vn -0.7071 0.0109 -0.7071
vn -0.5000 0.0109 -0.8660
vn -0.2588 0.0109 -0.9659
vn -0.0000 0.0109 -0.9999
vn 0.2588 0.0109 -0.9659
vn 0.5000 0.0109 -0.8660
vn 0.7071 0.0109 -0.7071
vn 0.8660 0.0109 -0.5000
vn 0.9659 0.0109 -0.2588
vn 0.9999 0.0109 -0.0000
vn 0.9659 0.0109 0.2588
vn 0.8660 0.0109 0.5000
vn 0.7071 0.0109 0.7071
vn 0.5000 0.0109 0.8660
vn 0.2588 0.0109 0.9659
vn -0.0000 0.0109 0.9999
vn -0.2588 0.0109 0.9659
vn -0.5000 0.0109 0.8660
vn -0.7071 0.0109 0.7071
vn -0.8660 0.0109 0.5000
vn -0.9659 0.0109 0.2588
vt 0.273120 0.375742
vt 0.357552 0.375742
vt 0.357552 0.380310
vt 0.273120 0.380310
vt 0.273120 0.266901
vt 0.188687 0.266901
vt 0.188688 0.380310
vt 0.273120 0.271842
vt 0.188687 0.271842
vt 0.357552 0.266901
vt 0.188688 0.266901
vt 0.273120 0.377092
vt 0.357552 0.377092
vt 0.026894 0.255233
vt 0.026894 0.161362
vt 0.004746 0.161362
vt 0.004746 0.255233
vt 0.458295 0.380310
vt 0.541585 0.380310
vt 0.541585 0.266901
vt 0.458295 0.266901
vt 0.087944 0.266901
vt 0.004654 0.266901
vt 0.004654 0.380310
vt 0.087944 0.380310
vt 0.458295 0.377092
vt 0.541585 0.377091
vt 0.087944 0.271843
vt 0.004654 0.271843
vt 0.458295 0.375742
vt 0.541585 0.375742
vt 0.545358 0.379081
vt 0.545358 0.383806
vt 0.509908 0.383806
vt 0.509908 0.379081
vt 0.032411 0.255233
vt 0.032411 0.161362
vt 0.091791 0.161362
vt 0.091791 0.255233
vt 0.026894 0.165143
vt 0.004746 0.165143
vt 0.032411 0.164343
vt 0.091791 0.164343
vt 0.091791 0.164026
vt 0.032411 0.164026
vt 0.163815 0.825143
vt 0.816302 0.825143
vt 0.678416 0.908374
vt 0.670209 0.909073
vt 0.496041 0.923920
vt 0.490059 0.924430
vt 0.301702 0.908374
vt 0.007666 0.380080
vt 0.007666 0.383806
vt 0.043116 0.383806
vt 0.043116 0.380080
vt 0.007666 0.266480
vt 0.043116 0.266480
vt 0.545358 0.266480
vt 0.509908 0.266480
vt 0.007667 0.383806
vt 0.007666 0.269810
vt 0.043116 0.269810
vt 0.007667 0.266480
vt 0.043117 0.383806
vt 0.188687 0.380310
vt 0.188687 0.375742
vt 0.357552 0.271842
vt 0.188687 0.377092
vt 0.087944 0.377092
vt 0.004654 0.377092
vt 0.458295 0.271842
vt 0.541585 0.271842
vt 0.087944 0.375742
vt 0.004654 0.375742
vt 0.816302 0.924430
vt 0.163815 0.924430
vt 0.301702 0.841199
vt 0.490059 0.825143
vt 0.678416 0.841199
vt 0.773837 0.828762
vt 0.206281 0.828762
vt 0.207522 0.825968
vt 0.772596 0.825968
vt 0.053833 0.825968
vt 0.618908 0.825968
vt 0.662616 0.924431
vt 0.010124 0.924431
vt 0.814544 0.920465
vt 0.165573 0.920465
vt 0.007666 0.379081
vt 0.043116 0.379081
vt 0.091791 0.251452
vt 0.032411 0.251452
vt 0.004746 0.252569
vt 0.026894 0.252569
vt 0.509908 0.269810
vt 0.545358 0.269810
vt 0.087944 0.270119
vt 0.004654 0.270120
vt 0.087944 0.271469
vt 0.188687 0.271469
vt 0.188687 0.270120
vt 0.004654 0.271469
vt 0.273120 0.271469
vt 0.273120 0.270120
vt 0.541585 0.270120
vt 0.458295 0.270120
vt 0.458295 0.271469
vt 0.357552 0.271469
vt 0.357552 0.270120
vt 0.541585 0.271469
vt 0.816305 0.924431
vt 0.163813 0.924431
vt 0.043116 0.271592
vt 0.007666 0.271592
vt 0.091791 0.251143
vt 0.032411 0.251143
vt 0.458295 0.376708
vt 0.357552 0.376708
vt 0.541585 0.376708
vt 0.273120 0.376708
vt 0.087944 0.376708
vt 0.188687 0.376708
vt 0.004654 0.376708
vt 0.619101 0.997349
vt 0.578224 0.997349
vt 0.578224 0.953407
vt 0.619101 0.953407
vt 0.986992 0.997349
vt 0.946115 0.997349
vt 0.946115 0.953407
vt 0.986992 0.953407
vt 0.946455 0.953407
vt 0.987328 0.953407
vt 0.987328 0.997349
vt 0.946455 0.997349
vt 0.578604 0.953407
vt 0.619476 0.953407
vt 0.619476 0.997349
vt 0.578604 0.997349
vt 0.169456 0.997349
vt 0.128579 0.997349
vt 0.128579 0.953407
vt 0.169456 0.953407
vt 0.782608 0.997349
vt 0.741731 0.997349
vt 0.741731 0.953407
vt 0.782608 0.953407
vt 0.414717 0.997349
vt 0.373840 0.997349
vt 0.373840 0.953407
vt 0.414717 0.953407
vt 0.129007 0.953407
vt 0.169880 0.953407
vt 0.169880 0.997349
vt 0.129007 0.997349
vt 0.742093 0.953407
vt 0.782966 0.953407
vt 0.782966 0.997349
vt 0.742093 0.997349
vt 0.374242 0.953407
vt 0.415114 0.953407
vt 0.415114 0.997349
vt 0.374242 0.997349
vt 0.905238 0.997349
vt 0.905238 0.953407
vt 0.537347 0.997349
vt 0.537347 0.953407
vt 0.905583 0.953407
vt 0.905583 0.997349
vt 0.537731 0.953407
vt 0.537731 0.997349
vt 0.087703 0.997349
vt 0.087703 0.953407
vt 0.700854 0.997349
vt 0.700854 0.953407
vt 0.332964 0.997349
vt 0.332964 0.953407
vt 0.088135 0.953407
vt 0.088135 0.997349
vt 0.701221 0.953407
vt 0.701221 0.997349
vt 0.333369 0.953407
vt 0.333369 0.997349
vt 0.864362 0.997349
vt 0.864362 0.953407
vt 0.496471 0.997349
vt 0.496471 0.953407
vt 0.864710 0.953407
vt 0.864710 0.997349
vt 0.496859 0.953407
vt 0.496859 0.997349
vt 0.046826 0.997349
vt 0.046826 0.953407
vt 0.659978 0.997349
vt 0.659978 0.953407
vt 0.292087 0.997349
vt 0.292087 0.953407
vt 0.251210 0.997349
vt 0.210333 0.997349
vt 0.210333 0.953407
vt 0.251210 0.953407
vt 0.047262 0.953407
vt 0.047262 0.997349
vt 0.660348 0.953407
vt 0.660348 0.997349
vt 0.292497 0.953407
vt 0.292497 0.997349
vt 0.210752 0.953407
vt 0.251624 0.953407
vt 0.251624 0.997349
vt 0.210752 0.997349
vt 0.823485 0.997349
vt 0.823485 0.953407
vt 0.455594 0.997349
vt 0.455594 0.953407
vt 0.823838 0.953407
vt 0.823838 0.997349
vt 0.455986 0.953407
vt 0.455986 0.997349
vt 0.005949 0.997349
vt 0.005949 0.953407
vt 0.006390 0.953407
vt 0.006390 0.997349
vt 0.159021 0.637568
vt 0.159021 0.692507
vt 0.111075 0.692507
vt 0.111075 0.637568
vt 0.063128 0.692507
vt 0.063128 0.637568
vt 0.015181 0.692507
vt 0.015181 0.637568
vt -0.032765 0.692507
vt -0.032765 0.637568
vt -0.080712 0.692507
vt -0.080712 0.637568
vt -0.128658 0.692507
vt -0.128658 0.637568
vt 1.022059 0.637568
vt 1.022059 0.692507
vt 0.974113 0.692507
vt 0.974113 0.637568
vt 0.926166 0.692507
vt 0.926166 0.637568
vt 0.878219 0.692507
vt 0.878219 0.637568
vt 0.830273 0.692507
vt 0.830273 0.637568
vt 0.782326 0.692507
vt 0.782326 0.637568
vt 0.734380 0.692507
vt 0.734380 0.637568
vt 0.686433 0.692507
vt 0.686433 0.637568
vt 0.638487 0.692507
vt 0.638487 0.637568
vt 0.590540 0.692507
vt 0.590540 0.637568
vt 0.542593 0.692507
vt 0.542593 0.637568
vt 0.494647 0.692507
vt 0.494647 0.637568
vt 0.446700 0.692507
vt 0.446700 0.637568
vt 0.398754 0.692507
vt 0.398754 0.637568
vt 0.350807 0.692507
vt 0.350807 0.637568
vt 0.302861 0.692507
vt 0.302861 0.637568
vt 0.254914 0.692507
vt 0.254914 0.637568
vt 0.206968 0.692507
vt 0.206968 0.637568
vt 0.241208 0.950052
vt 0.201956 0.950052
vt 0.201956 0.997179
vt 0.241208 0.997179
vt 0.162705 0.950052
vt 0.162705 0.997179
vt 0.123453 0.950052
vt 0.123453 0.997179
vt 0.084201 0.950052
vt 0.084201 0.997179
vt 0.044950 0.950052
vt 0.044950 0.997179
vt 0.005698 0.950052
vt 0.005698 0.997179
vt 0.947737 0.950052
vt 0.908486 0.950052
vt 0.908486 0.997179
vt 0.947737 0.997179
vt 0.869234 0.950052
vt 0.869234 0.997179
vt 0.829982 0.950052
vt 0.829982 0.997179
vt 0.790731 0.950052
vt 0.790731 0.997179
vt 0.751479 0.950052
vt 0.751479 0.997179
vt 0.712227 0.950052
vt 0.712227 0.997179
vt 0.672976 0.950052
vt 0.672976 0.997179
vt 0.633724 0.950052
vt 0.633724 0.997179
vt 0.594473 0.950052
vt 0.594473 0.997179
vt 0.555221 0.950052
vt 0.555221 0.997179
vt 0.515969 0.950052
vt 0.515969 0.997179
vt 0.476718 0.950052
vt 0.476718 0.997179
vt 0.437466 0.950052
vt 0.437466 0.997179
vt 0.398214 0.950052
vt 0.398214 0.997179
vt 0.358963 0.950052
vt 0.358963 0.997179
vt 0.319711 0.950052
vt 0.319711 0.997179
vt 0.280460 0.950052
vt 0.280460 0.997179
s 1
usemtl MI_Trim_Furniture
f 156/1/1 168/2/2 26/3/3 13/4/4
f 15/5/5 29/6/6 31/7/7 16/4/8
f 178/8/9 180/9/10 33/6/11 17/5/12
f 17/4/12 33/3/11 35/10/13 18/5/14
f 18/5/14 35/11/13 37/7/15 19/4/16
f 136/12/17 140/13/18 39/3/19 20/4/20
f 20/4/20 39/7/19 41/11/21 21/5/22
f 21/5/22 41/11/21 43/7/23 22/4/24
f 22/5/24 43/10/23 45/3/25 23/4/26
f 23/4/26 45/3/25 47/10/27 24/5/28
f 3/14/29 2/15/30 49/16/31 51/17/29
f 13/4/4 26/7/3 27/11/32 14/5/33
f 14/5/33 27/10/32 29/3/6 15/4/5
f 46/18/34 11/19/35 12/20/36 48/21/37
f 44/21/38 10/20/39 11/19/35 46/18/34
f 42/22/40 9/23/41 10/24/39 44/25/38
f 40/25/42 8/24/43 9/23/41 42/22/40
f 139/26/44 133/27/45 8/19/43 40/18/42
f 36/22/46 6/23/47 7/24/48 38/25/49
f 34/18/50 5/19/51 6/20/47 36/21/46
f 179/28/52 177/29/53 5/23/51 34/22/50
f 30/22/54 3/23/55 4/24/56 32/25/57
f 28/21/58 2/20/59 3/19/55 30/18/54
f 25/25/60 1/24/61 2/23/59 28/22/58
f 157/30/62 25/18/60 26/3/3 168/2/2
f 46/18/34 48/21/37 47/10/27 45/3/25
f 44/21/38 46/18/34 45/3/25 43/10/23
f 42/22/40 44/25/38 43/7/23 41/11/21
f 40/25/42 42/22/40 41/11/21 39/7/19
f 139/26/44 40/18/42 39/3/19 140/13/18
f 36/22/46 38/25/49 37/7/15 35/11/13
f 34/18/50 36/21/46 35/10/13 33/3/11
f 179/28/52 34/22/50 33/6/11 180/9/10
f 30/22/54 32/25/57 31/7/7 29/6/6
f 28/21/58 30/18/54 29/3/6 27/10/32
f 25/25/60 28/22/58 27/11/32 26/7/3
f 157/30/62 166/31/63 1/19/61 25/18/60
f 159/32/64 55/33/65 67/34/65 160/35/66
f 10/36/67 9/37/67 57/38/67 58/39/67
f 7/15/67 6/14/67 54/17/67 55/16/67
f 4/15/68 3/14/29 51/17/29 52/16/68
f 11/15/67 10/14/67 58/17/67 59/16/67
f 155/40/69 7/15/69 55/16/69 159/41/69
f 188/42/70 4/37/70 52/38/70 190/43/70
f 12/16/67 11/17/67 59/14/67 60/15/67
f 2/17/30 1/16/71 50/15/71 49/14/31
f 9/16/67 8/17/67 56/14/67 57/15/67
f 6/16/67 5/17/67 53/14/67 54/15/67
f 134/44/72 12/38/72 60/37/72 142/45/72
f 61/46/67 66/47/67 65/48/67 182/49/67 191/50/67 64/51/67 63/52/67
f 190/53/73 52/54/73 64/55/73 191/56/73
f 60/57/74 59/54/75 71/55/75 72/58/74
f 49/33/76 50/59/77 62/60/77 61/34/78
f 57/61/79 56/57/80 68/58/80 69/55/79
f 54/59/81 53/33/82 65/34/82 66/60/81
f 142/62/83 60/57/83 72/58/83 144/63/83
f 51/64/84 49/54/76 61/55/78 63/58/85
f 58/57/86 57/61/79 69/55/79 70/58/86
f 55/57/87 54/54/81 66/65/81 67/58/87
f 52/59/88 51/33/84 63/34/85 64/60/88
f 59/59/75 58/33/86 70/34/86 71/60/75
f 156/1/1 13/4/4 79/66/89 173/67/90
f 15/5/5 16/4/8 84/3/91 82/10/92
f 178/8/9 17/5/12 86/10/93 184/68/94
f 17/4/12 18/5/14 88/6/95 86/66/93
f 18/5/14 19/4/16 90/3/96 88/10/95
f 136/12/17 20/4/20 92/66/97 149/69/98
f 20/4/20 21/5/22 94/10/99 92/3/97
f 21/5/22 22/4/24 96/3/100 94/10/99
f 22/5/24 23/4/26 98/7/101 96/11/100
f 23/4/26 24/5/28 100/6/102 98/7/101
f 13/4/4 14/5/33 80/10/103 79/3/89
f 14/5/33 15/4/5 82/66/92 80/6/103
f 99/25/104 101/22/105 77/23/106 108/24/107
f 97/22/108 99/25/104 108/24/107 76/23/109
f 95/21/110 97/18/108 76/19/109 75/20/111
f 93/18/112 95/21/110 75/20/111 107/19/113
f 148/70/114 93/25/112 107/24/113 150/71/115
f 89/21/116 91/18/117 106/19/118 105/20/119
f 87/25/120 89/22/116 105/23/119 104/24/121
f 183/72/122 87/21/120 104/20/121 185/73/123
f 83/21/124 85/18/125 103/19/126 102/20/127
f 81/22/128 83/25/124 102/24/127 74/23/129
f 78/18/130 81/21/128 74/20/129 73/19/131
f 161/74/132 173/67/90 79/66/89 78/25/130
f 99/25/104 98/7/101 100/6/102 101/22/105
f 97/22/108 96/11/100 98/7/101 99/25/104
f 95/21/110 94/10/99 96/3/100 97/18/108
f 93/18/112 92/3/97 94/10/99 95/21/110
f 148/70/114 149/69/98 92/66/97 93/25/112
f 89/21/116 88/10/95 90/3/96 91/18/117
f 87/25/120 86/66/93 88/6/95 89/22/116
f 183/72/122 184/68/94 86/10/93 87/21/120
f 83/21/124 82/10/92 84/3/91 85/18/125
f 81/22/128 80/6/103 82/66/92 83/25/124
f 78/18/130 79/3/89 80/10/103 81/21/128
f 161/74/132 78/25/130 73/24/131 172/75/133
f 68/76/67 72/77/67 71/78/67 70/79/67 69/80/67
f 143/81/134 144/82/134 72/83/134 68/84/134
f 66/85/67 61/86/67 62/87/67 67/88/67
f 102/14/135 111/17/135 109/16/135 74/15/135
f 164/32/136 165/35/136 127/34/137 115/33/137
f 76/36/135 118/39/135 117/38/135 75/37/135
f 106/15/135 115/16/135 114/17/135 105/14/135
f 103/15/135 112/16/135 111/17/135 102/14/135
f 108/15/135 119/16/135 118/17/135 76/14/135
f 163/40/135 164/41/135 115/16/135 106/15/135
f 193/42/135 194/43/135 112/38/135 103/37/135
f 77/16/135 120/15/135 119/14/135 108/17/135
f 74/17/135 109/14/135 110/15/135 73/16/135
f 75/16/135 117/15/135 116/14/135 107/17/135
f 105/16/135 114/15/135 113/14/135 104/17/135
f 145/44/135 152/45/135 120/37/135 77/38/135
f 121/46/135 123/52/135 124/51/135 195/50/135 187/49/135 125/48/135 126/47/135
f 194/53/138 195/56/138 124/55/139 112/54/139
f 120/57/140 132/58/140 131/55/141 119/54/141
f 109/33/142 121/34/142 122/60/143 110/59/143
f 117/61/144 129/55/144 128/58/145 116/57/145
f 114/59/146 126/60/146 125/34/147 113/33/147
f 152/62/148 154/63/148 132/58/140 120/57/140
f 111/64/149 123/58/149 121/55/142 109/54/142
f 118/57/150 130/58/150 129/55/144 117/61/144
f 115/57/137 127/58/137 126/65/146 114/54/146
f 112/59/139 124/60/139 123/34/149 111/33/149
f 119/59/141 131/60/141 130/34/150 118/33/150
f 128/76/135 129/80/135 130/79/135 131/78/135 132/77/135
f 153/81/135 128/84/135 132/83/135 154/82/135
f 126/85/135 127/88/135 122/87/135 121/86/135
f 165/89/135 153/81/135 154/82/135 176/90/135
f 175/91/151 176/92/151 154/63/148 152/62/148
f 172/93/135 175/94/135 152/45/135 145/44/135
f 107/14/135 116/17/135 151/95/135 150/96/135
f 116/59/145 128/60/145 153/97/152 151/98/152
f 160/89/153 171/90/153 144/82/154 143/81/154
f 101/22/105 146/99/132 145/100/155 77/23/106
f 174/101/114 162/102/98 149/69/98 148/70/114
f 101/22/105 100/6/102 147/103/90 146/99/132
f 174/101/114 148/70/114 150/71/115 163/104/156
f 167/105/17 136/12/17 149/69/98 162/102/98
f 24/5/28 135/106/1 147/103/90 100/6/102
f 170/91/157 142/62/158 144/63/158 171/92/159
f 166/93/67 134/44/67 142/45/67 170/94/67
f 8/14/160 133/96/160 141/95/160 56/17/160
f 56/59/161 141/98/161 143/97/161 68/60/161
f 48/21/37 12/20/36 134/107/162 137/108/163
f 169/109/164 139/26/44 140/13/18 158/110/18
f 48/21/37 137/108/163 138/111/2 47/10/27
f 169/109/164 155/112/165 133/27/45 139/26/44
f 167/105/17 158/110/18 140/13/18 136/12/17
f 24/5/28 47/10/27 138/111/2 135/106/1
f 19/5/16 37/10/15 158/110/18 167/105/17
f 38/21/49 7/20/48 155/112/165 169/109/164
f 38/21/49 169/109/164 158/110/18 37/10/15
f 1/39/166 166/93/166 170/94/166 50/36/166
f 50/54/167 170/91/157 171/92/159 62/55/167
f 19/5/16 167/105/17 162/102/98 90/6/96
f 91/22/117 174/101/114 163/104/156 106/23/118
f 91/22/117 90/6/96 162/102/98 174/101/114
f 67/113/67 62/114/67 171/90/153 160/89/153
f 73/39/135 110/36/135 175/94/135 172/93/135
f 110/54/143 122/55/143 176/92/151 175/91/151
f 127/113/135 165/89/135 176/90/135 122/114/135
f 150/96/135 151/95/135 164/41/135 163/40/135
f 151/98/152 153/97/152 165/35/136 164/32/136
f 146/99/132 161/74/132 172/75/133 145/100/155
f 146/99/132 147/103/90 173/67/90 161/74/132
f 135/106/1 156/1/1 173/67/90 147/103/90
f 133/96/67 155/40/67 159/41/67 141/95/67
f 141/98/168 159/32/64 160/35/66 143/97/168
f 137/108/163 134/107/162 166/31/63 157/30/62
f 137/108/163 157/30/62 168/2/2 138/111/2
f 135/106/1 138/111/2 168/2/2 156/1/1
f 113/57/147 125/58/147 187/115/138 186/116/138
f 104/36/135 113/39/135 186/117/135 185/118/135
f 198/119/122 192/120/94 184/68/94 183/72/122
f 198/119/122 183/72/122 185/73/123 193/121/169
f 196/122/9 178/8/9 184/68/94 192/120/94
f 53/57/170 181/116/171 182/115/172 65/58/170
f 5/36/173 177/118/173 181/117/173 53/39/173
f 197/123/174 179/28/52 180/9/10 189/124/10
f 197/123/174 188/125/175 177/29/53 179/28/52
f 196/122/9 189/124/10 180/9/10 178/8/9
f 16/4/8 31/7/7 189/124/10 196/122/9
f 32/25/57 4/24/56 188/125/176 197/123/176
f 32/25/57 197/123/174 189/124/10 31/7/7
f 16/4/8 196/122/9 192/120/94 84/3/91
f 85/18/125 198/119/122 193/121/169 103/19/126
f 85/18/125 84/3/91 192/120/94 198/119/122
f 186/116/138 187/115/138 195/56/138 194/53/138
f 185/118/135 186/117/135 194/43/135 193/42/135
f 181/116/171 190/53/177 191/56/177 182/115/172
f 177/118/67 188/42/67 190/43/67 181/117/67
usemtl MI_Trim_Metal
f 229/126/178 231/127/179 279/128/179 277/129/178
f 211/130/180 213/131/181 261/132/181 259/133/180
f 214/134/182 212/135/183 260/136/183 262/137/182
f 232/138/184 230/139/185 278/140/185 280/141/184
f 203/142/186 205/143/187 253/144/187 251/145/186
f 221/146/188 223/147/189 271/148/189 269/149/188
f 239/150/190 241/151/191 289/152/191 287/153/190
f 206/154/192 204/155/193 252/156/193 254/157/192
f 224/158/194 222/159/195 270/160/195 272/161/194
f 242/162/196 240/163/197 288/164/197 290/165/196
f 213/131/181 215/166/198 263/167/198 261/132/181
f 231/127/179 233/168/199 281/169/199 279/128/179
f 216/170/200 214/134/182 262/137/182 264/171/200
f 234/172/201 232/138/184 280/141/184 282/173/201
f 205/143/187 207/174/202 255/175/202 253/144/187
f 223/147/189 225/176/203 273/177/203 271/148/189
f 241/151/191 243/178/204 291/179/204 289/152/191
f 208/180/205 206/154/192 254/157/192 256/181/205
f 226/182/206 224/158/194 272/161/194 274/183/206
f 244/184/207 242/162/196 290/165/196 292/185/207
f 215/166/198 217/186/208 265/187/208 263/167/198
f 233/168/199 235/188/209 283/189/209 281/169/199
f 218/190/210 216/170/200 264/171/200 266/191/210
f 236/192/211 234/172/201 282/173/201 284/193/211
f 207/174/202 209/194/212 257/195/212 255/175/202
f 225/176/203 227/196/213 275/197/213 273/177/203
f 243/178/204 245/198/214 293/199/214 291/179/204
f 199/200/215 201/201/216 249/202/216 247/203/215
f 210/204/217 208/180/205 256/181/205 258/205/217
f 228/206/218 226/182/206 274/183/206 276/207/218
f 246/208/219 244/184/207 292/185/207 294/209/219
f 202/210/220 200/211/221 248/212/221 250/213/220
f 217/186/208 219/214/222 267/215/222 265/187/208
f 235/188/209 237/216/223 285/217/223 283/189/209
f 220/218/224 218/190/210 266/191/210 268/219/224
f 238/220/225 236/192/211 284/193/211 286/221/225
f 209/194/212 211/222/180 259/223/180 257/195/212
f 227/196/213 229/126/178 277/129/178 275/197/213
f 245/198/214 199/200/215 247/203/215 293/199/214
f 212/224/183 210/204/217 258/205/217 260/225/183
f 230/139/185 228/206/218 276/207/218 278/140/185
f 200/211/221 246/208/219 294/209/219 248/212/221
f 201/201/216 203/142/186 251/145/186 249/202/216
f 219/214/222 221/146/188 269/149/188 267/215/222
f 237/216/223 239/150/190 287/153/190 285/217/223
f 204/155/193 202/210/220 250/213/220 252/156/193
f 222/159/195 220/218/224 268/219/224 270/160/195
f 240/163/197 238/220/225 286/221/225 288/164/197
f 325/126/226 373/129/226 375/128/227 327/127/227
f 307/130/228 355/133/228 357/132/229 309/131/229
f 310/134/230 358/137/230 356/136/231 308/135/231
f 328/138/232 376/141/232 374/140/233 326/139/233
f 299/142/234 347/145/234 349/144/235 301/143/235
f 317/146/236 365/149/236 367/148/237 319/147/237
f 335/150/238 383/153/238 385/152/239 337/151/239
f 302/154/240 350/157/240 348/156/241 300/155/241
f 320/158/242 368/161/242 366/160/243 318/159/243
f 338/162/244 386/165/244 384/164/245 336/163/245
f 309/131/229 357/132/229 359/167/246 311/166/246
f 327/127/227 375/128/227 377/169/247 329/168/247
f 312/170/248 360/171/248 358/137/230 310/134/230
f 330/172/249 378/173/249 376/141/232 328/138/232
f 301/143/235 349/144/235 351/175/250 303/174/250
f 319/147/237 367/148/237 369/177/251 321/176/251
f 337/151/239 385/152/239 387/179/252 339/178/252
f 304/180/253 352/181/253 350/157/240 302/154/240
f 322/182/254 370/183/254 368/161/242 320/158/242
f 340/184/255 388/185/255 386/165/244 338/162/244
f 311/166/246 359/167/246 361/187/256 313/186/256
f 329/168/247 377/169/247 379/189/257 331/188/257
f 314/190/258 362/191/258 360/171/248 312/170/248
f 332/192/259 380/193/259 378/173/249 330/172/249
f 303/174/250 351/175/250 353/195/260 305/194/260
f 321/176/251 369/177/251 371/197/261 323/196/261
f 339/178/252 387/179/252 389/199/262 341/198/262
f 295/200/263 343/203/263 345/202/264 297/201/264
f 306/204/265 354/205/265 352/181/253 304/180/253
f 324/206/266 372/207/266 370/183/254 322/182/254
f 342/208/267 390/209/267 388/185/255 340/184/255
f 298/210/268 346/213/268 344/212/269 296/211/269
f 313/186/256 361/187/256 363/215/270 315/214/270
f 331/188/257 379/189/257 381/217/271 333/216/271
f 316/218/272 364/219/272 362/191/258 314/190/258
f 334/220/273 382/221/273 380/193/259 332/192/259
f 305/194/260 353/195/260 355/223/228 307/222/228
f 323/196/261 371/197/261 373/129/226 325/126/226
f 341/198/262 389/199/262 343/203/263 295/200/263
f 308/224/231 356/225/231 354/205/265 306/204/265
f 326/139/233 374/140/233 372/207/266 324/206/266
f 296/211/269 344/212/269 390/209/267 342/208/267
f 297/201/264 345/202/264 347/145/234 299/142/234
f 315/214/270 363/215/270 365/149/236 317/146/236
f 333/216/271 381/217/271 383/153/238 335/150/238
f 300/155/241 348/156/241 346/213/268 298/210/268
f 318/159/243 366/160/243 364/219/272 316/218/272
f 336/163/245 384/164/245 382/221/273 334/220/273
f 421/126/274 469/129/274 471/128/274 423/127/274
f 403/130/275 451/133/275 453/132/275 405/131/275
f 406/134/276 454/137/276 452/136/277 404/135/277
f 424/138/278 472/141/278 470/140/279 422/139/279
f 395/142/280 443/145/280 445/144/280 397/143/280
f 413/146/281 461/149/281 463/148/281 415/147/281
f 431/150/282 479/153/282 481/152/282 433/151/282
f 398/154/283 446/157/283 444/156/284 396/155/284
f 416/158/285 464/161/285 462/160/286 414/159/286
f 434/162/287 482/165/287 480/164/288 432/163/288
f 405/131/289 453/132/289 455/167/289 407/166/289
f 423/127/290 471/128/290 473/169/290 425/168/290
f 408/170/291 456/171/291 454/137/276 406/134/276
f 426/172/292 474/173/292 472/141/278 424/138/278
f 397/143/293 445/144/293 447/175/293 399/174/293
f 415/147/294 463/148/294 465/177/294 417/176/294
f 433/151/295 481/152/295 483/179/295 435/178/295
f 400/180/296 448/181/296 446/157/283 398/154/283
f 418/182/297 466/183/297 464/161/285 416/158/285
f 436/184/298 484/185/298 482/165/287 434/162/287
f 407/166/299 455/167/299 457/187/299 409/186/299
f 425/168/300 473/169/300 475/189/300 427/188/300
f 410/190/301 458/191/301 456/171/291 408/170/291
f 428/192/302 476/193/302 474/173/292 426/172/292
f 399/174/303 447/175/303 449/195/303 401/194/303
f 417/176/304 465/177/304 467/197/304 419/196/304
f 435/178/305 483/179/305 485/199/305 437/198/305
f 391/200/306 439/203/306 441/202/306 393/201/306
f 402/204/307 450/205/307 448/181/296 400/180/296
f 420/206/308 468/207/308 466/183/297 418/182/297
f 438/208/309 486/209/309 484/185/298 436/184/298
f 394/210/310 442/213/310 440/212/311 392/211/311
f 409/186/312 457/187/312 459/215/312 411/214/312
f 427/188/313 475/189/313 477/217/313 429/216/313
f 412/218/314 460/219/314 458/191/301 410/190/301
f 430/220/315 478/221/315 476/193/302 428/192/302
f 401/194/316 449/195/316 451/223/316 403/222/316
f 419/196/317 467/197/317 469/129/317 421/126/317
f 437/198/318 485/199/318 439/203/318 391/200/318
f 404/224/277 452/225/277 450/205/307 402/204/307
f 422/139/279 470/140/279 468/207/308 420/206/308
f 392/211/311 440/212/311 486/209/309 438/208/309
f 393/201/319 441/202/319 443/145/319 395/142/319
f 411/214/320 459/215/320 461/149/320 413/146/320
f 429/216/321 477/217/321 479/153/321 431/150/321
f 396/155/284 444/156/284 442/213/310 394/210/310
f 414/159/286 462/160/286 460/219/314 412/218/314
f 432/163/288 480/164/288 478/221/315 430/220/315
f 199/226/322 200/227/322 202/228/323 201/229/323
f 201/229/323 202/228/323 204/230/324 203/231/324
f 203/231/324 204/230/324 206/232/325 205/233/325
f 205/233/325 206/232/325 208/234/326 207/235/326
f 207/235/326 208/234/326 210/236/327 209/237/327
f 209/237/327 210/236/327 212/238/328 211/239/328
f 211/240/328 212/241/328 214/242/329 213/243/329
f 213/243/329 214/242/329 216/244/330 215/245/330
f 215/245/330 216/244/330 218/246/331 217/247/331
f 217/247/331 218/246/331 220/248/332 219/249/332
f 219/249/332 220/248/332 222/250/333 221/251/333
f 221/251/333 222/250/333 224/252/334 223/253/334
f 223/253/334 224/252/334 226/254/335 225/255/335
f 225/255/335 226/254/335 228/256/336 227/257/336
f 227/257/336 228/256/336 230/258/337 229/259/337
f 229/259/337 230/258/337 232/260/338 231/261/338
f 231/261/338 232/260/338 234/262/339 233/263/339
f 233/263/339 234/262/339 236/264/340 235/265/340
f 235/265/340 236/264/340 238/266/341 237/267/341
f 237/267/341 238/266/341 240/268/342 239/269/342
f 239/269/342 240/268/342 242/270/343 241/271/343
f 241/271/343 242/270/343 244/272/344 243/273/344
f 243/273/344 244/272/344 246/274/345 245/275/345
f 245/275/345 246/274/345 200/227/322 199/226/322
f 295/226/346 297/229/347 298/228/347 296/227/346
f 297/229/347 299/231/348 300/230/348 298/228/347
f 299/231/348 301/233/349 302/232/349 300/230/348
f 301/233/349 303/235/350 304/234/350 302/232/349
f 303/235/350 305/237/351 306/236/351 304/234/350
f 305/237/351 307/239/352 308/238/352 306/236/351
f 307/240/352 309/243/353 310/242/353 308/241/352
f 309/243/353 311/245/354 312/244/354 310/242/353
f 311/245/354 313/247/355 314/246/355 312/244/354
f 313/247/355 315/249/356 316/248/356 314/246/355
f 315/249/356 317/251/357 318/250/357 316/248/356
f 317/251/357 319/253/358 320/252/358 318/250/357
f 319/253/358 321/255/359 322/254/359 320/252/358
f 321/255/359 323/257/360 324/256/360 322/254/359
f 323/257/360 325/259/361 326/258/361 324/256/360
f 325/259/361 327/261/362 328/260/362 326/258/361
f 327/261/362 329/263/363 330/262/363 328/260/362
f 329/263/363 331/265/364 332/264/364 330/262/363
f 331/265/364 333/267/365 334/266/365 332/264/364
f 333/267/365 335/269/366 336/268/366 334/266/365
f 335/269/366 337/271/367 338/270/367 336/268/366
f 337/271/367 339/273/368 340/272/368 338/270/367
f 339/273/368 341/275/369 342/274/369 340/272/368
f 341/275/369 295/226/346 296/227/346 342/274/369
f 391/276/370 393/277/371 394/278/371 392/279/370
f 393/277/371 395/280/372 396/281/372 394/278/371
f 395/280/372 397/282/373 398/283/373 396/281/372
f 397/282/373 399/284/374 400/285/374 398/283/373
f 399/284/374 401/286/375 402/287/375 400/285/374
f 401/286/375 403/288/376 404/289/376 402/287/375
f 403/290/376 405/291/377 406/292/377 404/293/376
f 405/291/377 407/294/378 408/295/378 406/292/377
f 407/294/378 409/296/379 410/297/379 408/295/378
f 409/296/379 411/298/380 412/299/380 410/297/379
f 411/298/380 413/300/381 414/301/381 412/299/380
f 413/300/381 415/302/382 416/303/382 414/301/381
f 415/302/382 417/304/383 418/305/383 416/303/382
f 417/304/383 419/306/384 420/307/384 418/305/383
f 419/306/384 421/308/385 422/309/385 420/307/384
f 421/308/385 423/310/386 424/311/386 422/309/385
f 423/310/386 425/312/387 426/313/387 424/311/386
f 425/312/387 427/314/388 428/315/388 426/313/387
f 427/314/388 429/316/389 430/317/389 428/315/388
f 429/316/389 431/318/390 432/319/390 430/317/389
f 431/318/390 433/320/391 434/321/391 432/319/390
f 433/320/391 435/322/392 436/323/392 434/321/391
f 435/322/392 437/324/393 438/325/393 436/323/392
f 437/324/393 391/276/370 392/279/370 438/325/393
