# Blender 4.4.3
# www.blender.org
o Icosphere
v 0.000000 -0.957074 0.000000
v 5.244658 -1.164932 1.369426
v -0.719944 -1.164932 2.215797
v -2.329851 -1.164932 0.000000
v -0.719944 -1.164932 -2.215797
v 5.244658 -1.164932 -1.369426
v 2.071158 0.761050 1.243613
v -0.916456 0.874203 1.128563
v -0.913970 0.963096 -0.521554
v 3.422462 0.858621 -0.860026
v 4.330161 0.818255 0.451092
v 0.518122 1.592339 0.200295
vn -0.0139 -0.9951 -0.0979
vn -0.0396 -0.9992 -0.0000
vn 0.0887 -0.9940 -0.0644
vn 0.0887 -0.9940 0.0644
vn -0.0139 -0.9951 0.0979
vn 0.9081 0.4187 -0.0000
vn 0.1347 0.2840 0.9493
vn -0.7875 0.2292 0.5722
vn -0.7526 0.3667 -0.5468
vn 0.1315 0.3517 -0.9268
vn 0.2742 0.5053 0.8182
vn -0.0162 0.4692 0.8829
vn -0.8289 0.5586 0.0288
vn -0.0462 0.6196 -0.7835
vn 0.6235 0.6650 -0.4112
vn 0.1449 0.8676 0.4756
vn 0.0060 0.7864 0.6177
vn -0.4220 0.9053 0.0481
vn -0.0298 0.7820 -0.6226
vn 0.2048 0.9724 -0.1119
vt 0.181819 0.000000
vt 0.272728 0.157461
vt 0.090910 0.157461
vt 0.363637 0.000000
vt 0.454546 0.157461
vt 0.909091 0.000000
vt 1.000000 0.157461
vt 0.818182 0.157461
vt 0.727273 0.000000
vt 0.636364 0.157461
vt 0.545455 0.000000
vt 0.363637 0.314921
vt 0.181819 0.314921
vt 0.909091 0.314921
vt 0.727273 0.314921
vt 0.545455 0.314921
vt 0.000000 0.314921
vt 0.272728 0.472382
vt 0.090910 0.472382
vt 0.818182 0.472382
vt 0.636364 0.472382
vt 0.454546 0.472382
s 0
f 1/1/1 2/2/1 3/3/1
f 2/2/2 1/4/2 6/5/2
f 1/6/3 3/7/3 4/8/3
f 1/9/4 4/8/4 5/10/4
f 1/11/5 5/10/5 6/5/5
f 2/2/6 6/5/6 11/12/6
f 3/3/7 2/2/7 7/13/7
f 4/8/8 3/7/8 8/14/8
f 5/10/9 4/8/9 9/15/9
f 6/5/10 5/10/10 10/16/10
f 2/2/11 11/12/11 7/13/11
f 3/3/12 7/13/12 8/17/12
f 4/8/13 8/14/13 9/15/13
f 5/10/14 9/15/14 10/16/14
f 6/5/15 10/16/15 11/12/15
f 7/13/16 11/12/16 12/18/16
f 8/17/17 7/13/17 12/19/17
f 9/15/18 8/14/18 12/20/18
f 10/16/19 9/15/19 12/21/19
f 11/12/20 10/16/20 12/22/20
