# Blender 4.4.3
# www.blender.org
o Icosphere
v 0.000000 -0.367419 0.000000
v 0.723600 -0.447215 0.525720
v -0.276385 -0.447215 0.850640
v -0.894425 -0.447215 0.000000
v -0.276385 -0.447215 -0.850640
v 0.723600 -0.447215 -0.525720
v 0.199040 0.452905 0.714508
v -0.552200 0.433629 0.392438
v -0.551245 0.467755 -0.241039
v 0.375440 0.426879 -0.485451
v 0.607405 0.453968 -0.001313
v 0.141802 0.740107 0.130202
vn -0.0339 -0.9940 -0.1042
vn -0.1096 -0.9940 -0.0000
vn 0.0887 -0.9940 -0.0644
vn 0.0887 -0.9940 0.0644
vn -0.0339 -0.9940 0.1042
vn 0.9918 0.1279 -0.0000
vn 0.3090 -0.0194 0.9509
vn -0.8079 0.0524 0.5870
vn -0.8002 0.1470 -0.5814
vn 0.3048 0.1646 -0.9381
vn 0.8057 0.3730 0.4602
vn -0.3790 0.3309 0.8642
vn -0.9346 0.3552 0.0177
vn -0.2000 0.5009 -0.8421
vn 0.8361 0.3524 -0.4203
vn 0.5600 0.7639 0.3206
vn -0.2142 0.8681 0.4477
vn -0.3879 0.9204 0.0490
vn -0.0875 0.8740 -0.4779
vn 0.4500 0.8533 -0.2634
vt 0.181819 0.000000
vt 0.272728 0.157461
vt 0.090910 0.157461
vt 0.363637 0.000000
vt 0.454546 0.157461
vt 0.909091 0.000000
vt 1.000000 0.157461
vt 0.818182 0.157461
vt 0.727273 0.000000
vt 0.636364 0.157461
vt 0.545455 0.000000
vt 0.363637 0.314921
vt 0.181819 0.314921
vt 0.909091 0.314921
vt 0.727273 0.314921
vt 0.545455 0.314921
vt 0.000000 0.314921
vt 0.272728 0.472382
vt 0.090910 0.472382
vt 0.818182 0.472382
vt 0.636364 0.472382
vt 0.454546 0.472382
s 0
f 1/1/1 2/2/1 3/3/1
f 2/2/2 1/4/2 6/5/2
f 1/6/3 3/7/3 4/8/3
f 1/9/4 4/8/4 5/10/4
f 1/11/5 5/10/5 6/5/5
f 2/2/6 6/5/6 11/12/6
f 3/3/7 2/2/7 7/13/7
f 4/8/8 3/7/8 8/14/8
f 5/10/9 4/8/9 9/15/9
f 6/5/10 5/10/10 10/16/10
f 2/2/11 11/12/11 7/13/11
f 3/3/12 7/13/12 8/17/12
f 4/8/13 8/14/13 9/15/13
f 5/10/14 9/15/14 10/16/14
f 6/5/15 10/16/15 11/12/15
f 7/13/16 11/12/16 12/18/16
f 8/17/17 7/13/17 12/19/17
f 9/15/18 8/14/18 12/20/18
f 10/16/19 9/15/19 12/21/19
f 11/12/20 10/16/20 12/22/20
