# Blender 4.5.3 LTS
# www.blender.org
mtllib crate_wooden.mtl
o Crate_Wooden_Cube.017
v -0.398497 0.291614 0.397733
v -0.398497 0.193396 0.397733
v -0.398497 0.193396 -0.403350
v -0.398497 0.291614 -0.403350
v -0.353809 0.285749 0.348330
v -0.353810 0.199261 0.348330
v -0.353810 0.199261 -0.353946
v -0.353810 0.285749 -0.353946
v 0.398209 0.291614 0.397733
v 0.398209 0.193396 0.397733
v 0.398209 0.193396 -0.403350
v 0.398209 0.291614 -0.403350
v 0.353522 0.285749 0.348330
v 0.353522 0.199260 0.348330
v 0.353522 0.199260 -0.353947
v 0.353522 0.285749 -0.353947
v 0.400398 -0.291615 0.395545
v 0.400398 -0.193397 0.395545
v -0.400686 -0.193397 0.395545
v -0.400686 -0.291615 0.395545
v 0.350994 -0.285750 0.350857
v 0.350994 -0.199262 0.350857
v -0.351282 -0.199262 0.350857
v -0.351282 -0.285750 0.350857
v 0.400398 -0.291615 -0.401162
v 0.400398 -0.193397 -0.401162
v -0.400686 -0.193397 -0.401161
v -0.400686 -0.291615 -0.401161
v 0.350994 -0.285750 -0.356474
v 0.350994 -0.199262 -0.356474
v -0.351282 -0.199262 -0.356474
v -0.351282 -0.285750 -0.356474
v 0.415714 0.376438 -0.406047
v 0.415714 0.408190 -0.406047
v 0.416126 0.376438 0.403394
v 0.416126 0.408190 0.403394
v -0.393522 0.376438 -0.406232
v -0.393522 0.408190 -0.406232
v -0.416558 0.376438 0.403394
v -0.416558 0.408190 0.403394
v 0.404597 0.376438 0.268456
v 0.404597 0.376438 0.133518
v 0.404597 0.376438 -0.001419
v 0.404597 0.376438 -0.136357
v 0.425701 0.376438 -0.271480
v 0.425701 0.408190 -0.271480
v 0.404597 0.408190 -0.136357
v 0.404597 0.408190 -0.001419
v 0.404597 0.408190 0.133518
v 0.404597 0.408190 0.268456
v -0.393522 0.376438 -0.271295
v -0.405029 0.376438 -0.136357
v -0.405029 0.376438 -0.001419
v -0.405029 0.376438 0.133518
v -0.405029 0.376438 0.268456
v -0.405029 0.408190 0.268456
v -0.405029 0.408190 0.133518
v -0.405029 0.408190 -0.001419
v -0.405029 0.408190 -0.136357
v -0.393522 0.408190 -0.271295
v 0.404597 0.376438 -0.265577
v 0.404597 0.408190 -0.265577
v -0.405029 0.376438 -0.265577
v -0.405029 0.408190 -0.265577
v 0.395940 0.376438 0.128278
v 0.395940 0.408190 0.128278
v -0.412221 0.376438 0.128145
v -0.412221 0.408190 0.128145
v 0.416126 0.408190 0.273109
v -0.416558 0.376438 0.273109
v 0.416126 0.376438 0.273109
v -0.416558 0.408190 0.273109
v 0.415714 -0.376439 -0.406047
v 0.415714 -0.408191 -0.406047
v 0.416126 -0.376439 0.403394
v 0.416126 -0.408191 0.403394
v -0.393522 -0.376439 -0.406232
v -0.393522 -0.408191 -0.406232
v -0.416558 -0.376439 0.403394
v -0.416558 -0.408191 0.403394
v 0.404597 -0.376439 0.268456
v 0.404597 -0.376439 0.133518
v 0.404597 -0.376439 -0.001419
v 0.404597 -0.376439 -0.136357
v 0.425701 -0.376439 -0.271480
v 0.425701 -0.408191 -0.271480
v 0.404597 -0.408191 -0.136357
v 0.404597 -0.408191 -0.001419
v 0.404597 -0.408191 0.133518
v 0.404597 -0.408191 0.268456
v -0.393522 -0.376439 -0.271295
v -0.405029 -0.376439 -0.136357
v -0.405029 -0.376439 -0.001419
v -0.405029 -0.376439 0.133518
v -0.405029 -0.376439 0.268456
v -0.405029 -0.408191 0.268456
v -0.405029 -0.408191 0.133518
v -0.405029 -0.408191 -0.001419
v -0.405029 -0.408191 -0.136357
v -0.393522 -0.408191 -0.271295
v 0.404597 -0.376439 -0.265577
v 0.404597 -0.408191 -0.265577
v -0.405029 -0.376439 -0.265577
v -0.405029 -0.408191 -0.265577
v 0.395940 -0.376439 0.128278
v 0.395940 -0.408191 0.128278
v -0.412221 -0.376439 0.128145
v -0.412221 -0.408191 0.128145
v 0.416126 -0.408191 0.273109
v -0.416558 -0.376439 0.273109
v 0.416126 -0.376439 0.273109
v -0.416558 -0.408191 0.273109
v 0.389856 -0.390001 -0.390907
v 0.389856 0.389999 -0.390907
v 0.389856 -0.390001 -0.279650
v 0.389856 0.389999 -0.279650
v 0.278427 -0.390001 -0.390907
v 0.278427 0.389999 -0.390907
v 0.342086 -0.390001 -0.277416
v 0.342086 0.389999 -0.277416
v 0.280534 -0.390001 -0.332692
v 0.280534 0.389999 -0.332692
v -0.390144 -0.390001 -0.390907
v -0.390144 0.389999 -0.390907
v -0.390144 -0.390001 -0.279650
v -0.390144 0.389999 -0.279650
v -0.278715 -0.390001 -0.390907
v -0.278715 0.389999 -0.390907
v -0.342374 -0.390001 -0.277416
v -0.342374 0.389999 -0.277416
v -0.280822 -0.390001 -0.332692
v -0.280822 0.389999 -0.332692
v 0.389856 -0.390001 0.389093
v 0.389856 0.389999 0.389093
v 0.389856 -0.390001 0.277836
v 0.389856 0.389999 0.277836
v 0.278427 -0.390001 0.389093
v 0.278427 0.389999 0.389093
v 0.342086 -0.390001 0.275602
v 0.342086 0.389999 0.275602
v 0.280534 -0.390001 0.330878
v 0.280534 0.389999 0.330878
v -0.390144 -0.390001 0.389093
v -0.390144 0.389999 0.389093
v -0.390144 -0.390001 0.277836
v -0.390144 0.389999 0.277836
v -0.278715 -0.390001 0.389093
v -0.278715 0.389999 0.389093
v -0.342374 -0.390001 0.275602
v -0.342374 0.389999 0.275602
v -0.280822 -0.390001 0.330878
v -0.280822 0.389999 0.330878
v 0.356501 -0.382431 -0.383337
v 0.356501 -0.382431 0.381523
v 0.356501 0.382430 -0.383337
v 0.356501 0.382429 0.381523
v 0.356501 -0.382431 -0.255861
v 0.356501 -0.382431 -0.128384
v 0.356501 -0.382431 -0.000907
v 0.356501 -0.382431 0.126570
v 0.356501 -0.382431 0.254046
v 0.356501 0.382429 0.254047
v 0.356501 0.382429 0.126570
v 0.356501 0.382429 -0.000907
v 0.356501 0.382429 -0.128384
v 0.356501 0.382430 -0.255860
v -0.382574 -0.382431 0.355738
v 0.382286 -0.382431 0.355738
v -0.382574 0.382430 0.355738
v 0.382286 0.382429 0.355738
v -0.255098 -0.382431 0.355738
v -0.127621 -0.382431 0.355738
v -0.000144 -0.382431 0.355738
v 0.127333 -0.382431 0.355738
v 0.254809 -0.382431 0.355738
v 0.254810 0.382429 0.355738
v 0.127333 0.382430 0.355738
v -0.000144 0.382430 0.355738
v -0.127621 0.382430 0.355738
v -0.255097 0.382430 0.355738
v 0.382286 -0.382431 -0.357552
v -0.382574 -0.382431 -0.357552
v 0.382286 0.382430 -0.357552
v -0.382574 0.382429 -0.357552
v 0.254810 -0.382431 -0.357552
v 0.127333 -0.382431 -0.357552
v -0.000144 -0.382431 -0.357552
v -0.127621 -0.382431 -0.357552
v -0.255097 -0.382431 -0.357552
v -0.255098 0.382429 -0.357552
v -0.127621 0.382429 -0.357552
v -0.000144 0.382430 -0.357552
v 0.127333 0.382430 -0.357552
v 0.254809 0.382429 -0.357552
v -0.356789 -0.382431 0.381523
v -0.356789 -0.382431 -0.383337
v -0.356789 0.382430 0.381523
v -0.356789 0.382429 -0.383337
v -0.356789 -0.382431 0.254047
v -0.356789 -0.382431 0.126570
v -0.356789 -0.382431 -0.000907
v -0.356789 -0.382431 -0.128384
v -0.356789 -0.382431 -0.255860
v -0.356789 0.382429 -0.255861
v -0.356789 0.382429 -0.128384
v -0.356789 0.382430 -0.000907
v -0.356789 0.382430 0.126570
v -0.356789 0.382430 0.254046
v 0.291470 0.439944 0.425355
v 0.193252 0.439944 0.425355
v 0.193252 0.439944 -0.430972
v 0.291470 0.439944 -0.430972
v 0.285606 0.390591 0.372544
v 0.199117 0.390591 0.372544
v 0.199117 0.390591 -0.378161
v 0.285606 0.390591 -0.378161
v 0.291470 -0.439946 0.425355
v 0.193252 -0.439946 0.425355
v 0.193252 -0.439946 -0.430972
v 0.291470 -0.439946 -0.430972
v 0.285606 -0.390592 0.372544
v 0.199117 -0.390592 0.372544
v 0.199117 -0.390592 -0.378161
v 0.285606 -0.390592 -0.378161
v -0.291758 0.439944 0.425355
v -0.193540 0.439944 0.425355
v -0.193540 0.439944 -0.430972
v -0.291759 0.439944 -0.430972
v -0.285894 0.390591 0.372544
v -0.199405 0.390591 0.372544
v -0.199405 0.390591 -0.378161
v -0.285894 0.390591 -0.378161
v -0.291758 -0.439946 0.425355
v -0.193540 -0.439946 0.425355
v -0.193540 -0.439946 -0.430972
v -0.291759 -0.439946 -0.430972
v -0.285894 -0.390592 0.372544
v -0.199405 -0.390592 0.372544
v -0.199405 -0.390592 -0.378161
v -0.285894 -0.390592 -0.378161
v 0.241740 0.236739 -0.440635
v 0.242843 0.234940 -0.424615
v 0.235728 0.239235 -0.440221
v 0.235562 0.237963 -0.424114
v 0.233237 0.245262 -0.440050
v 0.232546 0.245262 -0.423906
v 0.235728 0.251288 -0.440221
v 0.235562 0.252560 -0.424114
v 0.241740 0.253785 -0.440635
v 0.242843 0.255584 -0.424615
v 0.247753 0.251288 -0.441049
v 0.250125 0.252560 -0.425117
v 0.250243 0.245262 -0.441221
v 0.253141 0.245262 -0.425325
v 0.247753 0.239235 -0.441049
v 0.250125 0.237963 -0.425117
v 0.241978 0.234730 -0.437183
v 0.234548 0.237814 -0.436672
v 0.231471 0.245262 -0.436460
v 0.234548 0.252709 -0.436672
v 0.241978 0.255794 -0.437183
v 0.249408 0.252709 -0.437695
v 0.252485 0.245262 -0.437907
v 0.249408 0.237814 -0.437695
v -0.242028 0.236739 -0.440635
v -0.243131 0.234940 -0.424615
v -0.236016 0.239235 -0.440221
v -0.235850 0.237963 -0.424114
v -0.233525 0.245262 -0.440050
v -0.232834 0.245262 -0.423906
v -0.236016 0.251288 -0.440221
v -0.235850 0.252560 -0.424114
v -0.242028 0.253785 -0.440635
v -0.243131 0.255584 -0.424615
v -0.248041 0.251288 -0.441049
v -0.250413 0.252560 -0.425117
v -0.250531 0.245262 -0.441221
v -0.253429 0.245262 -0.425325
v -0.248041 0.239235 -0.441049
v -0.250413 0.237963 -0.425117
v -0.242266 0.234730 -0.437183
v -0.234836 0.237814 -0.436672
v -0.231759 0.245262 -0.436460
v -0.234836 0.252709 -0.436672
v -0.242266 0.255794 -0.437183
v -0.249696 0.252709 -0.437695
v -0.252773 0.245262 -0.437907
v -0.249696 0.237814 -0.437695
v 0.241740 0.236739 0.438821
v 0.242843 0.234940 0.422801
v 0.235728 0.239235 0.438407
v 0.235562 0.237963 0.422300
v 0.233237 0.245262 0.438236
v 0.232546 0.245262 0.422092
v 0.235728 0.251288 0.438407
v 0.235562 0.252560 0.422300
v 0.241740 0.253785 0.438821
v 0.242843 0.255584 0.422801
v 0.247753 0.251288 0.439235
v 0.250125 0.252560 0.423303
v 0.250243 0.245262 0.439407
v 0.253141 0.245262 0.423511
v 0.247753 0.239235 0.439235
v 0.250125 0.237963 0.423303
v 0.241978 0.234730 0.435369
v 0.234548 0.237814 0.434858
v 0.231471 0.245262 0.434646
v 0.234548 0.252709 0.434858
v 0.241978 0.255794 0.435369
v 0.249408 0.252709 0.435881
v 0.252485 0.245262 0.436093
v 0.249408 0.237814 0.435881
v -0.242028 0.236739 0.438821
v -0.243131 0.234940 0.422801
v -0.236016 0.239235 0.438407
v -0.235850 0.237963 0.422300
v -0.233525 0.245262 0.438236
v -0.232834 0.245262 0.422092
v -0.236016 0.251288 0.438407
v -0.235850 0.252560 0.422300
v -0.242028 0.253785 0.438821
v -0.243131 0.255584 0.422801
v -0.248041 0.251288 0.439235
v -0.250413 0.252560 0.423303
v -0.250531 0.245262 0.439407
v -0.253429 0.245262 0.423511
v -0.248041 0.239235 0.439235
v -0.250413 0.237963 0.423303
v -0.242266 0.234730 0.435369
v -0.234836 0.237814 0.434858
v -0.231759 0.245262 0.434646
v -0.234836 0.252709 0.434858
v -0.242266 0.255794 0.435369
v -0.249696 0.252709 0.435881
v -0.252773 0.245262 0.436093
v -0.249696 0.237814 0.435881
v 0.241740 -0.236740 -0.440635
v 0.242843 -0.234941 -0.424615
v 0.235728 -0.239236 -0.440221
v 0.235562 -0.237965 -0.424114
v 0.233237 -0.245263 -0.440050
v 0.232546 -0.245263 -0.423906
v 0.235728 -0.251290 -0.440221
v 0.235562 -0.252562 -0.424114
v 0.241740 -0.253786 -0.440635
v 0.242843 -0.255585 -0.424615
v 0.247753 -0.251290 -0.441049
v 0.250125 -0.252562 -0.425117
v 0.250243 -0.245263 -0.441221
v 0.253141 -0.245263 -0.425325
v 0.247753 -0.239236 -0.441049
v 0.250125 -0.237965 -0.425117
v 0.241978 -0.234731 -0.437183
v 0.234548 -0.237816 -0.436672
v 0.231471 -0.245263 -0.436460
v 0.234548 -0.252710 -0.436672
v 0.241978 -0.255795 -0.437183
v 0.249408 -0.252710 -0.437695
v 0.252485 -0.245263 -0.437907
v 0.249408 -0.237816 -0.437695
v -0.242028 -0.236740 -0.440635
v -0.243131 -0.234941 -0.424615
v -0.236016 -0.239236 -0.440221
v -0.235850 -0.237965 -0.424114
v -0.233525 -0.245263 -0.440050
v -0.232834 -0.245263 -0.423906
v -0.236016 -0.251290 -0.440221
v -0.235850 -0.252562 -0.424114
v -0.242028 -0.253786 -0.440635
v -0.243131 -0.255585 -0.424615
v -0.248041 -0.251290 -0.441049
v -0.250413 -0.252562 -0.425117
v -0.250531 -0.245263 -0.441221
v -0.253429 -0.245263 -0.425325
v -0.248041 -0.239236 -0.441049
v -0.250413 -0.237965 -0.425117
v -0.242266 -0.234731 -0.437183
v -0.234836 -0.237816 -0.436672
v -0.231759 -0.245263 -0.436460
v -0.234836 -0.252710 -0.436672
v -0.242266 -0.255795 -0.437183
v -0.249696 -0.252710 -0.437695
v -0.252773 -0.245263 -0.437907
v -0.249696 -0.237816 -0.437695
v 0.241740 -0.236740 0.438821
v 0.242843 -0.234941 0.422801
v 0.235728 -0.239236 0.438407
v 0.235562 -0.237965 0.422300
v 0.233237 -0.245263 0.438236
v 0.232546 -0.245263 0.422092
v 0.235728 -0.251290 0.438407
v 0.235562 -0.252562 0.422300
v 0.241740 -0.253786 0.438821
v 0.242843 -0.255585 0.422801
v 0.247753 -0.251290 0.439235
v 0.250125 -0.252562 0.423303
v 0.250243 -0.245263 0.439407
v 0.253141 -0.245263 0.423511
v 0.247753 -0.239236 0.439235
v 0.250125 -0.237965 0.423303
v 0.241978 -0.234731 0.435369
v 0.234548 -0.237816 0.434858
v 0.231471 -0.245263 0.434646
v 0.234548 -0.252710 0.434858
v 0.241978 -0.255795 0.435369
v 0.249408 -0.252710 0.435881
v 0.252485 -0.245263 0.436093
v 0.249408 -0.237816 0.435881
v -0.242028 -0.236740 0.438821
v -0.243131 -0.234941 0.422801
v -0.236016 -0.239236 0.438407
v -0.235850 -0.237965 0.422300
v -0.233525 -0.245263 0.438236
v -0.232834 -0.245263 0.422092
v -0.236016 -0.251290 0.438407
v -0.235850 -0.252562 0.422300
v -0.242028 -0.253786 0.438821
v -0.243131 -0.255585 0.422801
v -0.248041 -0.251290 0.439235
v -0.250413 -0.252562 0.423303
v -0.250531 -0.245263 0.439407
v -0.253429 -0.245263 0.423511
v -0.248041 -0.239236 0.439235
v -0.250413 -0.237965 0.423303
v -0.242266 -0.234731 0.435369
v -0.234836 -0.237816 0.434858
v -0.231759 -0.245263 0.434646
v -0.234836 -0.252710 0.434858
v -0.242266 -0.255795 0.435369
v -0.249696 -0.252710 0.435881
v -0.252773 -0.245263 0.436093
v -0.249696 -0.237816 0.435881
v 0.406443 0.236739 -0.330705
v 0.390386 0.234940 -0.330568
v 0.406392 0.239235 -0.336732
v 0.390324 0.237963 -0.337867
v 0.406371 0.245262 -0.339228
v 0.390298 0.245262 -0.340890
v 0.406392 0.251288 -0.336732
v 0.390324 0.252560 -0.337867
v 0.406443 0.253785 -0.330705
v 0.390386 0.255583 -0.330568
v 0.406495 0.251288 -0.324679
v 0.390449 0.252560 -0.323270
v 0.406516 0.245262 -0.322183
v 0.390474 0.245262 -0.320247
v 0.406495 0.239235 -0.324679
v 0.390449 0.237963 -0.323270
v 0.402983 0.234730 -0.330676
v 0.402920 0.237814 -0.338123
v 0.402893 0.245262 -0.341208
v 0.402920 0.252709 -0.338123
v 0.402983 0.255794 -0.330676
v 0.403047 0.252709 -0.323229
v 0.403073 0.245262 -0.320144
v 0.403047 0.237814 -0.323229
v -0.406731 0.236739 -0.330705
v -0.390674 0.234940 -0.330568
v -0.406680 0.239235 -0.336732
v -0.390612 0.237963 -0.337867
v -0.406659 0.245262 -0.339228
v -0.390586 0.245262 -0.340890
v -0.406680 0.251288 -0.336732
v -0.390612 0.252560 -0.337867
v -0.406731 0.253785 -0.330705
v -0.390674 0.255584 -0.330568
v -0.406783 0.251288 -0.324679
v -0.390737 0.252560 -0.323270
v -0.406804 0.245262 -0.322183
v -0.390762 0.245262 -0.320247
v -0.406783 0.239235 -0.324679
v -0.390737 0.237963 -0.323270
v -0.403271 0.234730 -0.330676
v -0.403208 0.237814 -0.338123
v -0.403181 0.245262 -0.341208
v -0.403208 0.252709 -0.338123
v -0.403271 0.255794 -0.330676
v -0.403335 0.252709 -0.323229
v -0.403361 0.245262 -0.320144
v -0.403335 0.237814 -0.323229
v 0.406443 0.236739 0.328891
v 0.390386 0.234940 0.328754
v 0.406392 0.239235 0.334918
v 0.390324 0.237963 0.336053
v 0.406371 0.245262 0.337414
v 0.390298 0.245262 0.339076
v 0.406392 0.251288 0.334918
v 0.390324 0.252560 0.336053
v 0.406443 0.253785 0.328891
v 0.390386 0.255583 0.328754
v 0.406495 0.251288 0.322865
v 0.390449 0.252560 0.321456
v 0.406516 0.245262 0.320369
v 0.390474 0.245262 0.318433
v 0.406495 0.239235 0.322865
v 0.390449 0.237963 0.321456
v 0.402983 0.234730 0.328862
v 0.402920 0.237814 0.336309
v 0.402893 0.245262 0.339394
v 0.402920 0.252709 0.336309
v 0.402983 0.255794 0.328862
v 0.403047 0.252709 0.321415
v 0.403073 0.245262 0.318330
v 0.403047 0.237814 0.321415
v -0.406731 0.236739 0.328891
v -0.390674 0.234940 0.328754
v -0.406680 0.239235 0.334918
v -0.390612 0.237963 0.336053
v -0.406659 0.245262 0.337414
v -0.390586 0.245262 0.339076
v -0.406680 0.251288 0.334918
v -0.390612 0.252560 0.336053
v -0.406731 0.253785 0.328891
v -0.390674 0.255584 0.328754
v -0.406783 0.251288 0.322865
v -0.390737 0.252560 0.321456
v -0.406804 0.245262 0.320369
v -0.390762 0.245262 0.318433
v -0.406783 0.239235 0.322865
v -0.390737 0.237963 0.321456
v -0.403271 0.234730 0.328862
v -0.403208 0.237814 0.336309
v -0.403181 0.245262 0.339394
v -0.403208 0.252709 0.336309
v -0.403271 0.255794 0.328862
v -0.403335 0.252709 0.321415
v -0.403361 0.245262 0.318330
v -0.403335 0.237814 0.321415
v 0.406443 -0.236740 -0.330705
v 0.390386 -0.234941 -0.330568
v 0.406392 -0.239236 -0.336732
v 0.390324 -0.237965 -0.337867
v 0.406371 -0.245263 -0.339228
v 0.390298 -0.245263 -0.340890
v 0.406392 -0.251290 -0.336732
v 0.390324 -0.252562 -0.337867
v 0.406443 -0.253786 -0.330705
v 0.390386 -0.255585 -0.330568
v 0.406495 -0.251290 -0.324679
v 0.390449 -0.252562 -0.323270
v 0.406516 -0.245263 -0.322183
v 0.390474 -0.245263 -0.320247
v 0.406495 -0.239236 -0.324679
v 0.390449 -0.237965 -0.323270
v 0.402983 -0.234731 -0.330676
v 0.402920 -0.237816 -0.338123
v 0.402893 -0.245263 -0.341208
v 0.402920 -0.252710 -0.338123
v 0.402983 -0.255795 -0.330676
v 0.403047 -0.252710 -0.323229
v 0.403073 -0.245263 -0.320144
v 0.403047 -0.237816 -0.323229
v -0.406731 -0.236740 -0.330705
v -0.390674 -0.234941 -0.330568
v -0.406680 -0.239236 -0.336732
v -0.390612 -0.237965 -0.337867
v -0.406659 -0.245263 -0.339228
v -0.390586 -0.245263 -0.340890
v -0.406680 -0.251290 -0.336732
v -0.390612 -0.252562 -0.337867
v -0.406731 -0.253786 -0.330705
v -0.390674 -0.255585 -0.330568
v -0.406783 -0.251290 -0.324679
v -0.390737 -0.252562 -0.323270
v -0.406804 -0.245263 -0.322183
v -0.390762 -0.245263 -0.320247
v -0.406783 -0.239236 -0.324679
v -0.390737 -0.237965 -0.323270
v -0.403271 -0.234731 -0.330676
v -0.403208 -0.237816 -0.338123
v -0.403181 -0.245263 -0.341208
v -0.403208 -0.252710 -0.338123
v -0.403271 -0.255795 -0.330676
v -0.403335 -0.252710 -0.323229
v -0.403361 -0.245263 -0.320144
v -0.403335 -0.237816 -0.323229
v 0.406443 -0.236740 0.328891
v 0.390386 -0.234941 0.328754
v 0.406392 -0.239236 0.334918
v 0.390324 -0.237965 0.336053
v 0.406371 -0.245263 0.337414
v 0.390298 -0.245263 0.339076
v 0.406392 -0.251290 0.334918
v 0.390324 -0.252562 0.336053
v 0.406443 -0.253786 0.328891
v 0.390386 -0.255585 0.328754
v 0.406495 -0.251290 0.322865
v 0.390449 -0.252562 0.321456
v 0.406516 -0.245263 0.320369
v 0.390474 -0.245263 0.318433
v 0.406495 -0.239236 0.322865
v 0.390449 -0.237965 0.321456
v 0.402983 -0.234731 0.328862
v 0.402920 -0.237816 0.336309
v 0.402893 -0.245263 0.339394
v 0.402920 -0.252710 0.336309
v 0.402983 -0.255795 0.328862
v 0.403047 -0.252710 0.321415
v 0.403073 -0.245263 0.318330
v 0.403047 -0.237816 0.321415
v -0.406731 -0.236740 0.328891
v -0.390674 -0.234941 0.328754
v -0.406680 -0.239236 0.334918
v -0.390612 -0.237965 0.336053
v -0.406659 -0.245263 0.337414
v -0.390586 -0.245263 0.339076
v -0.406680 -0.251290 0.334918
v -0.390612 -0.252562 0.336053
v -0.406731 -0.253786 0.328891
v -0.390674 -0.255585 0.328754
v -0.406783 -0.251290 0.322865
v -0.390737 -0.252562 0.321456
v -0.406804 -0.245263 0.320369
v -0.390762 -0.245263 0.318433
v -0.406783 -0.239236 0.322865
v -0.390737 -0.237965 0.321456
v -0.403271 -0.234731 0.328862
v -0.403208 -0.237816 0.336309
v -0.403181 -0.245263 0.339394
v -0.403208 -0.252710 0.336309
v -0.403271 -0.255795 0.328862
v -0.403335 -0.252710 0.321415
v -0.403361 -0.245263 0.318330
v -0.403335 -0.237816 0.321415
v 0.281230 0.455464 -0.351859
v 0.203073 0.455464 -0.351859
v 0.281230 0.360628 -0.446696
v 0.203073 0.360628 -0.446696
v 0.289810 0.439364 -0.430363
v 0.194494 0.439364 -0.430363
v 0.289810 0.439364 -0.331156
v 0.194494 0.439364 -0.331156
v 0.289810 0.345800 -0.430363
v 0.194494 0.345800 -0.430363
v 0.286257 0.451011 -0.345684
v 0.198046 0.451012 -0.345684
v 0.286257 0.354187 -0.442179
v 0.198046 0.354187 -0.442179
v 0.281230 0.455464 -0.439283
v 0.281230 0.448077 -0.446696
v 0.203073 0.448077 -0.446696
v 0.203073 0.455464 -0.439283
v 0.286257 0.443603 -0.442179
v 0.286257 0.451011 -0.434744
v 0.198046 0.451012 -0.434744
v 0.198046 0.443603 -0.442179
v 0.249352 0.465463 -0.398632
v 0.251437 0.455098 -0.404278
v 0.239589 0.465463 -0.398251
v 0.237071 0.455098 -0.403718
v 0.232954 0.465463 -0.391079
v 0.227308 0.455098 -0.393164
v 0.233335 0.465463 -0.381316
v 0.227869 0.455098 -0.378798
v 0.240508 0.465463 -0.374681
v 0.238423 0.455098 -0.369035
v 0.250271 0.465463 -0.375062
v 0.252789 0.455098 -0.369596
v 0.256905 0.465463 -0.382235
v 0.262551 0.455098 -0.380150
v 0.256524 0.465463 -0.391998
v 0.261991 0.455098 -0.394516
v 0.244448 0.381662 -0.455054
v 0.246745 0.375444 -0.443637
v 0.233695 0.382082 -0.455054
v 0.230921 0.376061 -0.443637
v 0.226388 0.389982 -0.455054
v 0.220169 0.387686 -0.443637
v 0.226807 0.400735 -0.455054
v 0.220786 0.403509 -0.443637
v 0.234707 0.408042 -0.455054
v 0.232411 0.414261 -0.443637
v 0.245460 0.407623 -0.455054
v 0.248234 0.413644 -0.443637
v 0.252768 0.399723 -0.455054
v 0.258986 0.402019 -0.443637
v 0.252348 0.388970 -0.455054
v 0.258369 0.386196 -0.443637
v 0.281230 -0.455466 -0.351859
v 0.203073 -0.455466 -0.351859
v 0.281230 -0.360629 -0.446696
v 0.203073 -0.360629 -0.446696
v 0.289809 -0.439365 -0.430363
v 0.194494 -0.439365 -0.430363
v 0.289809 -0.439365 -0.331156
v 0.194494 -0.439365 -0.331156
v 0.289809 -0.345802 -0.430363
v 0.194494 -0.345802 -0.430363
v 0.286257 -0.451013 -0.345684
v 0.198046 -0.451013 -0.345684
v 0.286257 -0.354188 -0.442179
v 0.198046 -0.354188 -0.442179
v 0.281230 -0.455466 -0.439283
v 0.281230 -0.448078 -0.446696
v 0.203073 -0.448078 -0.446696
v 0.203073 -0.455466 -0.439283
v 0.286257 -0.443604 -0.442179
v 0.286257 -0.451013 -0.434744
v 0.198046 -0.451013 -0.434744
v 0.198046 -0.443604 -0.442179
v 0.249351 -0.465465 -0.398632
v 0.251436 -0.455099 -0.404278
v 0.239589 -0.465465 -0.398251
v 0.237070 -0.455099 -0.403718
v 0.232954 -0.465465 -0.391079
v 0.227308 -0.455099 -0.393164
v 0.233335 -0.465465 -0.381316
v 0.227868 -0.455099 -0.378798
v 0.240507 -0.465465 -0.374681
v 0.238423 -0.455099 -0.369035
v 0.250270 -0.465465 -0.375062
v 0.252788 -0.455099 -0.369596
v 0.256905 -0.465465 -0.382235
v 0.262551 -0.455099 -0.380150
v 0.256524 -0.465465 -0.391998
v 0.261991 -0.455099 -0.394516
v 0.244448 -0.381664 -0.455054
v 0.246744 -0.375445 -0.443637
v 0.233695 -0.382083 -0.455054
v 0.230921 -0.376062 -0.443637
v 0.226388 -0.389983 -0.455054
v 0.220169 -0.387687 -0.443637
v 0.226807 -0.400736 -0.455054
v 0.220786 -0.403510 -0.443637
v 0.234707 -0.408044 -0.455054
v 0.232411 -0.414263 -0.443637
v 0.245460 -0.407624 -0.455054
v 0.248234 -0.413645 -0.443637
v 0.252767 -0.399724 -0.455054
v 0.258986 -0.402021 -0.443637
v 0.252348 -0.388971 -0.455054
v 0.258369 -0.386198 -0.443637
v 0.281230 0.455464 0.350045
v 0.203074 0.455464 0.350045
v 0.281230 0.360628 0.444882
v 0.203074 0.360628 0.444882
v 0.289810 0.439364 0.428549
v 0.194494 0.439364 0.428549
v 0.289810 0.439364 0.329342
v 0.194494 0.439364 0.329342
v 0.289810 0.345800 0.428549
v 0.194494 0.345800 0.428549
v 0.286258 0.451011 0.343870
v 0.198046 0.451012 0.343870
v 0.286258 0.354187 0.440365
v 0.198046 0.354187 0.440365
v 0.281230 0.455464 0.437469
v 0.281230 0.448077 0.444882
v 0.203074 0.448077 0.444882
v 0.203074 0.455464 0.437469
v 0.286258 0.443603 0.440365
v 0.286258 0.451011 0.432930
v 0.198046 0.451012 0.432930
v 0.198046 0.443603 0.440365
v 0.249352 0.465463 0.396818
v 0.251437 0.455098 0.402464
v 0.239589 0.465463 0.396437
v 0.237071 0.455098 0.401904
v 0.232955 0.465463 0.389265
v 0.227309 0.455098 0.391349
v 0.233335 0.465463 0.379502
v 0.227869 0.455098 0.376984
v 0.240508 0.465463 0.372867
v 0.238423 0.455098 0.367221
v 0.250271 0.465463 0.373248
v 0.252789 0.455098 0.367782
v 0.256905 0.465463 0.380421
v 0.262551 0.455098 0.378336
v 0.256524 0.465463 0.390183
v 0.261991 0.455098 0.392702
v 0.244448 0.381662 0.453240
v 0.246745 0.375444 0.441822
v 0.233695 0.382082 0.453240
v 0.230922 0.376061 0.441822
v 0.226388 0.389982 0.453240
v 0.220169 0.387686 0.441822
v 0.226807 0.400735 0.453240
v 0.220786 0.403509 0.441822
v 0.234707 0.408042 0.453240
v 0.232411 0.414261 0.441822
v 0.245460 0.407623 0.453240
v 0.248234 0.413644 0.441822
v 0.252768 0.399723 0.453240
v 0.258986 0.402019 0.441822
v 0.252348 0.388970 0.453240
v 0.258369 0.386196 0.441822
v 0.281230 -0.455466 0.350045
v 0.203073 -0.455466 0.350045
v 0.281230 -0.360629 0.444882
v 0.203073 -0.360629 0.444882
v 0.289810 -0.439365 0.428549
v 0.194494 -0.439365 0.428549
v 0.289810 -0.439365 0.329342
v 0.194494 -0.439365 0.329342
v 0.289810 -0.345802 0.428549
v 0.194494 -0.345802 0.428549
v 0.286257 -0.451013 0.343870
v 0.198046 -0.451013 0.343870
v 0.286257 -0.354188 0.440365
v 0.198046 -0.354188 0.440365
v 0.281230 -0.455466 0.437469
v 0.281230 -0.448078 0.444882
v 0.203073 -0.448078 0.444882
v 0.203073 -0.455466 0.437469
v 0.286257 -0.443604 0.440365
v 0.286257 -0.451013 0.432930
v 0.198046 -0.451013 0.432930
v 0.198046 -0.443604 0.440365
v 0.249352 -0.465465 0.396818
v 0.251436 -0.455099 0.402464
v 0.239589 -0.465465 0.396437
v 0.237071 -0.455099 0.401904
v 0.232954 -0.465465 0.389265
v 0.227308 -0.455099 0.391349
v 0.233335 -0.465465 0.379502
v 0.227869 -0.455099 0.376984
v 0.240508 -0.465465 0.372867
v 0.238423 -0.455099 0.367221
v 0.250271 -0.465465 0.373248
v 0.252789 -0.455099 0.367782
v 0.256905 -0.465465 0.380421
v 0.262551 -0.455099 0.378336
v 0.256524 -0.465465 0.390183
v 0.261991 -0.455099 0.392702
v 0.244448 -0.381664 0.453240
v 0.246745 -0.375445 0.441822
v 0.233695 -0.382083 0.453240
v 0.230921 -0.376062 0.441822
v 0.226388 -0.389983 0.453240
v 0.220169 -0.387687 0.441822
v 0.226807 -0.400736 0.453240
v 0.220786 -0.403510 0.441822
v 0.234707 -0.408044 0.453240
v 0.232411 -0.414263 0.441822
v 0.245460 -0.407624 0.453240
v 0.248234 -0.413645 0.441822
v 0.252768 -0.399724 0.453240
v 0.258986 -0.402021 0.441822
v 0.252348 -0.388971 0.453240
v 0.258369 -0.386198 0.441822
v -0.281518 0.455464 -0.351859
v -0.203361 0.455464 -0.351859
v -0.281518 0.360628 -0.446696
v -0.203361 0.360628 -0.446696
v -0.290098 0.439364 -0.430363
v -0.194782 0.439364 -0.430363
v -0.290098 0.439364 -0.331156
v -0.194782 0.439364 -0.331156
v -0.290098 0.345800 -0.430363
v -0.194782 0.345800 -0.430363
v -0.286545 0.451012 -0.345684
v -0.198334 0.451012 -0.345684
v -0.286545 0.354187 -0.442179
v -0.198334 0.354187 -0.442179
v -0.281518 0.455464 -0.439283
v -0.281518 0.448077 -0.446696
v -0.203361 0.448077 -0.446696
v -0.203361 0.455464 -0.439283
v -0.286545 0.443603 -0.442179
v -0.286545 0.451012 -0.434744
v -0.198334 0.451012 -0.434744
v -0.198334 0.443603 -0.442179
v -0.249640 0.465463 -0.398632
v -0.251724 0.455098 -0.404278
v -0.239877 0.465463 -0.398251
v -0.237359 0.455098 -0.403718
v -0.233242 0.465463 -0.391079
v -0.227596 0.455098 -0.393163
v -0.233623 0.465463 -0.381316
v -0.228157 0.455098 -0.378798
v -0.240796 0.465463 -0.374681
v -0.238711 0.455098 -0.369035
v -0.250559 0.465463 -0.375062
v -0.253077 0.455098 -0.369596
v -0.257193 0.465463 -0.382235
v -0.262839 0.455098 -0.380150
v -0.256812 0.465463 -0.391997
v -0.262279 0.455098 -0.394516
v -0.244736 0.381663 -0.455054
v -0.247033 0.375444 -0.443636
v -0.233983 0.382082 -0.455054
v -0.231209 0.376061 -0.443636
v -0.226676 0.389982 -0.455054
v -0.220457 0.387686 -0.443636
v -0.227095 0.400735 -0.455054
v -0.221074 0.403509 -0.443636
v -0.234995 0.408042 -0.455054
v -0.232699 0.414261 -0.443636
v -0.245748 0.407623 -0.455054
v -0.248522 0.413644 -0.443636
v -0.253056 0.399723 -0.455054
v -0.259274 0.402020 -0.443636
v -0.252636 0.388970 -0.455054
v -0.258657 0.386196 -0.443636
v -0.281518 -0.455466 -0.351859
v -0.203362 -0.455466 -0.351859
v -0.281518 -0.360629 -0.446696
v -0.203362 -0.360629 -0.446696
v -0.290098 -0.439365 -0.430363
v -0.194782 -0.439365 -0.430363
v -0.290098 -0.439365 -0.331156
v -0.194782 -0.439365 -0.331156
v -0.290098 -0.345802 -0.430363
v -0.194782 -0.345802 -0.430363
v -0.286546 -0.451013 -0.345684
v -0.198334 -0.451013 -0.345684
v -0.286546 -0.354188 -0.442179
v -0.198334 -0.354188 -0.442179
v -0.281518 -0.455466 -0.439283
v -0.281518 -0.448078 -0.446696
v -0.203362 -0.448078 -0.446696
v -0.203362 -0.455466 -0.439283
v -0.286546 -0.443604 -0.442179
v -0.286546 -0.451013 -0.434744
v -0.198334 -0.451013 -0.434744
v -0.198334 -0.443604 -0.442179
v -0.249640 -0.465464 -0.398632
v -0.251725 -0.455099 -0.404278
v -0.239877 -0.465464 -0.398251
v -0.237359 -0.455099 -0.403718
v -0.233243 -0.465464 -0.391079
v -0.227597 -0.455099 -0.393163
v -0.233623 -0.465464 -0.381316
v -0.228157 -0.455099 -0.378798
v -0.240796 -0.465464 -0.374681
v -0.238711 -0.455099 -0.369035
v -0.250559 -0.465464 -0.375062
v -0.253077 -0.455099 -0.369596
v -0.257193 -0.465464 -0.382235
v -0.262839 -0.455099 -0.380150
v -0.256812 -0.465464 -0.391997
v -0.262279 -0.455099 -0.394516
v -0.244736 -0.381664 -0.455054
v -0.247033 -0.375445 -0.443636
v -0.233983 -0.382083 -0.455054
v -0.231210 -0.376062 -0.443636
v -0.226676 -0.389983 -0.455054
v -0.220457 -0.387687 -0.443636
v -0.227095 -0.400736 -0.455054
v -0.221074 -0.403510 -0.443636
v -0.234995 -0.408044 -0.455054
v -0.232699 -0.414262 -0.443636
v -0.245748 -0.407624 -0.455054
v -0.248522 -0.413645 -0.443636
v -0.253056 -0.399724 -0.455054
v -0.259274 -0.402021 -0.443636
v -0.252636 -0.388971 -0.455054
v -0.258657 -0.386197 -0.443636
v -0.281518 0.455464 0.350045
v -0.203361 0.455464 0.350045
v -0.281518 0.360628 0.444882
v -0.203361 0.360628 0.444882
v -0.290097 0.439364 0.428549
v -0.194782 0.439364 0.428549
v -0.290098 0.439364 0.329342
v -0.194782 0.439364 0.329342
v -0.290098 0.345800 0.428549
v -0.194782 0.345800 0.428549
v -0.286545 0.451012 0.343870
v -0.198334 0.451012 0.343870
v -0.286545 0.354187 0.440365
v -0.198334 0.354187 0.440365
v -0.281518 0.455464 0.437469
v -0.281518 0.448077 0.444882
v -0.203361 0.448077 0.444882
v -0.203361 0.455464 0.437469
v -0.286545 0.443603 0.440365
v -0.286545 0.451012 0.432930
v -0.198334 0.451012 0.432930
v -0.198334 0.443603 0.440365
v -0.249639 0.465463 0.396818
v -0.251724 0.455098 0.402464
v -0.239877 0.465463 0.396437
v -0.237358 0.455098 0.401904
v -0.233242 0.465463 0.389265
v -0.227596 0.455098 0.391350
v -0.233623 0.465463 0.379502
v -0.228156 0.455098 0.376984
v -0.240795 0.465463 0.372867
v -0.238711 0.455098 0.367221
v -0.250558 0.465463 0.373248
v -0.253077 0.455098 0.367782
v -0.257193 0.465463 0.380421
v -0.262839 0.455098 0.378336
v -0.256812 0.465463 0.390184
v -0.262279 0.455098 0.392702
v -0.244736 0.381663 0.453240
v -0.247032 0.375444 0.441823
v -0.233983 0.382082 0.453240
v -0.231209 0.376061 0.441823
v -0.226676 0.389982 0.453240
v -0.220457 0.387686 0.441823
v -0.227095 0.400735 0.453240
v -0.221074 0.403509 0.441823
v -0.234995 0.408042 0.453240
v -0.232699 0.414261 0.441823
v -0.245748 0.407623 0.453240
v -0.248522 0.413644 0.441823
v -0.253055 0.399723 0.453240
v -0.259274 0.402020 0.441823
v -0.252636 0.388970 0.453240
v -0.258657 0.386196 0.441823
v -0.281518 -0.455466 0.350045
v -0.203361 -0.455466 0.350045
v -0.281518 -0.360629 0.444882
v -0.203361 -0.360629 0.444882
v -0.290098 -0.439365 0.428549
v -0.194782 -0.439365 0.428549
v -0.290098 -0.439365 0.329342
v -0.194782 -0.439365 0.329342
v -0.290098 -0.345802 0.428549
v -0.194782 -0.345802 0.428549
v -0.286545 -0.451013 0.343870
v -0.198334 -0.451013 0.343870
v -0.286545 -0.354188 0.440365
v -0.198334 -0.354188 0.440365
v -0.281518 -0.455466 0.437469
v -0.281518 -0.448078 0.444882
v -0.203361 -0.448078 0.444882
v -0.203361 -0.455466 0.437469
v -0.286545 -0.443604 0.440365
v -0.286545 -0.451013 0.432930
v -0.198334 -0.451013 0.432930
v -0.198334 -0.443604 0.440365
v -0.249640 -0.465464 0.396818
v -0.251725 -0.455099 0.402464
v -0.239877 -0.465464 0.396437
v -0.237359 -0.455099 0.401904
v -0.233242 -0.465464 0.389265
v -0.227596 -0.455099 0.391350
v -0.233623 -0.465464 0.379502
v -0.228157 -0.455099 0.376984
v -0.240796 -0.465464 0.372867
v -0.238711 -0.455099 0.367221
v -0.250559 -0.465464 0.373248
v -0.253077 -0.455099 0.367782
v -0.257193 -0.465464 0.380421
v -0.262839 -0.455099 0.378336
v -0.256812 -0.465464 0.390184
v -0.262279 -0.455099 0.392702
v -0.244736 -0.381664 0.453240
v -0.247033 -0.375445 0.441823
v -0.233983 -0.382083 0.453240
v -0.231209 -0.376062 0.441823
v -0.226676 -0.389983 0.453240
v -0.220457 -0.387687 0.441823
v -0.227095 -0.400736 0.453240
v -0.221074 -0.403510 0.441823
v -0.234995 -0.408044 0.453240
v -0.232699 -0.414262 0.441823
v -0.245748 -0.407624 0.453240
v -0.248522 -0.413645 0.441823
v -0.253056 -0.399724 0.453240
v -0.259274 -0.402021 0.441823
v -0.252636 -0.388971 0.453240
v -0.258657 -0.386197 0.441823
vn -1.0000 -0.0000 -0.0000
vn -0.0000 0.9930 -0.1179
vn -0.0000 -0.0000 -1.0000
vn 0.1301 0.9915 -0.0000
vn -0.0000 -0.9930 0.1179
vn -0.0000 -0.9930 -0.1179
vn 0.1301 -0.9915 -0.0000
vn -0.0000 0.9930 0.1179
vn 1.0000 -0.0000 -0.0000
vn -0.1301 0.9915 -0.0000
vn -0.1301 -0.9915 -0.0000
vn -0.0000 -0.0000 1.0000
vn -0.1179 -0.9930 -0.0000
vn -0.0000 -0.9915 -0.1301
vn 0.1179 0.9930 -0.0000
vn -0.1179 0.9930 -0.0000
vn -0.0000 0.9915 -0.1301
vn 0.1179 -0.9930 -0.0000
vn -0.0000 -0.9915 0.1301
vn -0.0000 0.9915 0.1301
vn 0.0002 -0.0000 -1.0000
vn -0.0000 -1.0000 -0.0000
vn -0.0000 1.0000 -0.0000
vn -0.3743 -0.0000 -0.9273
vn -0.9985 -0.0000 -0.0554
vn -0.4450 -0.0000 -0.8955
vn 0.9973 -0.0000 -0.0740
vn 0.5178 -0.0000 -0.8555
vn 0.2694 -0.0000 0.9630
vn 0.9978 -0.0000 0.0666
vn -0.5985 -0.0000 0.8011
vn 0.3743 -0.0000 -0.9273
vn -0.9993 -0.0000 0.0362
vn 0.0467 -0.0000 0.9989
vn 0.9993 -0.0000 0.0362
vn -0.0467 -0.0000 0.9989
vn -0.9993 -0.0000 -0.0362
vn 0.0467 -0.0000 -0.9989
vn 0.9993 -0.0000 -0.0362
vn -0.0467 -0.0000 -0.9989
vn 0.9939 -0.0000 -0.1104
vn 0.9930 -0.1180 -0.0000
vn -0.9939 -0.0000 0.1104
vn -0.9939 -0.0000 -0.1104
vn -0.9930 -0.1180 -0.0000
vn 0.9939 -0.0000 0.1104
vn 0.9930 0.1180 -0.0000
vn -0.9930 0.1180 -0.0000
vn -0.0163 -0.9714 -0.2368
vn 0.0011 -0.9999 0.0167
vn -0.7042 -0.7070 0.0652
vn -0.7016 -0.6869 -0.1896
vn -0.9964 -0.0000 0.0853
vn -0.9854 -0.0000 -0.1700
vn -0.7042 0.7070 0.0652
vn -0.7016 0.6869 -0.1896
vn 0.0011 0.9999 0.0167
vn -0.0163 0.9714 -0.2368
vn 0.7065 0.7070 -0.0319
vn 0.6690 0.6869 -0.2840
vn 0.9986 -0.0000 -0.0520
vn 0.9528 -0.0000 -0.3035
vn 0.7065 -0.7070 -0.0319
vn 0.6690 -0.6869 -0.2840
vn -0.0559 -0.5810 -0.8120
vn -0.4657 -0.4108 -0.7838
vn -0.6355 -0.0000 -0.7721
vn -0.4658 0.4108 -0.7838
vn -0.0559 0.5810 -0.8120
vn 0.3539 0.4108 -0.8402
vn 0.5237 -0.0000 -0.8519
vn 0.3539 -0.4108 -0.8402
vn 0.0163 -0.9714 -0.2368
vn 0.7016 -0.6869 -0.1896
vn 0.7042 -0.7070 0.0652
vn -0.0011 -0.9999 0.0167
vn 0.9854 -0.0000 -0.1700
vn 0.9964 -0.0000 0.0853
vn 0.7016 0.6869 -0.1896
vn 0.7042 0.7070 0.0652
vn 0.0163 0.9714 -0.2368
vn -0.0011 0.9999 0.0167
vn -0.6690 0.6869 -0.2840
vn -0.7065 0.7070 -0.0319
vn -0.9528 -0.0000 -0.3035
vn -0.9986 -0.0000 -0.0520
vn -0.6690 -0.6869 -0.2840
vn -0.7065 -0.7070 -0.0319
vn 0.0559 -0.5810 -0.8120
vn -0.3539 -0.4108 -0.8402
vn -0.5237 -0.0000 -0.8519
vn -0.3539 0.4108 -0.8402
vn 0.0559 0.5810 -0.8120
vn 0.4658 0.4108 -0.7838
vn 0.6355 -0.0000 -0.7721
vn 0.4657 -0.4108 -0.7838
vn -0.0163 -0.9714 0.2368
vn -0.7016 -0.6869 0.1896
vn -0.7042 -0.7070 -0.0652
vn 0.0011 -0.9999 -0.0167
vn -0.9854 -0.0000 0.1700
vn -0.9964 -0.0000 -0.0853
vn -0.7016 0.6869 0.1896
vn -0.7042 0.7070 -0.0652
vn -0.0163 0.9714 0.2368
vn 0.0011 0.9999 -0.0167
vn 0.6690 0.6869 0.2840
vn 0.7065 0.7070 0.0319
vn 0.9528 -0.0000 0.3035
vn 0.9986 -0.0000 0.0520
vn 0.6690 -0.6869 0.2840
vn 0.7065 -0.7070 0.0319
vn -0.0559 -0.5810 0.8120
vn 0.3539 -0.4108 0.8402
vn 0.5237 -0.0000 0.8519
vn 0.3539 0.4108 0.8402
vn -0.0559 0.5810 0.8120
vn -0.4658 0.4108 0.7838
vn -0.6355 -0.0000 0.7721
vn -0.4657 -0.4108 0.7838
vn 0.0163 -0.9714 0.2368
vn -0.0011 -0.9999 -0.0167
vn 0.7042 -0.7070 -0.0652
vn 0.7016 -0.6869 0.1896
vn 0.9964 -0.0000 -0.0853
vn 0.9854 -0.0000 0.1700
vn 0.7042 0.7070 -0.0652
vn 0.7016 0.6869 0.1896
vn -0.0011 0.9999 -0.0167
vn 0.0163 0.9714 0.2368
vn -0.7065 0.7070 0.0319
vn -0.6690 0.6869 0.2840
vn -0.9986 -0.0000 0.0520
vn -0.9528 -0.0000 0.3035
vn -0.7065 -0.7070 0.0319
vn -0.6690 -0.6869 0.2840
vn 0.0559 -0.5810 0.8120
vn 0.4657 -0.4108 0.7838
vn 0.6355 -0.0000 0.7721
vn 0.4658 0.4108 0.7838
vn 0.0559 0.5810 0.8120
vn -0.3539 0.4108 0.8402
vn -0.5237 -0.0000 0.8519
vn -0.3539 -0.4108 0.8402
vn -0.0163 0.9714 -0.2367
vn -0.0163 -0.9714 -0.2367
vn 0.0011 -0.9999 0.0166
vn 0.9986 -0.0000 -0.0521
vn 0.6690 0.6869 -0.2839
vn 0.3540 0.4109 -0.8402
vn 0.3540 -0.4109 -0.8402
vn -0.4658 -0.4109 -0.7837
vn -0.4658 0.4109 -0.7837
vn 0.0163 0.9714 -0.2367
vn -0.0011 -0.9999 0.0166
vn 0.0163 -0.9714 -0.2367
vn -0.9986 -0.0000 -0.0521
vn -0.6690 0.6869 -0.2839
vn 0.4658 0.4109 -0.7837
vn 0.4658 -0.4109 -0.7837
vn -0.3540 -0.4109 -0.8402
vn -0.3540 0.4109 -0.8402
vn -0.0163 0.9714 0.2367
vn 0.0011 -0.9999 -0.0166
vn -0.0163 -0.9714 0.2367
vn 0.9986 -0.0000 0.0521
vn 0.6690 0.6869 0.2839
vn -0.4658 0.4109 0.7837
vn -0.4658 -0.4109 0.7837
vn 0.3540 -0.4109 0.8402
vn 0.3540 0.4109 0.8402
vn 0.0163 0.9714 0.2367
vn 0.0163 -0.9714 0.2367
vn -0.0011 -0.9999 -0.0166
vn -0.9986 -0.0000 0.0521
vn -0.6690 0.6869 0.2839
vn -0.3540 0.4109 0.8402
vn -0.3540 -0.4109 0.8402
vn 0.4658 -0.4109 0.7837
vn 0.4658 0.4109 0.7837
vn 0.2373 -0.9714 -0.0020
vn -0.0167 -0.9999 0.0002
vn -0.0227 -0.7070 -0.7068
vn 0.2315 -0.6869 -0.6889
vn -0.0252 -0.0000 -0.9997
vn 0.2290 -0.0000 -0.9734
vn -0.0227 0.7070 -0.7068
vn 0.2315 0.6869 -0.6889
vn -0.0167 0.9999 0.0002
vn 0.2373 0.9714 -0.0020
vn -0.0107 0.7070 0.7071
vn 0.2432 0.6869 0.6848
vn -0.0082 -0.0000 1.0000
vn 0.2456 -0.0000 0.9694
vn -0.0107 -0.7070 0.7071
vn 0.2432 -0.6869 0.6848
vn 0.8139 -0.5810 -0.0069
vn 0.8104 -0.4108 -0.4177
vn 0.8089 -0.0000 -0.5879
vn 0.8104 0.4108 -0.4177
vn 0.8139 0.5810 -0.0069
vn 0.8174 0.4108 0.4039
vn 0.8188 -0.0000 0.5740
vn 0.8174 -0.4108 0.4039
vn -0.2373 -0.9714 -0.0020
vn -0.2315 -0.6869 -0.6889
vn 0.0227 -0.7070 -0.7068
vn 0.0167 -0.9999 0.0002
vn -0.2290 -0.0000 -0.9734
vn 0.0252 -0.0000 -0.9997
vn -0.2315 0.6869 -0.6889
vn 0.0227 0.7070 -0.7068
vn -0.2373 0.9714 -0.0020
vn 0.0167 0.9999 0.0002
vn -0.2432 0.6869 0.6849
vn 0.0107 0.7070 0.7071
vn -0.2456 -0.0000 0.9694
vn 0.0082 -0.0000 1.0000
vn -0.2432 -0.6869 0.6848
vn 0.0107 -0.7070 0.7071
vn -0.8139 -0.5810 -0.0069
vn -0.8174 -0.4108 0.4039
vn -0.8188 -0.0000 0.5740
vn -0.8174 0.4108 0.4039
vn -0.8139 0.5810 -0.0069
vn -0.8104 0.4108 -0.4177
vn -0.8089 -0.0000 -0.5879
vn -0.8104 -0.4108 -0.4177
vn 0.2373 -0.9714 0.0020
vn 0.2315 -0.6869 0.6889
vn -0.0227 -0.7070 0.7068
vn -0.0167 -0.9999 -0.0002
vn 0.2290 -0.0000 0.9734
vn -0.0252 -0.0000 0.9997
vn 0.2315 0.6869 0.6889
vn -0.0227 0.7070 0.7068
vn 0.2373 0.9714 0.0020
vn -0.0167 0.9999 -0.0002
vn 0.2432 0.6869 -0.6848
vn -0.0107 0.7070 -0.7071
vn 0.2456 -0.0000 -0.9694
vn -0.0082 -0.0000 -1.0000
vn 0.2432 -0.6869 -0.6848
vn -0.0107 -0.7070 -0.7071
vn 0.8139 -0.5810 0.0069
vn 0.8174 -0.4108 -0.4039
vn 0.8188 -0.0000 -0.5740
vn 0.8174 0.4108 -0.4039
vn 0.8139 0.5810 0.0069
vn 0.8104 0.4108 0.4177
vn 0.8089 -0.0000 0.5879
vn 0.8104 -0.4108 0.4177
vn -0.2373 -0.9714 0.0020
vn 0.0167 -0.9999 -0.0002
vn 0.0227 -0.7070 0.7068
vn -0.2315 -0.6869 0.6889
vn 0.0252 -0.0000 0.9997
vn -0.2290 -0.0000 0.9734
vn 0.0227 0.7070 0.7068
vn -0.2315 0.6869 0.6889
vn 0.0167 0.9999 -0.0002
vn -0.2373 0.9714 0.0020
vn 0.0107 0.7070 -0.7071
vn -0.2432 0.6869 -0.6849
vn 0.0082 -0.0000 -1.0000
vn -0.2456 -0.0000 -0.9694
vn 0.0107 -0.7070 -0.7071
vn -0.2432 -0.6869 -0.6848
vn -0.8139 -0.5810 0.0069
vn -0.8104 -0.4108 0.4177
vn -0.8089 -0.0000 0.5879
vn -0.8104 0.4108 0.4177
vn -0.8139 0.5810 0.0069
vn -0.8174 0.4108 -0.4039
vn -0.8188 -0.0000 -0.5740
vn -0.8174 -0.4108 -0.4039
vn 0.2314 0.6869 -0.6889
vn -0.0166 -0.9999 0.0002
vn 0.2432 -0.6869 0.6849
vn -0.0106 -0.7070 0.7071
vn 0.2432 0.6869 0.6849
vn 0.8138 0.5810 -0.0069
vn 0.8174 0.4109 0.4039
vn 0.8174 -0.4109 0.4039
vn 0.8138 -0.5810 -0.0069
vn 0.8104 -0.4109 -0.4178
vn 0.8104 0.4109 -0.4178
vn -0.2314 0.6869 -0.6889
vn 0.0166 -0.9999 0.0002
vn 0.0106 -0.7070 0.7071
vn -0.2432 -0.6869 0.6849
vn -0.8138 0.5810 -0.0069
vn -0.8104 0.4109 -0.4178
vn -0.8104 -0.4109 -0.4178
vn -0.8138 -0.5810 -0.0069
vn -0.8174 -0.4109 0.4039
vn -0.8174 0.4109 0.4039
vn 0.2314 0.6869 0.6889
vn -0.0166 -0.9999 -0.0002
vn -0.0106 -0.7070 -0.7071
vn 0.2432 -0.6869 -0.6849
vn 0.2432 0.6869 -0.6849
vn 0.8138 0.5810 0.0069
vn 0.8104 0.4109 0.4178
vn 0.8104 -0.4109 0.4178
vn 0.8138 -0.5810 0.0069
vn 0.8174 -0.4109 -0.4039
vn 0.8174 0.4109 -0.4039
vn -0.2314 0.6869 0.6889
vn 0.0166 -0.9999 -0.0002
vn -0.2432 -0.6869 -0.6849
vn 0.0106 -0.7070 -0.7071
vn -0.8138 0.5810 0.0069
vn -0.8174 0.4109 -0.4039
vn -0.8174 -0.4109 -0.4039
vn -0.8138 -0.5810 0.0069
vn -0.8104 -0.4109 0.4178
vn -0.8104 0.4109 0.4178
vn 0.2869 -0.2261 -0.9309
vn -0.2869 -0.2261 -0.9309
vn -0.3885 0.3706 -0.8436
vn 0.3885 0.3706 -0.8436
vn 0.8525 0.1608 -0.4973
vn 0.5760 -0.4517 -0.6813
vn -0.9742 0.1610 -0.1583
vn -0.8525 0.1608 -0.4973
vn -0.5760 -0.4518 -0.6813
vn -0.5254 -0.6113 -0.5918
vn 0.5962 0.7242 0.3466
vn -0.5962 0.7242 0.3466
vn -0.3962 0.7612 0.5134
vn 0.3962 0.7612 0.5134
vn 0.5254 -0.6112 -0.5919
vn 0.9742 0.1610 -0.1584
vn 0.8506 0.5009 -0.1599
vn -0.8506 0.5009 -0.1599
vn -0.2827 0.9307 0.2322
vn -0.3877 0.8443 -0.3700
vn 0.2828 0.9307 0.2322
vn 0.3877 0.8443 -0.3700
vn 0.2013 0.8139 -0.5450
vn 0.2996 0.5022 -0.8112
vn -0.3618 0.5022 -0.7855
vn -0.2431 0.8139 -0.5277
vn -0.8112 0.5022 -0.2996
vn -0.5450 0.8139 -0.2013
vn -0.7855 0.5021 0.3618
vn -0.5277 0.8139 0.2431
vn -0.2996 0.5021 0.8112
vn -0.2013 0.8139 0.5450
vn 0.3618 0.5021 0.7854
vn 0.2431 0.8139 0.5277
vn 0.8112 0.5022 0.2996
vn 0.5450 0.8139 0.2012
vn 0.7855 0.5022 -0.3618
vn 0.5277 0.8139 -0.2431
vn 0.2013 -0.5450 -0.8139
vn 0.2996 -0.8112 -0.5021
vn -0.3618 -0.7855 -0.5021
vn -0.2431 -0.5277 -0.8139
vn -0.8112 -0.2996 -0.5021
vn -0.5450 -0.2013 -0.8139
vn -0.7855 0.3618 -0.5021
vn -0.5277 0.2431 -0.8139
vn -0.2996 0.8113 -0.5021
vn -0.2013 0.5450 -0.8139
vn 0.3618 0.7855 -0.5021
vn 0.2431 0.5277 -0.8139
vn 0.8113 0.2996 -0.5021
vn 0.5450 0.2013 -0.8139
vn 0.7855 -0.3618 -0.5021
vn 0.5277 -0.2431 -0.8139
vn 0.2869 0.2261 -0.9309
vn 0.3885 -0.3706 -0.8436
vn -0.3885 -0.3706 -0.8436
vn -0.2869 0.2261 -0.9309
vn 0.5760 0.4518 -0.6812
vn 0.8525 -0.1608 -0.4973
vn -0.9742 -0.1610 -0.1583
vn -0.5255 0.6113 -0.5918
vn -0.5760 0.4518 -0.6812
vn -0.8526 -0.1608 -0.4973
vn 0.5962 -0.7241 0.3466
vn 0.3962 -0.7612 0.5134
vn -0.3962 -0.7612 0.5134
vn -0.5962 -0.7241 0.3466
vn 0.5255 0.6113 -0.5918
vn 0.9742 -0.1610 -0.1583
vn 0.8507 -0.5008 -0.1599
vn -0.8507 -0.5008 -0.1599
vn -0.2828 -0.9307 0.2322
vn -0.3877 -0.8443 -0.3700
vn 0.2828 -0.9307 0.2322
vn 0.3877 -0.8443 -0.3700
vn 0.2012 -0.8139 -0.5450
vn -0.2431 -0.8139 -0.5277
vn -0.3618 -0.5021 -0.7855
vn 0.2995 -0.5021 -0.8113
vn -0.5450 -0.8139 -0.2013
vn -0.8112 -0.5021 -0.2996
vn -0.5277 -0.8139 0.2431
vn -0.7855 -0.5021 0.3618
vn -0.2013 -0.8139 0.5450
vn -0.2996 -0.5021 0.8113
vn 0.2431 -0.8139 0.5277
vn 0.3618 -0.5021 0.7855
vn 0.5450 -0.8139 0.2013
vn 0.8113 -0.5021 0.2996
vn 0.5277 -0.8139 -0.2431
vn 0.7855 -0.5021 -0.3618
vn 0.2013 0.5450 -0.8139
vn -0.2431 0.5277 -0.8139
vn -0.3618 0.7855 -0.5021
vn 0.2996 0.8113 -0.5021
vn -0.5450 0.2013 -0.8139
vn -0.8113 0.2996 -0.5021
vn -0.5277 -0.2431 -0.8139
vn -0.7855 -0.3618 -0.5021
vn -0.2013 -0.5450 -0.8139
vn -0.2995 -0.8112 -0.5021
vn 0.2431 -0.5277 -0.8139
vn 0.3618 -0.7854 -0.5021
vn 0.5450 -0.2013 -0.8139
vn 0.8112 -0.2996 -0.5021
vn 0.5277 0.2431 -0.8139
vn 0.7855 0.3618 -0.5021
vn 0.2869 -0.2261 0.9309
vn 0.3884 0.3706 0.8437
vn -0.3884 0.3706 0.8437
vn -0.2869 -0.2261 0.9309
vn 0.5760 -0.4517 0.6813
vn 0.8525 0.1608 0.4973
vn -0.9742 0.1610 0.1583
vn -0.5254 -0.6113 0.5918
vn -0.5760 -0.4517 0.6813
vn -0.8525 0.1608 0.4974
vn 0.5962 0.7242 -0.3466
vn 0.3962 0.7612 -0.5134
vn -0.3962 0.7612 -0.5134
vn -0.5962 0.7242 -0.3466
vn 0.5254 -0.6113 0.5918
vn 0.9742 0.1610 0.1583
vn 0.8506 0.5009 0.1599
vn -0.8506 0.5009 0.1599
vn -0.2827 0.9307 -0.2322
vn -0.3876 0.8443 0.3700
vn 0.2827 0.9307 -0.2322
vn 0.3877 0.8443 0.3700
vn 0.2013 0.8139 0.5450
vn -0.2431 0.8139 0.5277
vn -0.3618 0.5022 0.7854
vn 0.2996 0.5022 0.8112
vn -0.5450 0.8139 0.2013
vn -0.8113 0.5021 0.2996
vn -0.5277 0.8139 -0.2431
vn -0.7855 0.5021 -0.3618
vn -0.2013 0.8139 -0.5450
vn -0.2996 0.5021 -0.8112
vn 0.2431 0.8139 -0.5277
vn 0.3618 0.5021 -0.7854
vn 0.5450 0.8139 -0.2012
vn 0.8112 0.5022 -0.2996
vn 0.5277 0.8139 0.2430
vn 0.7854 0.5022 0.3618
vn 0.2013 -0.5451 0.8139
vn -0.2431 -0.5277 0.8139
vn -0.3618 -0.7855 0.5021
vn 0.2996 -0.8113 0.5021
vn -0.5450 -0.2013 0.8139
vn -0.8113 -0.2996 0.5021
vn -0.5277 0.2431 0.8139
vn -0.7855 0.3618 0.5021
vn -0.2013 0.5450 0.8139
vn -0.2996 0.8113 0.5021
vn 0.2431 0.5277 0.8139
vn 0.3618 0.7855 0.5021
vn 0.5451 0.2013 0.8139
vn 0.8113 0.2996 0.5021
vn 0.5277 -0.2431 0.8139
vn 0.7855 -0.3618 0.5021
vn 0.2869 0.2261 0.9309
vn -0.2869 0.2261 0.9309
vn -0.3885 -0.3706 0.8436
vn 0.3885 -0.3706 0.8436
vn 0.8525 -0.1608 0.4973
vn 0.5760 0.4518 0.6813
vn -0.9742 -0.1610 0.1583
vn -0.8526 -0.1608 0.4973
vn -0.5760 0.4518 0.6812
vn -0.5255 0.6113 0.5918
vn 0.5962 -0.7242 -0.3466
vn -0.5962 -0.7241 -0.3466
vn -0.3962 -0.7612 -0.5134
vn 0.3962 -0.7612 -0.5134
vn 0.5255 0.6113 0.5918
vn 0.9742 -0.1610 0.1584
vn 0.8506 -0.5008 0.1599
vn -0.8507 -0.5008 0.1599
vn -0.2828 -0.9307 -0.2322
vn -0.3877 -0.8443 0.3700
vn 0.2828 -0.9307 -0.2322
vn 0.3877 -0.8443 0.3700
vn 0.2013 -0.8139 0.5450
vn 0.2995 -0.5021 0.8113
vn -0.3618 -0.5021 0.7855
vn -0.2431 -0.8139 0.5277
vn -0.8113 -0.5021 0.2996
vn -0.5450 -0.8139 0.2013
vn -0.7855 -0.5021 -0.3618
vn -0.5277 -0.8139 -0.2431
vn -0.2996 -0.5021 -0.8113
vn -0.2013 -0.8139 -0.5450
vn 0.3619 -0.5021 -0.7855
vn 0.2431 -0.8139 -0.5277
vn 0.8113 -0.5021 -0.2996
vn 0.5450 -0.8139 -0.2012
vn 0.7855 -0.5021 0.3618
vn 0.5277 -0.8139 0.2431
vn 0.2013 0.5450 0.8139
vn 0.2996 0.8113 0.5021
vn -0.3618 0.7855 0.5021
vn -0.2431 0.5277 0.8139
vn -0.8113 0.2996 0.5021
vn -0.5450 0.2013 0.8139
vn -0.7855 -0.3618 0.5021
vn -0.5277 -0.2431 0.8139
vn -0.2995 -0.8113 0.5021
vn -0.2013 -0.5450 0.8139
vn 0.3618 -0.7855 0.5021
vn 0.2431 -0.5277 0.8139
vn 0.8113 -0.2996 0.5021
vn 0.5451 -0.2013 0.8139
vn 0.7855 0.3618 0.5021
vn 0.5277 0.2431 0.8139
vn -0.5760 -0.4517 -0.6813
vn 0.9742 0.1610 -0.1583
vn 0.5254 -0.6113 -0.5918
vn -0.5254 -0.6112 -0.5919
vn -0.9742 0.1610 -0.1584
vn 0.2827 0.9307 0.2322
vn 0.3618 0.5021 -0.7855
vn -0.2995 0.5022 -0.8112
vn 0.5450 0.8139 -0.2013
vn 0.8112 0.5021 -0.2995
vn 0.5277 0.8139 0.2431
vn 0.7855 0.5021 0.3618
vn 0.2996 0.5021 0.8112
vn -0.3618 0.5021 0.7854
vn -0.5450 0.8139 0.2012
vn -0.8112 0.5022 0.2996
vn -0.7854 0.5022 -0.3618
vn 0.3618 -0.7855 -0.5021
vn -0.2996 -0.8113 -0.5021
vn 0.8113 -0.2996 -0.5021
vn -0.5451 0.2013 -0.8139
vn 0.3884 -0.3706 -0.8437
vn -0.3884 -0.3706 -0.8437
vn -0.8525 -0.1608 -0.4974
vn -0.8506 -0.5009 -0.1599
vn 0.8506 -0.5009 -0.1599
vn 0.2827 -0.9307 0.2322
vn -0.2827 -0.9307 0.2322
vn -0.2996 -0.5022 -0.8112
vn 0.3618 -0.5022 -0.7854
vn 0.5450 -0.8139 -0.2013
vn 0.2996 -0.5021 0.8112
vn -0.8112 -0.5022 0.2996
vn -0.5450 -0.8139 0.2012
vn -0.7854 -0.5022 -0.3618
vn 0.2996 -0.8113 -0.5021
vn 0.2013 -0.5451 -0.8139
vn -0.8113 -0.2996 -0.5021
vn -0.5451 -0.2013 -0.8139
vn 0.3885 0.3706 0.8436
vn -0.3885 0.3706 0.8436
vn -0.8525 0.1608 0.4973
vn -0.5760 -0.4518 0.6813
vn 0.5760 -0.4518 0.6813
vn -0.5255 -0.6112 0.5918
vn -0.9742 0.1610 0.1584
vn -0.3877 0.8443 0.3700
vn -0.2012 0.8139 0.5450
vn -0.2995 0.5022 0.8112
vn 0.3618 0.5022 0.7854
vn 0.5450 0.8139 0.2013
vn 0.7855 0.5021 -0.3618
vn 0.2995 0.5021 -0.8112
vn -0.3618 0.5021 -0.7854
vn -0.7854 0.5022 0.3618
vn -0.2996 -0.8112 0.5021
vn 0.8112 -0.2996 0.5021
vn 0.5450 -0.2013 0.8139
vn -0.8112 0.2996 0.5022
vn -0.5760 0.4518 0.6813
vn -0.8525 -0.1608 0.4973
vn 0.9742 -0.1610 0.1583
vn 0.5760 0.4518 0.6812
vn 0.8526 -0.1608 0.4973
vn -0.5962 -0.7242 -0.3466
vn 0.5962 -0.7241 -0.3466
vn -0.9742 -0.1610 0.1584
vn -0.8506 -0.5008 0.1599
vn 0.8507 -0.5008 0.1599
vn 0.3618 -0.5022 0.7855
vn -0.2996 -0.5022 0.8112
vn 0.8112 -0.5022 0.2996
vn 0.2013 -0.8139 -0.5450
vn 0.2996 -0.5021 -0.8112
vn -0.5450 -0.8139 -0.2012
vn -0.8112 -0.5022 -0.2996
vn -0.7854 -0.5022 0.3618
vn -0.2996 0.8112 0.5021
vn 0.5450 0.2013 0.8139
vn 0.2013 -0.5450 0.8139
vn -0.8112 -0.2996 0.5021
vt 0.006957 0.264812
vt 0.546121 0.264812
vt 0.546121 0.384742
vt 0.006957 0.384742
vt 0.134676 0.974306
vt 0.176378 0.929208
vt 0.836461 0.929208
vt 0.878163 0.974306
vt 0.003621 0.823474
vt 0.996379 0.823474
vt 0.996379 0.923108
vt 0.003621 0.923108
vt 0.065272 0.929281
vt 0.987126 0.929281
vt 0.930274 0.969867
vt 0.122124 0.969867
vt 0.836460 0.929208
vt 0.065272 0.930523
vt 0.987126 0.930523
vt 0.930274 0.971109
vt 0.122124 0.971109
vt 0.005318 0.163702
vt 0.027628 0.163702
vt 0.027628 0.255596
vt 0.005318 0.255596
vt 0.997742 0.927491
vt 0.997742 0.970900
vt 0.003992 0.970900
vt 0.003993 0.927492
vt 0.005318 0.160420
vt 0.027628 0.160420
vt 0.003992 0.971161
vt 0.003993 0.927752
vt 0.997742 0.927752
vt 0.997742 0.971161
vt 0.226390 0.775505
vt 0.466969 0.775505
vt 0.466969 0.815602
vt 0.226390 0.815602
vt 0.006957 0.380606
vt 0.546121 0.380606
vt 0.546121 0.268877
vt 0.006957 0.268877
vt 0.546121 0.269893
vt 0.006957 0.269893
vt 0.226390 0.613737
vt 0.466969 0.613737
vt 0.466969 0.615120
vt 0.226390 0.615120
vt 0.466969 0.655216
vt 0.226390 0.655216
vt 0.226390 0.656575
vt 0.466969 0.656575
vt 0.466969 0.695312
vt 0.226390 0.695312
vt 0.466969 0.735409
vt 0.226390 0.735409
vt 0.226390 0.773806
vt 0.466969 0.773806
vt 0.005318 0.252370
vt 0.027628 0.252370
vt 0.027628 0.164453
vt 0.005318 0.164453
vt 0.027628 0.251563
vt 0.005318 0.251563
vt 0.226390 0.575023
vt 0.466969 0.575023
vt 0.999522 0.922382
vt -0.000403 0.922383
vt -0.000403 0.826323
vt 0.999522 0.826323
vt -0.000403 0.826471
vt 0.999522 0.826471
vt 0.999522 0.922383
vt -0.000402 0.922383
vt 0.999982 0.971756
vt 0.000018 0.971756
vt 0.000018 0.931151
vt 0.999982 0.931151
vt 0.000019 0.929031
vt 0.999981 0.929031
vt 0.999981 0.971755
vt 0.000019 0.971755
vt 0.909447 0.795966
vt 0.917526 0.792502
vt 0.918778 0.818004
vt 0.910002 0.814674
vt 0.900660 0.837625
vt 0.897208 0.829093
vt 0.874915 0.838403
vt 0.878188 0.829888
vt 0.854798 0.820563
vt 0.863655 0.816712
vt 0.854798 0.792746
vt 0.863466 0.796762
vt 0.874128 0.774197
vt 0.877117 0.782940
vt 0.899960 0.774995
vt 0.896124 0.783163
vt 0.901367 0.799431
vt 0.901226 0.811344
vt 0.893756 0.820560
vt 0.881460 0.821373
vt 0.872512 0.812862
vt 0.872134 0.800778
vt 0.880106 0.791683
vt 0.892288 0.791330
vt 0.878276 0.317084
vt 0.960307 0.318993
vt 0.955311 0.408745
vt 0.883047 0.405737
vt 0.874298 0.404423
vt 0.870007 0.308064
vt 0.982622 0.413141
vt 0.964045 0.407490
vt 0.968502 0.310370
vt 0.984109 0.291255
vt 0.868545 0.513779
vt 0.969767 0.515600
vt 0.985554 0.538353
vt 0.852227 0.538353
vt 0.854981 0.290671
vt 0.855592 0.410002
vt 0.874131 0.415522
vt 0.964073 0.418569
vt 0.961375 0.506867
vt 0.955633 0.417187
vt 0.876942 0.505156
vt 0.882555 0.414177
vt 0.930197 0.463758
vt 0.936661 0.461137
vt 0.937422 0.476631
vt 0.930079 0.473730
vt 0.926414 0.488551
vt 0.923826 0.481444
vt 0.910772 0.489024
vt 0.913535 0.482124
vt 0.898550 0.478185
vt 0.906046 0.475001
vt 0.898550 0.461285
vt 0.905729 0.464886
vt 0.910294 0.450016
vt 0.912402 0.457273
vt 0.925989 0.450500
vt 0.922598 0.456978
vt 0.913673 0.345115
vt 0.906948 0.338893
vt 0.920654 0.332755
vt 0.922237 0.341889
vt 0.935279 0.338487
vt 0.930917 0.344661
vt 0.941210 0.352428
vt 0.934932 0.353233
vt 0.935736 0.367265
vt 0.931340 0.362012
vt 0.920494 0.373212
vt 0.922799 0.365657
vt 0.906197 0.366587
vt 0.914065 0.362491
vt 0.901111 0.352261
vt 0.910411 0.353873
s 1
usemtl MI_Trim_Furniture.001
f 3/1/1 2/2/1 1/3/1 4/4/1
f 9/5/2 13/6/2 5/7/2 1/8/2
f 11/9/3 3/10/3 4/11/3 12/12/3
f 4/13/4 1/14/4 5/15/4 8/16/4
f 11/5/5 15/6/5 7/17/5 3/8/5
f 6/7/6 14/6/6 10/5/6 2/8/6
f 2/18/7 3/19/7 7/20/7 6/21/7
f 8/7/8 16/6/8 12/5/8 4/8/8
f 11/1/9 12/4/9 9/3/9 10/2/9
f 12/13/10 16/16/10 13/15/10 9/14/10
f 10/18/11 14/21/11 15/20/11 11/19/11
f 9/9/12 1/10/12 2/11/12 10/12/12
f 19/1/12 20/4/12 17/3/12 18/2/12
f 25/5/13 17/8/13 21/7/13 29/6/13
f 27/9/1 28/12/1 20/11/1 19/10/1
f 20/13/14 24/16/14 21/15/14 17/14/14
f 27/5/15 19/8/15 23/17/15 31/6/15
f 22/7/16 18/8/16 26/5/16 30/6/16
f 18/18/17 22/21/17 23/20/17 19/19/17
f 24/7/18 20/8/18 28/5/18 32/6/18
f 27/1/3 26/2/3 25/3/3 28/4/3
f 28/13/19 25/14/19 29/15/19 32/16/19
f 26/18/20 27/19/20 31/20/20 30/21/20
f 25/9/9 26/12/9 18/11/9 17/10/9
f 71/22/9 69/23/9 36/24/9 35/25/9
f 35/26/12 36/27/12 40/28/12 39/29/12
f 51/30/1 60/31/1 38/24/1 37/25/1
f 37/32/21 38/33/21 34/34/21 33/35/21
f 45/36/22 51/37/22 37/38/22 33/39/22
f 60/1/23 46/2/23 34/3/23 38/4/23
f 72/40/23 69/41/23 50/3/23 56/4/23
f 56/1/23 50/2/23 49/3/23 57/4/23
f 68/42/23 66/43/23 48/4/23 58/3/23
f 58/1/23 48/2/23 47/3/23 59/4/23
f 64/44/23 62/45/23 46/1/23 60/2/23
f 71/46/22 70/47/22 55/48/22 41/49/22
f 41/49/22 55/48/22 54/50/22 42/51/22
f 65/52/22 67/53/22 53/54/22 43/55/22
f 43/55/22 53/54/22 52/56/22 44/57/22
f 61/58/22 63/59/22 51/37/22 45/36/22
f 70/22/24 72/23/24 56/31/24 55/30/24
f 55/24/1 56/25/1 57/30/1 54/31/1
f 67/60/25 68/61/25 58/31/25 53/30/25
f 53/31/1 58/30/1 59/25/1 52/24/1
f 63/62/26 64/63/26 60/30/26 51/31/26
f 33/25/27 34/24/27 46/31/27 45/30/27
f 61/64/9 62/65/9 47/30/9 44/31/9
f 44/25/9 47/24/9 48/31/9 43/30/9
f 65/61/28 66/60/28 49/25/28 42/24/28
f 42/24/9 49/25/9 50/30/9 41/31/9
f 45/24/29 46/25/29 62/65/29 61/64/29
f 52/24/1 59/25/1 64/63/1 63/62/1
f 44/57/22 52/56/22 63/59/22 61/58/22
f 59/3/23 47/4/23 62/45/23 64/44/23
f 43/31/30 48/30/30 66/60/30 65/61/30
f 54/25/31 57/24/31 68/61/31 67/60/31
f 42/51/22 54/50/22 67/53/22 65/52/22
f 57/2/23 49/1/23 66/43/23 68/42/23
f 39/25/1 40/24/1 72/23/1 70/22/1
f 35/66/22 39/67/22 70/47/22 71/46/22
f 40/1/23 36/2/23 69/41/23 72/40/23
f 41/30/32 50/31/32 69/23/32 71/22/32
f 111/22/9 75/25/9 76/24/9 109/23/9
f 75/26/12 79/29/12 80/28/12 76/27/12
f 91/30/1 77/25/1 78/24/1 100/31/1
f 77/32/21 73/35/21 74/34/21 78/33/21
f 85/36/23 73/39/23 77/38/23 91/37/23
f 100/1/22 78/4/22 74/3/22 86/2/22
f 112/40/22 96/4/22 90/3/22 109/41/22
f 96/1/22 97/4/22 89/3/22 90/2/22
f 108/42/22 98/3/22 88/4/22 106/43/22
f 98/1/22 99/4/22 87/3/22 88/2/22
f 104/44/22 100/2/22 86/1/22 102/45/22
f 111/46/23 81/49/23 95/48/23 110/47/23
f 81/49/23 82/51/23 94/50/23 95/48/23
f 105/52/23 83/55/23 93/54/23 107/53/23
f 83/55/23 84/57/23 92/56/23 93/54/23
f 101/58/23 85/36/23 91/37/23 103/59/23
f 110/22/24 95/30/24 96/31/24 112/23/24
f 95/24/1 94/31/1 97/30/1 96/25/1
f 107/60/25 93/30/25 98/31/25 108/61/25
f 93/31/1 92/24/1 99/25/1 98/30/1
f 103/62/26 91/31/26 100/30/26 104/63/26
f 73/25/27 85/30/27 86/31/27 74/24/27
f 101/64/9 84/31/9 87/30/9 102/65/9
f 84/25/9 83/30/9 88/31/9 87/24/9
f 105/61/28 82/24/28 89/25/28 106/60/28
f 82/24/9 81/31/9 90/30/9 89/25/9
f 85/24/29 101/64/29 102/65/29 86/25/29
f 92/24/1 103/62/1 104/63/1 99/25/1
f 84/57/23 101/58/23 103/59/23 92/56/23
f 99/3/22 104/44/22 102/45/22 87/4/22
f 83/31/30 105/61/30 106/60/30 88/30/30
f 94/25/31 107/60/31 108/61/31 97/24/31
f 82/51/23 105/52/23 107/53/23 94/50/23
f 97/2/22 108/42/22 106/43/22 89/1/22
f 79/25/1 110/22/1 112/23/1 80/24/1
f 75/66/23 111/46/23 110/47/23 79/67/23
f 80/1/22 112/40/22 109/41/22 76/2/22
f 81/30/32 111/22/32 109/23/32 90/31/32
f 117/68/3 118/69/3 114/70/3 113/71/3
f 113/72/9 114/73/9 116/74/9 115/75/9
f 118/76/33 117/77/33 121/78/33 122/79/33
f 115/80/34 116/81/34 120/82/34 119/83/34
f 127/68/3 123/71/3 124/70/3 128/69/3
f 123/72/1 125/75/1 126/74/1 124/73/1
f 128/76/35 132/79/35 131/78/35 127/77/35
f 125/80/36 129/83/36 130/82/36 126/81/36
f 137/68/12 133/71/12 134/70/12 138/69/12
f 133/72/9 135/75/9 136/74/9 134/73/9
f 138/76/37 142/79/37 141/78/37 137/77/37
f 135/80/38 139/83/38 140/82/38 136/81/38
f 147/68/12 148/69/12 144/70/12 143/71/12
f 143/72/1 144/73/1 146/74/1 145/75/1
f 148/76/39 147/77/39 151/78/39 152/79/39
f 145/80/40 146/81/40 150/82/40 149/83/40
f 166/1/9 157/2/9 153/3/9 155/4/9
f 156/1/9 154/2/9 161/3/9 162/4/9
f 162/1/9 161/2/9 160/3/9 163/4/9
f 163/2/9 160/1/9 159/4/9 164/3/9
f 164/1/9 159/2/9 158/3/9 165/4/9
f 165/3/9 158/4/9 157/1/9 166/2/9
f 180/1/12 169/4/12 167/3/12 171/2/12
f 170/1/12 176/4/12 175/3/12 168/2/12
f 176/1/12 177/4/12 174/3/12 175/2/12
f 177/2/12 178/3/12 173/4/12 174/1/12
f 178/1/12 179/4/12 172/3/12 173/2/12
f 179/3/12 180/2/12 171/1/12 172/4/12
f 194/1/3 183/4/3 181/3/3 185/2/3
f 184/1/3 190/4/3 189/3/3 182/2/3
f 190/1/3 191/4/3 188/3/3 189/2/3
f 191/2/3 192/3/3 187/4/3 188/1/3
f 192/1/3 193/4/3 186/3/3 187/2/3
f 193/3/3 194/2/3 185/1/3 186/4/3
f 208/1/1 199/2/1 195/3/1 197/4/1
f 198/1/1 196/2/1 203/3/1 204/4/1
f 204/1/1 203/2/1 202/3/1 205/4/1
f 205/2/1 202/1/1 201/4/1 206/3/1
f 206/1/1 201/2/1 200/3/1 207/4/1
f 207/3/1 200/4/1 199/1/1 208/2/1
f 211/1/23 210/2/23 209/3/23 212/4/23
f 217/5/41 221/6/41 213/7/41 209/8/41
f 219/9/3 211/10/3 212/11/3 220/12/3
f 212/13/42 209/14/42 213/15/42 216/16/42
f 219/5/43 223/6/43 215/17/43 211/8/43
f 214/7/44 222/6/44 218/5/44 210/8/44
f 210/18/45 211/19/45 215/20/45 214/21/45
f 216/7/46 224/6/46 220/5/46 212/8/46
f 219/1/22 220/4/22 217/3/22 218/2/22
f 220/13/47 224/16/47 221/15/47 217/14/47
f 218/18/48 222/21/48 223/20/48 219/19/48
f 217/9/12 209/10/12 210/11/12 218/12/12
f 227/1/23 228/4/23 225/3/23 226/2/23
f 233/5/44 225/8/44 229/7/44 237/6/44
f 235/9/3 236/12/3 228/11/3 227/10/3
f 228/13/45 232/16/45 229/15/45 225/14/45
f 235/5/46 227/8/46 231/17/46 239/6/46
f 230/7/41 226/8/41 234/5/41 238/6/41
f 226/18/42 230/21/42 231/20/42 227/19/42
f 232/7/43 228/8/43 236/5/43 240/6/43
f 235/1/22 234/2/22 233/3/22 236/4/22
f 236/13/48 233/14/48 237/15/48 240/16/48
f 234/18/47 235/19/47 239/20/47 238/21/47
f 233/9/12 234/12/12 226/11/12 225/10/12
usemtl MI_Trim_Metal.001
f 257/84/49 242/85/50 244/86/51 258/87/52
f 258/87/52 244/86/51 246/88/53 259/89/54
f 259/89/54 246/88/53 248/90/55 260/91/56
f 260/91/56 248/90/55 250/92/57 261/93/58
f 261/93/58 250/92/57 252/94/59 262/95/60
f 262/95/60 252/94/59 254/96/61 263/97/62
f 263/97/62 254/96/61 256/98/63 264/99/64
f 264/99/64 256/98/63 242/85/50 257/84/49
f 241/100/65 243/101/66 245/102/67 247/103/68 249/104/69 251/105/70 253/106/71 255/107/72
f 255/107/72 264/99/64 257/84/49 241/100/65
f 253/106/71 263/97/62 264/99/64 255/107/72
f 251/105/70 262/95/60 263/97/62 253/106/71
f 249/104/69 261/93/58 262/95/60 251/105/70
f 247/103/68 260/91/56 261/93/58 249/104/69
f 245/102/67 259/89/54 260/91/56 247/103/68
f 243/101/66 258/87/52 259/89/54 245/102/67
f 241/100/65 257/84/49 258/87/52 243/101/66
f 281/84/73 282/87/74 268/86/75 266/85/76
f 282/87/74 283/89/77 270/88/78 268/86/75
f 283/89/77 284/91/79 272/90/80 270/88/78
f 284/91/79 285/93/81 274/92/82 272/90/80
f 285/93/81 286/95/83 276/94/84 274/92/82
f 286/95/83 287/97/85 278/96/86 276/94/84
f 287/97/85 288/99/87 280/98/88 278/96/86
f 288/99/87 281/84/73 266/85/76 280/98/88
f 265/100/89 279/107/90 277/106/91 275/105/92 273/104/93 271/103/94 269/102/95 267/101/96
f 279/107/90 265/100/89 281/84/73 288/99/87
f 277/106/91 279/107/90 288/99/87 287/97/85
f 275/105/92 277/106/91 287/97/85 286/95/83
f 273/104/93 275/105/92 286/95/83 285/93/81
f 271/103/94 273/104/93 285/93/81 284/91/79
f 269/102/95 271/103/94 284/91/79 283/89/77
f 267/101/96 269/102/95 283/89/77 282/87/74
f 265/100/89 267/101/96 282/87/74 281/84/73
f 305/84/97 306/87/98 292/86/99 290/85/100
f 306/87/98 307/89/101 294/88/102 292/86/99
f 307/89/101 308/91/103 296/90/104 294/88/102
f 308/91/103 309/93/105 298/92/106 296/90/104
f 309/93/105 310/95/107 300/94/108 298/92/106
f 310/95/107 311/97/109 302/96/110 300/94/108
f 311/97/109 312/99/111 304/98/112 302/96/110
f 312/99/111 305/84/97 290/85/100 304/98/112
f 289/100/113 303/107/114 301/106/115 299/105/116 297/104/117 295/103/118 293/102/119 291/101/120
f 303/107/114 289/100/113 305/84/97 312/99/111
f 301/106/115 303/107/114 312/99/111 311/97/109
f 299/105/116 301/106/115 311/97/109 310/95/107
f 297/104/117 299/105/116 310/95/107 309/93/105
f 295/103/118 297/104/117 309/93/105 308/91/103
f 293/102/119 295/103/118 308/91/103 307/89/101
f 291/101/120 293/102/119 307/89/101 306/87/98
f 289/100/113 291/101/120 306/87/98 305/84/97
f 329/84/121 314/85/122 316/86/123 330/87/124
f 330/87/124 316/86/123 318/88/125 331/89/126
f 331/89/126 318/88/125 320/90/127 332/91/128
f 332/91/128 320/90/127 322/92/129 333/93/130
f 333/93/130 322/92/129 324/94/131 334/95/132
f 334/95/132 324/94/131 326/96/133 335/97/134
f 335/97/134 326/96/133 328/98/135 336/99/136
f 336/99/136 328/98/135 314/85/122 329/84/121
f 313/100/137 315/101/138 317/102/139 319/103/140 321/104/141 323/105/142 325/106/143 327/107/144
f 327/107/144 336/99/136 329/84/121 313/100/137
f 325/106/143 335/97/134 336/99/136 327/107/144
f 323/105/142 334/95/132 335/97/134 325/106/143
f 321/104/141 333/93/130 334/95/132 323/105/142
f 319/103/140 332/91/128 333/93/130 321/104/141
f 317/102/139 331/89/126 332/91/128 319/103/140
f 315/101/138 330/87/124 331/89/126 317/102/139
f 313/100/137 329/84/121 330/87/124 315/101/138
f 353/84/145 354/87/56 340/86/55 338/85/57
f 354/87/56 355/89/54 342/88/53 340/86/55
f 355/89/54 356/91/52 344/90/51 342/88/53
f 356/91/52 357/93/146 346/92/147 344/90/51
f 357/93/146 358/95/64 348/94/63 346/92/147
f 358/95/64 359/97/62 350/96/148 348/94/63
f 359/97/62 360/99/149 352/98/59 350/96/148
f 360/99/149 353/84/145 338/85/57 352/98/59
f 337/100/69 351/107/150 349/106/71 347/105/151 345/104/65 343/103/152 341/102/67 339/101/153
f 351/107/150 337/100/69 353/84/145 360/99/149
f 349/106/71 351/107/150 360/99/149 359/97/62
f 347/105/151 349/106/71 359/97/62 358/95/64
f 345/104/65 347/105/151 358/95/64 357/93/146
f 343/103/152 345/104/65 357/93/146 356/91/52
f 341/102/67 343/103/152 356/91/52 355/89/54
f 339/101/153 341/102/67 355/89/54 354/87/56
f 337/100/69 339/101/153 354/87/56 353/84/145
f 377/84/154 362/85/82 364/86/80 378/87/79
f 378/87/79 364/86/80 366/88/78 379/89/77
f 379/89/77 366/88/78 368/90/75 380/91/74
f 380/91/74 368/90/75 370/92/155 381/93/156
f 381/93/156 370/92/155 372/94/88 382/95/87
f 382/95/87 372/94/88 374/96/157 383/97/85
f 383/97/85 374/96/157 376/98/84 384/99/158
f 384/99/158 376/98/84 362/85/82 377/84/154
f 361/100/93 363/101/159 365/102/95 367/103/160 369/104/89 371/105/161 373/106/91 375/107/162
f 375/107/162 384/99/158 377/84/154 361/100/93
f 373/106/91 383/97/85 384/99/158 375/107/162
f 371/105/161 382/95/87 383/97/85 373/106/91
f 369/104/89 381/93/156 382/95/87 371/105/161
f 367/103/160 380/91/74 381/93/156 369/104/89
f 365/102/95 379/89/77 380/91/74 367/103/160
f 363/101/159 378/87/79 379/89/77 365/102/95
f 361/100/93 377/84/154 378/87/79 363/101/159
f 401/84/163 386/85/106 388/86/104 402/87/103
f 402/87/103 388/86/104 390/88/102 403/89/101
f 403/89/101 390/88/102 392/90/99 404/91/98
f 404/91/98 392/90/99 394/92/164 405/93/165
f 405/93/165 394/92/164 396/94/112 406/95/111
f 406/95/111 396/94/112 398/96/166 407/97/109
f 407/97/109 398/96/166 400/98/108 408/99/167
f 408/99/167 400/98/108 386/85/106 401/84/163
f 385/100/117 387/101/168 389/102/119 391/103/169 393/104/113 395/105/170 397/106/115 399/107/171
f 399/107/171 408/99/167 401/84/163 385/100/117
f 397/106/115 407/97/109 408/99/167 399/107/171
f 395/105/170 406/95/111 407/97/109 397/106/115
f 393/104/113 405/93/165 406/95/111 395/105/170
f 391/103/169 404/91/98 405/93/165 393/104/113
f 389/102/119 403/89/101 404/91/98 391/103/169
f 387/101/168 402/87/103 403/89/101 389/102/119
f 385/100/117 401/84/163 402/87/103 387/101/168
f 425/84/172 426/87/128 412/86/127 410/85/129
f 426/87/128 427/89/126 414/88/125 412/86/127
f 427/89/126 428/91/124 416/90/123 414/88/125
f 428/91/124 429/93/173 418/92/174 416/90/123
f 429/93/173 430/95/136 420/94/135 418/92/174
f 430/95/136 431/97/134 422/96/175 420/94/135
f 431/97/134 432/99/176 424/98/131 422/96/175
f 432/99/176 425/84/172 410/85/129 424/98/131
f 409/100/141 423/107/177 421/106/143 419/105/178 417/104/137 415/103/179 413/102/139 411/101/180
f 423/107/177 409/100/141 425/84/172 432/99/176
f 421/106/143 423/107/177 432/99/176 431/97/134
f 419/105/178 421/106/143 431/97/134 430/95/136
f 417/104/137 419/105/178 430/95/136 429/93/173
f 415/103/179 417/104/137 429/93/173 428/91/124
f 413/102/139 415/103/179 428/91/124 427/89/126
f 411/101/180 413/102/139 427/89/126 426/87/128
f 409/100/141 411/101/180 426/87/128 425/84/172
f 449/84/181 434/85/182 436/86/183 450/87/184
f 450/87/184 436/86/183 438/88/185 451/89/186
f 451/89/186 438/88/185 440/90/187 452/91/188
f 452/91/188 440/90/187 442/92/189 453/93/190
f 453/93/190 442/92/189 444/94/191 454/95/192
f 454/95/192 444/94/191 446/96/193 455/97/194
f 455/97/194 446/96/193 448/98/195 456/99/196
f 456/99/196 448/98/195 434/85/182 449/84/181
f 433/100/197 435/101/198 437/102/199 439/103/200 441/104/201 443/105/202 445/106/203 447/107/204
f 447/107/204 456/99/196 449/84/181 433/100/197
f 445/106/203 455/97/194 456/99/196 447/107/204
f 443/105/202 454/95/192 455/97/194 445/106/203
f 441/104/201 453/93/190 454/95/192 443/105/202
f 439/103/200 452/91/188 453/93/190 441/104/201
f 437/102/199 451/89/186 452/91/188 439/103/200
f 435/101/198 450/87/184 451/89/186 437/102/199
f 433/100/197 449/84/181 450/87/184 435/101/198
f 473/84/205 474/87/206 460/86/207 458/85/208
f 474/87/206 475/89/209 462/88/210 460/86/207
f 475/89/209 476/91/211 464/90/212 462/88/210
f 476/91/211 477/93/213 466/92/214 464/90/212
f 477/93/213 478/95/215 468/94/216 466/92/214
f 478/95/215 479/97/217 470/96/218 468/94/216
f 479/97/217 480/99/219 472/98/220 470/96/218
f 480/99/219 473/84/205 458/85/208 472/98/220
f 457/100/221 471/107/222 469/106/223 467/105/224 465/104/225 463/103/226 461/102/227 459/101/228
f 471/107/222 457/100/221 473/84/205 480/99/219
f 469/106/223 471/107/222 480/99/219 479/97/217
f 467/105/224 469/106/223 479/97/217 478/95/215
f 465/104/225 467/105/224 478/95/215 477/93/213
f 463/103/226 465/104/225 477/93/213 476/91/211
f 461/102/227 463/103/226 476/91/211 475/89/209
f 459/101/228 461/102/227 475/89/209 474/87/206
f 457/100/221 459/101/228 474/87/206 473/84/205
f 497/84/229 498/87/230 484/86/231 482/85/232
f 498/87/230 499/89/233 486/88/234 484/86/231
f 499/89/233 500/91/235 488/90/236 486/88/234
f 500/91/235 501/93/237 490/92/238 488/90/236
f 501/93/237 502/95/239 492/94/240 490/92/238
f 502/95/239 503/97/241 494/96/242 492/94/240
f 503/97/241 504/99/243 496/98/244 494/96/242
f 504/99/243 497/84/229 482/85/232 496/98/244
f 481/100/245 495/107/246 493/106/247 491/105/248 489/104/249 487/103/250 485/102/251 483/101/252
f 495/107/246 481/100/245 497/84/229 504/99/243
f 493/106/247 495/107/246 504/99/243 503/97/241
f 491/105/248 493/106/247 503/97/241 502/95/239
f 489/104/249 491/105/248 502/95/239 501/93/237
f 487/103/250 489/104/249 501/93/237 500/91/235
f 485/102/251 487/103/250 500/91/235 499/89/233
f 483/101/252 485/102/251 499/89/233 498/87/230
f 481/100/245 483/101/252 498/87/230 497/84/229
f 521/84/253 506/85/254 508/86/255 522/87/256
f 522/87/256 508/86/255 510/88/257 523/89/258
f 523/89/258 510/88/257 512/90/259 524/91/260
f 524/91/260 512/90/259 514/92/261 525/93/262
f 525/93/262 514/92/261 516/94/263 526/95/264
f 526/95/264 516/94/263 518/96/265 527/97/266
f 527/97/266 518/96/265 520/98/267 528/99/268
f 528/99/268 520/98/267 506/85/254 521/84/253
f 505/100/269 507/101/270 509/102/271 511/103/272 513/104/273 515/105/274 517/106/275 519/107/276
f 519/107/276 528/99/268 521/84/253 505/100/269
f 517/106/275 527/97/266 528/99/268 519/107/276
f 515/105/274 526/95/264 527/97/266 517/106/275
f 513/104/273 525/93/262 526/95/264 515/105/274
f 511/103/272 524/91/260 525/93/262 513/104/273
f 509/102/271 523/89/258 524/91/260 511/103/272
f 507/101/270 522/87/256 523/89/258 509/102/271
f 505/100/269 521/84/253 522/87/256 507/101/270
f 545/84/190 546/87/277 532/86/187 530/85/189
f 546/87/277 547/89/186 534/88/185 532/86/187
f 547/89/186 548/91/184 536/90/183 534/88/185
f 548/91/184 549/93/181 538/92/278 536/90/183
f 549/93/181 550/95/279 540/94/280 538/92/278
f 550/95/279 551/97/194 542/96/193 540/94/280
f 551/97/194 552/99/281 544/98/191 542/96/193
f 552/99/281 545/84/190 530/85/189 544/98/191
f 529/100/282 543/107/283 541/106/203 539/105/284 537/104/285 535/103/286 533/102/199 531/101/287
f 543/107/283 529/100/282 545/84/190 552/99/281
f 541/106/203 543/107/283 552/99/281 551/97/194
f 539/105/284 541/106/203 551/97/194 550/95/279
f 537/104/285 539/105/284 550/95/279 549/93/181
f 535/103/286 537/104/285 549/93/181 548/91/184
f 533/102/199 535/103/286 548/91/184 547/89/186
f 531/101/287 533/102/199 547/89/186 546/87/277
f 529/100/282 531/101/287 546/87/277 545/84/190
f 569/84/213 554/85/214 556/86/212 570/87/288
f 570/87/288 556/86/212 558/88/210 571/89/209
f 571/89/209 558/88/210 560/90/207 572/91/206
f 572/91/206 560/90/207 562/92/289 573/93/205
f 573/93/205 562/92/289 564/94/290 574/95/291
f 574/95/291 564/94/290 566/96/218 575/97/217
f 575/97/217 566/96/218 568/98/216 576/99/215
f 576/99/215 568/98/216 554/85/214 569/84/213
f 553/100/292 555/101/293 557/102/227 559/103/294 561/104/295 563/105/296 565/106/223 567/107/297
f 567/107/297 576/99/215 569/84/213 553/100/292
f 565/106/223 575/97/217 576/99/215 567/107/297
f 563/105/296 574/95/291 575/97/217 565/106/223
f 561/104/295 573/93/205 574/95/291 563/105/296
f 559/103/294 572/91/206 573/93/205 561/104/295
f 557/102/227 571/89/209 572/91/206 559/103/294
f 555/101/293 570/87/288 571/89/209 557/102/227
f 553/100/292 569/84/213 570/87/288 555/101/293
f 593/84/237 578/85/238 580/86/236 594/87/298
f 594/87/298 580/86/236 582/88/234 595/89/233
f 595/89/233 582/88/234 584/90/231 596/91/230
f 596/91/230 584/90/231 586/92/299 597/93/229
f 597/93/229 586/92/299 588/94/300 598/95/301
f 598/95/301 588/94/300 590/96/242 599/97/241
f 599/97/241 590/96/242 592/98/240 600/99/302
f 600/99/302 592/98/240 578/85/238 593/84/237
f 577/100/303 579/101/304 581/102/251 583/103/305 585/104/306 587/105/307 589/106/247 591/107/308
f 591/107/308 600/99/302 593/84/237 577/100/303
f 589/106/247 599/97/241 600/99/302 591/107/308
f 587/105/307 598/95/301 599/97/241 589/106/247
f 585/104/306 597/93/229 598/95/301 587/105/307
f 583/103/305 596/91/230 597/93/229 585/104/306
f 581/102/251 595/89/233 596/91/230 583/103/305
f 579/101/304 594/87/298 595/89/233 581/102/251
f 577/100/303 593/84/237 594/87/298 579/101/304
f 617/84/262 618/87/309 604/86/259 602/85/261
f 618/87/309 619/89/258 606/88/257 604/86/259
f 619/89/258 620/91/256 608/90/255 606/88/257
f 620/91/256 621/93/253 610/92/310 608/90/255
f 621/93/253 622/95/311 612/94/312 610/92/310
f 622/95/311 623/97/266 614/96/265 612/94/312
f 623/97/266 624/99/264 616/98/263 614/96/265
f 624/99/264 617/84/262 602/85/261 616/98/263
f 601/100/313 615/107/314 613/106/275 611/105/315 609/104/316 607/103/317 605/102/271 603/101/318
f 615/107/314 601/100/313 617/84/262 624/99/264
f 613/106/275 615/107/314 624/99/264 623/97/266
f 611/105/315 613/106/275 623/97/266 622/95/311
f 609/104/316 611/105/315 622/95/311 621/93/253
f 607/103/317 609/104/316 621/93/253 620/91/256
f 605/102/271 607/103/317 620/91/256 619/89/258
f 603/101/318 605/102/271 619/89/258 618/87/309
f 601/100/313 603/101/318 618/87/309 617/84/262
f 627/108/319 628/109/320 641/110/321 640/111/322
f 627/108/319 640/111/322 643/112/323 637/113/324
f 630/114/325 646/115/326 638/116/327 634/117/328
f 635/118/329 636/119/330 632/120/331 631/121/332
f 638/116/327 637/113/324 633/122/333 634/117/328
f 629/123/334 644/124/335 635/118/329 631/121/332
f 636/119/330 645/125/336 630/114/325 632/120/331
f 637/113/324 643/112/323 629/123/334 633/122/333
f 626/126/337 642/127/338 645/125/336 636/119/330
f 628/109/320 627/108/319 637/113/324 638/116/327
f 625/128/339 626/126/337 636/119/330 635/118/329
f 641/110/321 628/109/320 638/116/327 646/115/326
f 639/129/340 642/127/338 626/126/337 625/128/339
f 643/112/323 644/124/335 629/123/334
f 645/125/336 646/115/326 630/114/325
f 640/111/322 641/110/321 642/127/338 639/129/340
f 639/129/340 644/124/335 643/112/323 640/111/322
f 641/110/321 646/115/326 645/125/336 642/127/338
f 639/129/340 625/128/339 635/118/329 644/124/335
f 647/130/341 648/131/342 650/132/343 649/133/344
f 649/133/344 650/132/343 652/134/345 651/135/346
f 651/135/346 652/134/345 654/136/347 653/137/348
f 653/137/348 654/136/347 656/138/349 655/139/350
f 655/139/350 656/138/349 658/140/351 657/141/352
f 657/141/352 658/140/351 660/142/353 659/143/354
f 659/143/354 660/142/353 662/144/355 661/145/356
f 661/145/356 662/144/355 648/131/342 647/130/341
f 647/130/341 649/133/344 651/135/346 653/137/348 655/139/350 657/141/352 659/143/354 661/145/356
f 663/146/357 664/147/358 666/148/359 665/149/360
f 665/149/360 666/148/359 668/150/361 667/151/362
f 667/151/362 668/150/361 670/152/363 669/153/364
f 669/153/364 670/152/363 672/154/365 671/155/366
f 671/155/366 672/154/365 674/156/367 673/157/368
f 673/157/368 674/156/367 676/158/369 675/159/370
f 675/159/370 676/158/369 678/160/371 677/161/372
f 677/161/372 678/160/371 664/147/358 663/146/357
f 663/146/357 665/149/360 667/151/362 669/153/364 671/155/366 673/157/368 675/159/370 677/161/372
f 681/108/373 694/111/374 695/110/375 682/109/376
f 681/108/373 691/113/377 697/112/378 694/111/374
f 684/114/379 688/117/380 692/116/381 700/115/382
f 689/118/383 685/121/384 686/120/385 690/119/386
f 692/116/381 688/117/380 687/122/387 691/113/377
f 683/123/388 685/121/384 689/118/383 698/124/389
f 690/119/386 686/120/385 684/114/379 699/125/390
f 691/113/377 687/122/387 683/123/388 697/112/378
f 680/126/391 690/119/386 699/125/390 696/127/392
f 682/109/376 692/116/381 691/113/377 681/108/373
f 679/128/393 689/118/383 690/119/386 680/126/391
f 695/110/375 700/115/382 692/116/381 682/109/376
f 693/129/394 679/128/393 680/126/391 696/127/392
f 697/112/378 683/123/388 698/124/389
f 699/125/390 684/114/379 700/115/382
f 694/111/374 693/129/394 696/127/392 695/110/375
f 693/129/394 694/111/374 697/112/378 698/124/389
f 695/110/375 696/127/392 699/125/390 700/115/382
f 693/129/394 698/124/389 689/118/383 679/128/393
f 701/130/395 703/133/396 704/132/397 702/131/398
f 703/133/396 705/135/399 706/134/400 704/132/397
f 705/135/399 707/137/401 708/136/402 706/134/400
f 707/137/401 709/139/403 710/138/404 708/136/402
f 709/139/403 711/141/405 712/140/406 710/138/404
f 711/141/405 713/143/407 714/142/408 712/140/406
f 713/143/407 715/145/409 716/144/410 714/142/408
f 715/145/409 701/130/395 702/131/398 716/144/410
f 701/130/395 715/145/409 713/143/407 711/141/405 709/139/403 707/137/401 705/135/399 703/133/396
f 717/146/411 719/149/412 720/148/413 718/147/414
f 719/149/412 721/151/415 722/150/416 720/148/413
f 721/151/415 723/153/417 724/152/418 722/150/416
f 723/153/417 725/155/419 726/154/420 724/152/418
f 725/155/419 727/157/421 728/156/422 726/154/420
f 727/157/421 729/159/423 730/158/424 728/156/422
f 729/159/423 731/161/425 732/160/426 730/158/424
f 731/161/425 717/146/411 718/147/414 732/160/426
f 717/146/411 731/161/425 729/159/423 727/157/421 725/155/419 723/153/417 721/151/415 719/149/412
f 735/108/427 748/111/428 749/110/429 736/109/430
f 735/108/427 745/113/431 751/112/432 748/111/428
f 738/114/433 742/117/434 746/116/435 754/115/436
f 743/118/437 739/121/438 740/120/439 744/119/440
f 746/116/435 742/117/434 741/122/441 745/113/431
f 737/123/442 739/121/438 743/118/437 752/124/443
f 744/119/440 740/120/439 738/114/433 753/125/444
f 745/113/431 741/122/441 737/123/442 751/112/432
f 734/126/445 744/119/440 753/125/444 750/127/446
f 736/109/430 746/116/435 745/113/431 735/108/427
f 733/128/447 743/118/437 744/119/440 734/126/445
f 749/110/429 754/115/436 746/116/435 736/109/430
f 747/129/448 733/128/447 734/126/445 750/127/446
f 751/112/432 737/123/442 752/124/443
f 753/125/444 738/114/433 754/115/436
f 748/111/428 747/129/448 750/127/446 749/110/429
f 747/129/448 748/111/428 751/112/432 752/124/443
f 749/110/429 750/127/446 753/125/444 754/115/436
f 747/129/448 752/124/443 743/118/437 733/128/447
f 755/130/449 757/133/450 758/132/451 756/131/452
f 757/133/450 759/135/453 760/134/454 758/132/451
f 759/135/453 761/137/455 762/136/456 760/134/454
f 761/137/455 763/139/457 764/138/458 762/136/456
f 763/139/457 765/141/459 766/140/460 764/138/458
f 765/141/459 767/143/461 768/142/462 766/140/460
f 767/143/461 769/145/463 770/144/464 768/142/462
f 769/145/463 755/130/449 756/131/452 770/144/464
f 755/130/449 769/145/463 767/143/461 765/141/459 763/139/457 761/137/455 759/135/453 757/133/450
f 771/146/465 773/149/466 774/148/467 772/147/468
f 773/149/466 775/151/469 776/150/470 774/148/467
f 775/151/469 777/153/471 778/152/472 776/150/470
f 777/153/471 779/155/473 780/154/474 778/152/472
f 779/155/473 781/157/475 782/156/476 780/154/474
f 781/157/475 783/159/477 784/158/478 782/156/476
f 783/159/477 785/161/479 786/160/480 784/158/478
f 785/161/479 771/146/465 772/147/468 786/160/480
f 771/146/465 785/161/479 783/159/477 781/157/475 779/155/473 777/153/471 775/151/469 773/149/466
f 789/108/481 790/109/482 803/110/483 802/111/484
f 789/108/481 802/111/484 805/112/485 799/113/486
f 792/114/487 808/115/488 800/116/489 796/117/490
f 797/118/491 798/119/492 794/120/493 793/121/494
f 800/116/489 799/113/486 795/122/495 796/117/490
f 791/123/496 806/124/497 797/118/491 793/121/494
f 798/119/492 807/125/498 792/114/487 794/120/493
f 799/113/486 805/112/485 791/123/496 795/122/495
f 788/126/499 804/127/500 807/125/498 798/119/492
f 790/109/482 789/108/481 799/113/486 800/116/489
f 787/128/501 788/126/499 798/119/492 797/118/491
f 803/110/483 790/109/482 800/116/489 808/115/488
f 801/129/502 804/127/500 788/126/499 787/128/501
f 805/112/485 806/124/497 791/123/496
f 807/125/498 808/115/488 792/114/487
f 802/111/484 803/110/483 804/127/500 801/129/502
f 801/129/502 806/124/497 805/112/485 802/111/484
f 803/110/483 808/115/488 807/125/498 804/127/500
f 801/129/502 787/128/501 797/118/491 806/124/497
f 809/130/503 810/131/504 812/132/505 811/133/506
f 811/133/506 812/132/505 814/134/507 813/135/508
f 813/135/508 814/134/507 816/136/509 815/137/510
f 815/137/510 816/136/509 818/138/511 817/139/512
f 817/139/512 818/138/511 820/140/513 819/141/514
f 819/141/514 820/140/513 822/142/515 821/143/516
f 821/143/516 822/142/515 824/144/517 823/145/518
f 823/145/518 824/144/517 810/131/504 809/130/503
f 809/130/503 811/133/506 813/135/508 815/137/510 817/139/512 819/141/514 821/143/516 823/145/518
f 825/146/519 826/147/520 828/148/521 827/149/522
f 827/149/522 828/148/521 830/150/523 829/151/524
f 829/151/524 830/150/523 832/152/525 831/153/526
f 831/153/526 832/152/525 834/154/527 833/155/528
f 833/155/528 834/154/527 836/156/529 835/157/530
f 835/157/530 836/156/529 838/158/531 837/159/532
f 837/159/532 838/158/531 840/160/533 839/161/534
f 839/161/534 840/160/533 826/147/520 825/146/519
f 825/146/519 827/149/522 829/151/524 831/153/526 833/155/528 835/157/530 837/159/532 839/161/534
f 843/108/320 856/111/321 857/110/322 844/109/319
f 843/108/320 853/113/535 859/112/326 856/111/321
f 846/114/536 850/117/537 854/116/324 862/115/323
f 851/118/330 847/121/331 848/120/332 852/119/329
f 854/116/324 850/117/537 849/122/538 853/113/535
f 845/123/539 847/121/331 851/118/330 860/124/336
f 852/119/329 848/120/332 846/114/536 861/125/335
f 853/113/535 849/122/538 845/123/539 859/112/326
f 842/126/540 852/119/329 861/125/335 858/127/340
f 844/109/319 854/116/324 853/113/535 843/108/320
f 841/128/337 851/118/330 852/119/329 842/126/540
f 857/110/322 862/115/323 854/116/324 844/109/319
f 855/129/338 841/128/337 842/126/540 858/127/340
f 859/112/326 845/123/539 860/124/336
f 861/125/335 846/114/536 862/115/323
f 856/111/321 855/129/338 858/127/340 857/110/322
f 855/129/338 856/111/321 859/112/326 860/124/336
f 857/110/322 858/127/340 861/125/335 862/115/323
f 855/129/338 860/124/336 851/118/330 841/128/337
f 863/130/457 865/133/459 866/132/541 864/131/542
f 865/133/459 867/135/543 868/134/544 866/132/541
f 867/135/543 869/137/545 870/136/546 868/134/544
f 869/137/545 871/139/449 872/138/547 870/136/546
f 871/139/449 873/141/450 874/140/548 872/138/547
f 873/141/450 875/143/549 876/142/550 874/140/548
f 875/143/549 877/145/455 878/144/551 876/142/550
f 877/145/455 863/130/457 864/131/542 878/144/551
f 863/130/457 877/145/455 875/143/549 873/141/450 871/139/449 869/137/545 867/135/543 865/133/459
f 879/146/419 881/149/421 882/148/552 880/147/553
f 881/149/421 883/151/423 884/150/554 882/148/552
f 883/151/423 885/153/425 886/152/426 884/150/554
f 885/153/425 887/155/411 888/154/414 886/152/426
f 887/155/411 889/157/412 890/156/413 888/154/414
f 889/157/412 891/159/555 892/158/416 890/156/413
f 891/159/555 893/161/417 894/160/418 892/158/416
f 893/161/417 879/146/419 880/147/553 894/160/418
f 879/146/419 893/161/417 891/159/555 889/157/412 887/155/411 885/153/425 883/151/423 881/149/421
f 897/108/376 898/109/373 911/110/556 910/111/557
f 897/108/376 910/111/557 913/112/558 907/113/381
f 900/114/388 916/115/378 908/116/377 904/117/387
f 905/118/386 906/119/383 902/120/384 901/121/385
f 908/116/377 907/113/381 903/122/380 904/117/387
f 899/123/379 914/124/559 905/118/386 901/121/385
f 906/119/383 915/125/560 900/114/388 902/120/384
f 907/113/381 913/112/558 899/123/379 903/122/380
f 896/126/561 912/127/394 915/125/560 906/119/383
f 898/109/373 897/108/376 907/113/381 908/116/377
f 895/128/562 896/126/561 906/119/383 905/118/386
f 911/110/556 898/109/373 908/116/377 916/115/378
f 909/129/392 912/127/394 896/126/561 895/128/562
f 913/112/558 914/124/559 899/123/379
f 915/125/560 916/115/378 900/114/388
f 910/111/557 911/110/556 912/127/394 909/129/392
f 909/129/392 914/124/559 913/112/558 910/111/557
f 911/110/556 916/115/378 915/125/560 912/127/394
f 909/129/392 895/128/562 905/118/386 914/124/559
f 917/130/512 918/131/563 920/132/564 919/133/514
f 919/133/514 920/132/564 922/134/515 921/135/565
f 921/135/565 922/134/515 924/136/517 923/137/518
f 923/137/518 924/136/517 926/138/566 925/139/503
f 925/139/503 926/138/566 928/140/505 927/141/506
f 927/141/506 928/140/505 930/142/567 929/143/568
f 929/143/568 930/142/567 932/144/569 931/145/510
f 931/145/510 932/144/569 918/131/563 917/130/512
f 917/130/512 919/133/514 921/135/565 923/137/518 925/139/503 927/141/506 929/143/568 931/145/510
f 933/146/366 934/147/365 936/148/367 935/149/368
f 935/149/368 936/148/367 938/150/369 937/151/370
f 937/151/370 938/150/369 940/152/371 939/153/372
f 939/153/372 940/152/371 942/154/570 941/155/571
f 941/155/571 942/154/570 944/156/359 943/157/360
f 943/157/360 944/156/359 946/158/572 945/159/573
f 945/159/573 946/158/572 948/160/363 947/161/364
f 947/161/364 948/160/363 934/147/365 933/146/366
f 933/146/366 935/149/368 937/151/370 939/153/372 941/155/571 943/157/360 945/159/573 947/161/364
f 951/108/430 952/109/427 965/110/574 964/111/575
f 951/108/430 964/111/575 967/112/576 961/113/577
f 954/114/442 970/115/432 962/116/578 958/117/441
f 959/118/440 960/119/437 956/120/438 955/121/439
f 962/116/578 961/113/577 957/122/579 958/117/441
f 953/123/580 968/124/444 959/118/440 955/121/439
f 960/119/437 969/125/443 954/114/442 956/120/438
f 961/113/577 967/112/576 953/123/580 957/122/579
f 950/126/447 966/127/448 969/125/443 960/119/437
f 952/109/427 951/108/430 961/113/577 962/116/578
f 949/128/445 950/126/447 960/119/437 959/118/440
f 965/110/574 952/109/427 962/116/578 970/115/432
f 963/129/581 966/127/448 950/126/447 949/128/445
f 967/112/576 968/124/444 953/123/580
f 969/125/443 970/115/432 954/114/442
f 964/111/575 965/110/574 966/127/448 963/129/581
f 963/129/581 968/124/444 967/112/576 964/111/575
f 965/110/574 970/115/432 969/125/443 966/127/448
f 963/129/581 949/128/445 959/118/440 968/124/444
f 971/130/582 972/131/583 974/132/584 973/133/352
f 973/133/352 974/132/584 976/134/353 975/135/585
f 975/135/585 976/134/353 978/136/586 977/137/356
f 977/137/356 978/136/586 980/138/587 979/139/341
f 979/139/341 980/138/587 982/140/588 981/141/344
f 981/141/344 982/140/588 984/142/345 983/143/346
f 983/143/346 984/142/345 986/144/589 985/145/348
f 985/145/348 986/144/589 972/131/583 971/130/582
f 971/130/582 973/133/352 975/135/585 977/137/356 979/139/341 981/141/344 983/143/346 985/145/348
f 987/146/528 988/147/590 990/148/529 989/149/530
f 989/149/530 990/148/529 992/150/591 991/151/592
f 991/151/592 992/150/591 994/152/533 993/153/534
f 993/153/534 994/152/533 996/154/520 995/155/519
f 995/155/519 996/154/520 998/156/521 997/157/522
f 997/157/522 998/156/521 1000/158/593 999/159/524
f 999/159/524 1000/158/593 1002/160/525 1001/161/526
f 1001/161/526 1002/160/525 988/147/590 987/146/528
f 987/146/528 989/149/530 991/151/592 993/153/534 995/155/519 997/157/522 999/159/524 1001/161/526
f 1005/108/482 1018/111/483 1019/110/484 1006/109/481
f 1005/108/482 1015/113/594 1021/112/595 1018/111/483
f 1008/114/596 1012/117/495 1016/116/597 1024/115/598
f 1013/118/599 1009/121/493 1010/120/494 1014/119/600
f 1016/116/597 1012/117/495 1011/122/490 1015/113/594
f 1007/123/601 1009/121/493 1013/118/599 1022/124/602
f 1014/119/600 1010/120/494 1008/114/596 1023/125/603
f 1015/113/594 1011/122/490 1007/123/601 1021/112/595
f 1004/126/501 1014/119/600 1023/125/603 1020/127/502
f 1006/109/481 1016/116/597 1015/113/594 1005/108/482
f 1003/128/499 1013/118/599 1014/119/600 1004/126/501
f 1019/110/484 1024/115/598 1016/116/597 1006/109/481
f 1017/129/500 1003/128/499 1004/126/501 1020/127/502
f 1021/112/595 1007/123/601 1022/124/602
f 1023/125/603 1008/114/596 1024/115/598
f 1018/111/483 1017/129/500 1020/127/502 1019/110/484
f 1017/129/500 1018/111/483 1021/112/595 1022/124/602
f 1019/110/484 1020/127/502 1023/125/603 1024/115/598
f 1017/129/500 1022/124/602 1013/118/599 1003/128/499
f 1025/130/403 1027/133/405 1028/132/604 1026/131/605
f 1027/133/405 1029/135/407 1030/134/606 1028/132/604
f 1029/135/407 1031/137/409 1032/136/410 1030/134/606
f 1031/137/409 1033/139/607 1034/138/608 1032/136/410
f 1033/139/607 1035/141/396 1036/140/397 1034/138/608
f 1035/141/396 1037/143/609 1038/142/610 1036/140/397
f 1037/143/609 1039/145/401 1040/144/611 1038/142/610
f 1039/145/401 1025/130/403 1026/131/605 1040/144/611
f 1025/130/403 1039/145/401 1037/143/609 1035/141/396 1033/139/607 1031/137/409 1029/135/407 1027/133/405
f 1041/146/473 1043/149/475 1044/148/476 1042/147/612
f 1043/149/475 1045/151/613 1046/150/478 1044/148/476
f 1045/151/613 1047/153/479 1048/152/480 1046/150/478
f 1047/153/479 1049/155/614 1050/154/468 1048/152/480
f 1049/155/614 1051/157/466 1052/156/467 1050/154/468
f 1051/157/466 1053/159/469 1054/158/615 1052/156/467
f 1053/159/469 1055/161/471 1056/160/472 1054/158/615
f 1055/161/471 1041/146/473 1042/147/612 1056/160/472
f 1041/146/473 1055/161/471 1053/159/469 1051/157/466 1049/155/614 1047/153/479 1045/151/613 1043/149/475
