# Blender 4.4.3
# www.blender.org
o Cube
v 0.391010 0.100000 -0.391010
v 0.500000 -0.100000 -0.500000
v 0.391010 0.100000 0.391010
v 0.500000 -0.100000 0.500000
v -0.391010 0.100000 -0.391010
v -0.500000 -0.100000 -0.500000
v -0.391010 0.100000 0.391010
v -0.500000 -0.100000 0.500000
v 0.500000 0.100000 0.500000
v -0.500000 0.100000 0.500000
v 0.500000 0.100000 -0.500000
v -0.500000 0.100000 -0.500000
v 0.391010 0.282949 0.391010
v -0.391010 0.282949 0.391010
v 0.391010 0.282949 -0.391010
v -0.391010 0.282949 -0.391010
vn -0.0000 -0.0000 1.0000
vn -1.0000 -0.0000 -0.0000
vn -0.0000 -1.0000 -0.0000
vn 1.0000 -0.0000 -0.0000
vn -0.0000 -0.0000 -1.0000
vn -0.0000 1.0000 -0.0000
vt 0.847752 0.722753
vt 0.652248 0.722752
vt 0.375000 0.750000
vt 0.625000 0.750000
vt 0.625000 1.000000
vt 0.375000 1.000000
vt 0.375000 0.000000
vt 0.625000 0.000000
vt 0.625000 0.250000
vt 0.375000 0.250000
vt 0.125000 0.500000
vt 0.375000 0.500000
vt 0.125000 0.750000
vt 0.625000 0.500000
vt 0.875000 0.750000
vt 0.652248 0.527248
vt 0.847752 0.527248
vt 0.875000 0.500000
s 0
f 7/1/1 3/2/1 13/2/1 14/1/1
f 4/3/1 9/4/1 10/5/1 8/6/1
f 8/7/2 10/8/2 12/9/2 6/10/2
f 6/11/3 2/12/3 4/3/3 8/13/3
f 2/12/4 11/14/4 9/4/4 4/3/4
f 6/10/5 12/9/5 11/14/5 2/12/5
f 3/2/6 7/1/6 10/15/6 9/4/6
f 1/16/6 3/2/6 9/4/6 11/14/6
f 7/1/6 5/17/6 12/18/6 10/15/6
f 5/17/6 1/16/6 11/14/6 12/18/6
f 15/16/6 16/17/6 14/1/6 13/2/6
f 1/16/5 5/17/5 16/17/5 15/16/5
f 3/2/4 1/16/4 15/16/4 13/2/4
f 5/17/2 7/1/2 14/1/2 16/17/2
